<svg width="580" height="449" viewBox="0 0 580 449" fill="none" xmlns="http://www.w3.org/2000/svg">
<g clip-path="url(#clip0_246_418)">
<path fill-rule="evenodd" clip-rule="evenodd" d="M502.831 54.1447C502.436 58.7653 503.407 63.4394 506.014 67.2929C513.134 77.8899 522.106 98.7629 523.275 115.747C527.14 172.228 500.638 198.114 492.331 205.322C491.756 205.821 491.45 206.517 491.486 207.284C492.187 223.144 491.63 239.718 489.238 256.327C585.881 181.095 567.11 62.3334 502.723 0C503.515 9.08062 504 18.2683 504 27.563C504 36.8577 503.604 45.3853 502.849 54.1447H502.831ZM380.476 277.039C370.785 300.784 356.994 317.714 345.559 330.898C237.858 455.226 69.4934 427.431 2.71553 408.735C0.144388 408.021 -1.1322 411.714 1.29511 412.802C134.905 472.317 255.461 457.759 347.033 374.053C403.185 322.71 428.968 265.229 440.26 216.971C421.435 241.805 405.738 258.681 380.476 277.039ZM482.171 142.311C486.415 160.24 490.262 182.273 491.413 206.071C492.204 222.288 491.683 239.308 489.22 256.327C486.9 272.258 482.927 288.189 476.526 303.496C443.712 382.082 375.172 373.019 368.394 362.797C366.937 360.62 373.878 358.087 376.503 358.016C404.695 357.249 448.405 347.008 458.438 271.009C461.063 251.171 459.247 227.604 452.522 199.488C464.281 181.595 474.224 162.47 482.171 142.311ZM399.408 199.809C399.408 199.809 399.336 199.898 399.3 199.934C399.282 200.041 399.269 200.153 399.255 200.264C399.242 200.376 399.228 200.487 399.21 200.595C399.264 200.345 399.336 200.059 399.408 199.809ZM567.09 194.279C574.228 194.279 580 188.553 580 181.47C580 174.387 574.228 168.661 567.09 168.661C559.952 168.661 554.181 174.387 554.181 181.47C554.181 188.553 559.952 194.279 567.09 194.279Z" fill="url(#paint0_linear_246_418)"/>
</g>
<defs>
<linearGradient id="paint0_linear_246_418" x1="71.7098" y1="448.992" x2="578.971" y2="46.2823" gradientUnits="userSpaceOnUse">
<stop stop-color="#D2BD8B"/>
<stop offset="1" stop-color="#023321"/>
</linearGradient>
<clipPath id="clip0_246_418">
<rect width="580" height="449" fill="white"/>
</clipPath>
</defs>
</svg>
