<svg width="224" height="176" viewBox="0 0 224 176" fill="none" xmlns="http://www.w3.org/2000/svg">
<path d="M224.548 208.733L223.687 207.808C221.866 205.846 218.494 192.5 227.204 182.44C227.29 182.322 238.048 168.573 257.757 178.969C257.888 179.041 270.156 185.979 270.246 200.68L270.269 204.573L269.354 200.789C267.124 191.58 259.502 184.787 249.935 183.482C242.005 182.399 234.088 185.68 229.266 192.043C225.799 196.62 224.141 201.958 224.471 207.473L224.548 208.733ZM243.505 175.978C240.672 175.978 237.962 176.508 235.42 177.573C230.526 179.63 227.938 182.975 227.911 183.006C220.923 191.082 222.079 201.446 223.533 205.561C223.647 200.526 225.36 195.7 228.545 191.49C233.562 184.864 241.805 181.447 250.057 182.576C258.681 183.754 265.787 189.233 269.032 196.914C267.16 185.331 257.44 179.82 257.331 179.757C252.554 177.237 247.887 175.969 243.505 175.969V175.978Z" fill="#085D3E"/>
<path d="M13.3101 208.556L12.4491 207.632C10.6273 205.669 7.25574 192.323 15.9657 182.263C16.0518 182.145 26.8101 168.396 46.5185 178.792C46.6499 178.864 58.9173 185.802 59.008 200.503L59.0306 204.396L58.1152 200.612C55.8856 191.404 48.2632 184.61 38.6968 183.305C30.7663 182.218 22.8494 185.503 18.0276 191.866C14.5608 196.443 12.9022 201.781 13.2331 207.296L13.3101 208.556ZM32.2436 175.796C29.6016 175.796 26.8644 176.263 24.1364 177.414C19.2557 179.476 16.6953 182.798 16.6681 182.83C9.68017 190.905 10.8358 201.269 12.2905 205.384C12.4038 200.349 14.1167 195.523 17.3025 191.313C22.3192 184.688 30.5623 181.275 38.8146 182.399C47.4385 183.577 54.5442 189.056 57.7889 196.742C55.9173 185.145 46.1923 179.644 46.088 179.585C42.4264 177.654 37.5276 175.792 32.2436 175.792V175.796Z" fill="#085D3E"/>
<path d="M84.1382 208.203L83.2772 207.278C81.4555 205.316 78.0839 191.97 86.7938 181.91C86.8799 181.792 97.6383 168.042 117.347 178.438C117.478 178.511 129.746 185.449 129.836 200.15L129.859 204.042L128.943 200.258C126.714 191.05 119.091 184.257 109.525 182.952C101.594 181.864 93.6775 185.145 88.8558 191.512C85.389 196.089 83.7304 201.428 84.0612 206.943L84.1382 208.203ZM103.094 175.447C100.262 175.447 97.5521 175.978 95.0098 177.042C90.1156 179.1 87.528 182.444 87.5008 182.476C80.5129 190.552 81.6685 200.916 83.1231 205.03C83.2364 199.996 84.9495 195.169 88.1353 190.959C93.1519 184.334 101.395 180.917 109.647 182.045C118.271 183.224 125.377 188.703 128.622 196.388C126.75 184.792 117.025 179.29 116.921 179.231C112.144 176.712 107.477 175.443 103.094 175.443V175.447Z" fill="#085D3E"/>
<path d="M153.361 208.252L152.5 207.328C150.678 205.366 147.307 192.02 156.016 181.959C156.103 181.842 166.861 168.092 186.569 178.488C186.701 178.561 198.968 185.499 199.059 200.2L199.081 204.092L198.166 200.308C195.936 191.1 188.314 184.307 178.748 183.002C170.817 181.914 162.9 185.195 158.078 191.562C154.612 196.139 152.953 201.477 153.284 206.993L153.361 208.252ZM172.317 175.497C169.485 175.497 166.775 176.027 164.232 177.092C159.338 179.15 156.751 182.494 156.723 182.526C149.736 190.601 150.891 200.965 152.346 205.08C152.459 200.045 154.172 195.219 157.358 191.009C162.375 184.384 170.618 180.971 178.87 182.095C187.494 183.274 194.6 188.752 197.844 196.438C195.973 184.855 186.252 179.34 186.143 179.281C181.367 176.761 176.699 175.493 172.317 175.493V175.497Z" fill="#085D3E"/>
<path d="M234.51 105.378C233.269 105.378 231.991 105.278 230.672 105.056C230.527 105.042 213.189 102.99 211.843 80.7479C211.838 80.5983 211.398 66.5092 223.911 58.8007L227.223 56.7615L224.468 59.5077C217.756 66.1965 215.908 76.2388 219.76 85.0893C222.95 92.4306 229.865 97.4926 237.809 98.3083C243.524 98.8929 248.944 97.5379 253.489 94.3929L254.527 93.6723L254.182 94.8868C253.525 97.2071 245.64 105.378 234.51 105.378ZM221.337 61.7917C212.409 69.405 212.744 80.5757 212.749 80.7025C214.05 102.178 230.627 104.145 230.794 104.159C241.321 105.94 249.583 99.5681 252.343 96.1874C247.983 98.7025 242.966 99.7448 237.714 99.2101C229.448 98.3627 222.247 93.0923 218.926 85.4518C215.454 77.4669 216.447 68.553 221.332 61.7917H221.337Z" fill="#085D3E"/>
<path d="M-12.8725 46.2208C-14.1142 46.2208 -15.3922 46.1211 -16.7109 45.899C-16.8559 45.8854 -34.1943 43.8326 -35.5402 21.5909C-35.5447 21.4413 -35.9843 7.35222 -23.4722 -0.356234L-20.1596 -2.39551L-22.9148 0.35072C-29.6263 7.03954 -31.4753 17.0773 -27.6233 25.9323C-24.433 33.2737 -17.5175 38.3356 -9.57344 39.1513C-3.85894 39.7359 1.56099 38.3809 6.1063 35.2359L7.14403 34.5154L6.79961 35.7299C6.14251 38.0501 -1.74264 46.2208 -12.8725 46.2208ZM-26.0463 2.63017C-34.9874 10.2525 -34.6384 21.4187 -34.6339 21.541C-33.3333 43.0169 -16.7563 44.9836 -16.5886 45.0017C-6.0614 46.7827 2.19995 40.4111 4.95976 37.0305C0.600249 39.5456 -4.41638 40.5879 -9.66864 40.0531C-17.9345 39.2057 -25.1354 33.9353 -28.4571 26.2948C-31.9284 18.3099 -30.936 9.39149 -26.0508 2.63017H-26.0463Z" fill="#085D3E"/>
<path d="M-20.5375 25.1711L-21.3986 24.2466C-23.2203 22.2844 -26.5919 8.93846 -17.882 -1.12196C-17.7958 -1.23978 -7.03753 -14.989 12.6709 -4.59326C12.8023 -4.52075 25.0697 2.42184 25.1603 17.1182L25.183 21.011L24.2676 17.227C22.038 8.02306 14.4156 1.22547 4.84917 -0.079669C-3.08134 -1.16728 -10.9982 2.11368 -15.82 8.48075C-19.2868 13.0578 -20.9454 18.3962 -20.6146 23.9113L-20.5375 25.1711ZM-1.58137 -7.5842C-4.41369 -7.5842 -7.12365 -7.05398 -9.66594 -5.98903C-14.5602 -3.93163 -17.1478 -0.587216 -17.175 -0.555494C-24.1629 7.52003 -23.0073 17.8841 -21.5526 21.9989C-21.4393 16.9641 -19.7263 12.1378 -16.5405 7.92788C-11.5239 1.3025 -3.28072 -2.10988 4.97154 -0.986013C13.5954 0.192234 20.7011 5.67109 23.9458 13.3569C22.0742 1.77381 12.3537 -3.7413 12.2449 -3.80021C7.46848 -6.31984 2.80081 -7.58873 -1.58137 -7.58873V-7.5842Z" fill="#085D3E"/>
<path d="M-0.578001 53.3039C-4.88767 53.3039 -10.0357 52.2662 -15.0387 48.7088L-18.2109 46.4565L-14.6037 47.9202C-5.82576 51.4867 4.1395 49.2662 10.7875 42.2646C16.2981 36.4595 18.2604 28.1166 15.9039 20.4897C14.209 15.0018 10.8465 10.5426 6.17427 7.58791L5.10474 6.91269L6.36003 6.75408C9.02015 6.41873 21.8177 11.4807 24.9039 24.4233C24.9492 24.5637 29.8298 41.3266 9.87665 51.251C9.79961 51.2873 5.42653 53.3084 -0.578001 53.3084V53.3039ZM-11.2865 49.9142C-0.777398 55.1664 9.36457 50.4852 9.47786 50.4308C15.0383 47.6619 22.0897 42.5411 24.061 33.881C25.2392 28.7148 24.0383 24.6952 24.0247 24.6589C21.5503 14.2722 12.4597 9.15589 8.27241 7.93233C12.292 10.964 15.2105 15.174 16.7694 20.2178C19.221 28.1574 17.1773 36.8447 11.4401 42.8855C5.44466 49.1982 -3.15202 51.7677 -11.2819 49.9142H-11.2865Z" fill="#085D3E"/>
<path d="M-11.5288 166.887C-12.7705 166.887 -14.0484 166.787 -15.3671 166.565C-15.5122 166.552 -32.8505 164.499 -34.1965 142.257C-34.201 142.107 -34.6406 128.018 -22.1285 120.314L-18.8158 118.275L-21.5711 121.021C-28.2826 127.706 -30.1315 137.748 -26.2796 146.603C-23.0892 153.944 -16.1738 159.006 -8.22969 159.822C-2.51519 160.407 2.90473 159.052 7.45005 155.907L8.48783 155.186L8.14342 156.401C7.48632 158.721 -0.398891 166.891 -11.5288 166.891V166.887ZM-24.707 123.301C-33.6345 130.914 -33.2992 142.085 -33.2901 142.212C-31.9895 163.688 -15.4125 165.654 -15.2448 165.668C-4.7176 167.449 3.54369 161.077 6.30351 157.697C1.944 160.212 -3.07257 161.254 -8.32484 160.719C-16.5907 159.872 -23.7916 154.601 -27.1134 146.961C-30.5847 138.976 -29.5922 130.062 -24.7116 123.301H-24.707Z" fill="#085D3E"/>
<path d="M-19.1977 145.837L-20.0587 144.913C-21.8805 142.95 -25.2521 129.604 -16.5421 119.544C-16.456 119.426 -5.69774 105.677 14.0107 116.073C14.1421 116.145 26.4095 123.088 26.5002 137.784L26.5228 141.677L25.6074 137.893C23.3778 128.685 15.7554 121.891 6.18896 120.586C-1.74155 119.499 -9.65846 122.78 -14.4802 129.147C-17.947 133.724 -19.6056 139.062 -19.2747 144.577L-19.1977 145.837ZM-0.241526 113.082C-3.07385 113.082 -5.7838 113.612 -8.3261 114.677C-13.2204 116.734 -15.808 120.079 -15.8352 120.111C-22.8231 128.186 -21.6675 138.55 -20.2128 142.665C-20.0996 137.63 -18.3865 132.804 -15.2007 128.594C-10.1841 121.969 -1.94094 118.556 6.31132 119.68C14.9352 120.858 22.0409 126.337 25.2856 134.023C23.414 122.44 13.6935 116.925 13.5848 116.866C8.80832 114.346 4.14065 113.077 -0.241526 113.077V113.082Z" fill="#085D3E"/>
<path d="M0.761843 173.97C-3.54782 173.97 -8.69587 172.932 -13.6989 169.375L-16.8711 167.123L-13.2638 168.586C-4.48587 172.153 5.47934 169.932 12.1274 162.931C17.6379 157.126 19.6002 148.783 17.2437 141.156C15.5488 135.668 12.1863 131.209 7.51412 128.254L6.44464 127.579L7.69993 127.42C10.3555 127.094 23.1576 132.142 26.2437 145.089C26.289 145.23 31.1697 161.993 11.2166 171.917C11.1395 171.954 6.76637 173.975 0.761843 173.975V173.97ZM-9.94208 170.58C0.566982 175.833 10.709 171.151 10.8223 171.097C16.3827 168.328 23.434 163.207 25.4053 154.547C26.5836 149.381 25.3827 145.361 25.3691 145.325C22.8948 134.938 13.8041 129.822 9.6123 128.599C13.6319 131.63 16.5504 135.84 18.1093 140.884C20.5609 148.824 18.5171 157.511 12.78 163.552C6.78451 169.864 -1.81217 172.434 -9.94208 170.58Z" fill="#085D3E"/>
<path d="M23.2759 105.201C22.0342 105.201 20.7562 105.102 19.4375 104.88C19.2925 104.866 1.95414 102.813 0.608224 80.5714C0.603692 80.4218 0.164118 66.3327 12.6762 58.6242L15.9889 56.585L13.2336 59.3312C6.52211 66.02 4.67316 76.0623 8.52513 84.9127C11.7155 92.2541 18.6308 97.3161 26.5749 98.1318C32.2849 98.7164 37.7094 97.3614 42.2547 94.2164L43.2925 93.4958L42.9481 94.7103C42.291 97.0306 34.4058 105.201 23.2759 105.201ZM10.0976 61.6107C1.17013 69.2239 1.5055 80.3946 1.51003 80.5215C2.81064 101.997 19.3876 103.964 19.5553 103.978C30.0825 105.759 38.3438 99.3871 41.1037 96.0064C36.7442 98.5215 31.7275 99.5638 26.4753 99.0291C18.2094 98.1816 11.0085 92.9112 7.68677 85.2708C4.21547 77.2859 5.20789 68.372 10.0931 61.6107H10.0976Z" fill="#085D3E"/>
<path d="M15.607 84.1515L14.746 83.2271C12.9242 81.2648 9.55261 67.9189 18.2626 57.8585C18.3487 57.7407 29.107 43.9914 48.8155 54.3872C48.9469 54.4597 61.2142 61.3978 61.3049 76.0987L61.3275 79.9914L60.4121 76.2074C58.1825 66.999 50.5602 60.2059 40.9937 58.9008C33.0632 57.8132 25.1463 61.0941 20.3245 67.4612C16.8578 72.0383 15.1991 77.3766 15.5299 82.8917L15.607 84.1515ZM34.5632 51.3963C31.7308 51.3963 29.0209 51.9265 26.4786 52.9914C21.5843 55.0488 18.9967 58.3932 18.9696 58.425C11.9816 66.5005 13.1372 76.8645 14.5919 80.9793C14.7052 75.9446 16.4182 71.1183 19.604 66.9083C24.6206 60.283 32.8638 56.8706 41.1161 57.9945C49.7399 59.1727 56.8457 64.6515 60.0904 72.3328C58.2188 60.7497 48.4982 55.2392 48.3894 55.1757C43.613 52.6561 38.9453 51.3872 34.5632 51.3872V51.3963Z" fill="#085D3E"/>
<path d="M35.5665 112.284C31.2569 112.284 26.1088 111.247 21.1058 107.689L17.9336 105.437L21.5408 106.901C30.3188 110.467 40.284 108.242 46.9321 101.245C52.4426 95.4401 54.4049 87.0972 52.0484 79.4703C50.3535 73.9824 46.991 69.5186 42.3188 66.5685L41.2493 65.8933L42.5046 65.7346C45.1647 65.4038 57.9623 70.4612 61.0484 83.4038C61.0937 83.5443 65.9743 100.307 46.0212 110.232C45.9441 110.268 41.5711 112.289 35.5665 112.289V112.284ZM24.8626 108.895C35.3717 114.147 45.5136 109.466 45.6269 109.411C53.5846 105.451 58.6284 99.7407 60.201 92.9023C61.3928 87.7271 60.1873 83.6757 60.1737 83.6349C57.6994 73.2482 48.6088 68.1365 44.4215 66.9084C48.4411 69.9401 51.3595 74.1501 52.9184 79.1939C55.3701 87.1334 53.3263 95.8207 47.5891 101.862C41.5937 108.174 32.9971 110.744 24.8671 108.89L24.8626 108.895Z" fill="#085D3E"/>
<path d="M92.4986 105.251C91.2569 105.251 89.9789 105.151 88.6601 104.929C88.5151 104.916 71.1768 102.863 69.8309 80.6212C69.8263 80.4716 69.3868 66.3825 81.8989 58.674L85.2115 56.6348L82.4562 59.381C75.7448 66.0698 73.8958 76.1121 77.7478 84.9626C80.9381 92.3039 87.8535 97.3659 95.7976 98.1816C101.512 98.7662 106.932 97.4112 111.477 94.2662L112.515 93.5456L112.171 94.7601C111.514 97.0804 103.628 105.251 92.4986 105.251ZM79.3203 61.665C70.3928 69.2783 70.7282 80.4489 70.7327 80.5758C72.0333 102.052 88.6103 104.018 88.778 104.032C99.3052 105.813 107.567 99.4414 110.326 96.0607C105.967 98.5758 100.95 99.6181 95.6979 99.0834C87.4321 98.2359 80.2312 92.9656 76.9094 85.3251C73.4381 77.3402 74.4305 68.4263 79.3157 61.665H79.3203Z" fill="#085D3E"/>
<path d="M84.8297 84.2013L83.9686 83.2769C82.1469 81.3146 78.7753 67.9687 87.4852 57.9083C87.5713 57.7905 98.3297 44.0412 118.038 54.437C118.17 54.5095 130.437 61.4476 130.528 76.1485L130.55 80.0412L129.635 76.2572C127.405 67.0488 119.783 60.2557 110.216 58.9506C102.286 57.863 94.3689 61.144 89.5472 67.511C86.0804 72.0881 84.4218 77.4264 84.7526 82.9415L84.8297 84.2013ZM103.781 51.4461C100.949 51.4461 98.239 51.9763 95.6967 53.0413C90.8025 55.0987 88.2149 58.4431 88.1877 58.4748C81.1998 66.5503 82.3553 76.9143 83.81 81.0291C83.9233 75.9944 85.6363 71.1681 88.8221 66.9582C93.8387 60.3328 102.082 56.9204 110.334 58.0443C118.958 59.2225 126.064 64.7014 129.309 72.3872C127.437 60.7905 117.712 55.289 117.608 55.2301C112.831 52.7104 108.163 51.4416 103.781 51.4416V51.4461Z" fill="#085D3E"/>
<path d="M104.789 112.334C100.48 112.334 95.3315 111.296 90.3285 107.739L87.1562 105.487L90.7635 106.95C99.5369 110.517 109.507 108.292 116.155 101.295C121.665 95.4898 123.628 87.1469 121.271 79.52C119.576 74.0321 116.214 69.5683 111.541 66.6182L110.472 65.943L111.727 65.7844C114.387 65.449 127.185 70.5109 130.271 83.4535C130.316 83.594 135.197 100.357 115.244 110.281C115.167 110.318 110.794 112.339 104.789 112.339V112.334ZM94.0853 108.944C104.594 114.197 114.736 109.515 114.85 109.461C122.807 105.5 127.851 99.7904 129.424 92.952C130.615 87.7768 129.41 83.7254 129.396 83.6846C126.922 73.2979 117.831 68.1862 113.644 66.9581C117.664 69.9898 120.582 74.1997 122.141 79.2436C124.593 87.1831 122.549 95.8704 116.812 101.911C110.816 108.224 102.22 110.793 94.0898 108.94L94.0853 108.944Z" fill="#085D3E"/>
<path d="M60.854 169.352C59.6123 169.352 58.3344 169.252 57.0157 169.03C56.8707 169.017 39.5323 166.964 38.1863 144.722C38.1818 144.573 37.7422 130.484 50.2543 122.775L53.567 120.736L50.8118 123.482C44.1003 130.171 42.2513 140.209 46.1033 149.064C49.2936 156.405 56.209 161.467 64.1531 162.283C69.8631 162.867 75.2875 161.512 79.8329 158.367L80.8706 157.647L80.5262 158.861C79.8691 161.181 71.9839 169.352 60.854 169.352ZM47.6758 125.762C38.7483 133.375 39.0837 144.545 39.0882 144.672C40.3888 166.148 56.9658 168.115 57.1335 168.129C67.6607 169.91 75.922 163.538 78.6818 160.157C74.3223 162.672 69.3057 163.715 64.0534 163.18C55.7876 162.333 48.5867 157.062 45.2649 149.422C41.7937 141.437 42.7861 132.523 47.6713 125.762H47.6758Z" fill="#085D3E"/>
<path d="M53.1851 148.302L52.3241 147.378C50.5023 145.416 47.1307 132.07 55.8407 122.009C55.9268 121.892 66.6851 108.142 86.3935 118.538C86.5249 118.611 98.7923 125.549 98.883 140.25L98.9057 144.142L97.9902 140.358C95.7606 131.15 88.1383 124.357 78.5718 123.052C70.6413 121.964 62.7244 125.245 57.9026 131.612C54.4358 136.189 52.7772 141.527 53.1081 147.043L53.1851 148.302ZM72.1413 115.543C69.309 115.543 66.599 116.073 64.0567 117.138C59.1625 119.195 56.5748 122.54 56.5476 122.571C49.5597 130.647 50.7153 141.011 52.17 145.126C52.2833 140.091 53.9963 135.265 57.1821 131.055C62.1987 124.429 70.4419 121.017 78.6941 122.141C87.318 123.319 94.4237 128.798 97.6684 136.479C95.7968 124.896 86.0763 119.386 85.9676 119.322C81.1911 116.802 76.5235 115.534 72.1413 115.534V115.543Z" fill="#085D3E"/>
<path d="M73.1491 176.431C68.8395 176.431 63.6915 175.393 58.6839 171.836L55.5117 169.583L59.1189 171.047C67.8969 174.614 77.8622 172.393 84.5102 165.392C90.0208 159.586 91.983 151.244 89.6265 143.617C87.9316 138.129 84.5691 133.665 79.8969 130.715L78.8274 130.04L80.0827 129.881C82.7383 129.546 95.5404 134.608 98.6265 147.55C98.6718 147.691 103.552 164.454 83.5993 174.378C83.5223 174.414 79.1491 176.435 73.1446 176.435L73.1491 176.431ZM62.4452 173.041C72.9407 178.284 83.0918 173.612 83.2051 173.558C91.1628 169.597 96.2065 163.887 97.779 157.049C98.9709 151.873 97.7655 147.822 97.7519 147.781C95.2775 137.395 86.1869 132.283 81.9996 131.055C86.0192 134.086 88.9377 138.296 90.4966 143.34C92.9482 151.28 90.9044 159.967 85.1673 166.008C79.1718 172.321 70.5751 174.89 62.4452 173.037V173.041Z" fill="#085D3E"/>
<path d="M58.1978 46.3477C56.9561 46.3477 55.6781 46.248 54.3594 46.026C54.2144 46.0124 36.876 43.9595 35.5301 21.7178C35.5256 21.5683 35.086 7.47918 47.5981 -0.229281L50.9108 -2.26855L48.1555 0.477673C41.444 7.16649 39.5951 17.2088 43.4471 26.0592C46.6374 33.4006 53.5528 38.4625 61.4969 39.2783C67.2114 39.8628 72.6313 38.5079 77.1766 35.3629L78.2144 34.6423L77.87 35.8568C77.2129 38.177 69.3277 46.3477 58.1978 46.3477ZM45.0241 2.75712C36.0966 10.3704 36.4319 21.5411 36.4364 21.668C37.737 43.1438 54.3141 45.1106 54.4818 45.1242C65.009 46.9051 73.2703 40.5335 76.0301 37.1529C71.6706 39.668 66.654 40.7103 61.4017 40.1755C53.1359 39.3281 45.9349 34.0577 42.6132 26.4172C39.1419 18.4324 40.1344 9.51845 45.0195 2.75712H45.0241Z" fill="#085D3E"/>
<path d="M50.5327 25.2934L49.6717 24.3689C47.85 22.4067 44.4784 9.06077 53.1884 -0.999651C53.2745 -1.11748 64.0327 -14.8667 83.7412 -4.47094C83.8726 -4.39844 96.14 2.53963 96.2306 17.2405L96.2533 21.1333L95.3379 17.3493C93.1083 8.14083 85.4859 1.34778 75.9194 0.0426463C67.9889 -1.04497 60.072 2.23601 55.2503 8.60307C51.7835 13.1801 50.1249 18.5185 50.4557 24.0336L50.5327 25.2934ZM69.4844 -7.46188C66.6521 -7.46188 63.9421 -6.93167 61.3998 -5.86671C56.5056 -3.80931 53.9179 -0.464908 53.8907 -0.433186C46.9028 7.64234 48.0584 18.0064 49.5131 22.1212C49.6264 17.0864 51.3394 12.2602 54.5252 8.0502C59.5418 1.42483 67.785 -1.9921 76.0373 -0.863698C84.6611 0.31455 91.7669 5.7934 95.0116 13.4792C93.14 1.88252 83.4149 -3.61898 83.3107 -3.67789C78.5343 -6.19753 73.8666 -7.46641 69.4844 -7.46641V-7.46188Z" fill="#085D3E"/>
<path d="M70.4923 53.4263C66.1826 53.4263 61.0346 52.3886 56.0316 48.8312L52.8594 46.5789L56.4667 48.0426C65.2446 51.6091 75.2099 49.3886 81.8579 42.3871C87.3685 36.5819 89.3307 28.239 86.9742 20.6121C85.2793 15.1242 81.9168 10.665 77.2446 7.71034L76.1751 7.0351L77.4304 6.87649C80.086 6.54567 92.8881 11.6031 95.9742 24.5457C96.0195 24.6862 100.9 41.449 80.947 51.3734C80.87 51.4097 76.4968 53.4309 70.4923 53.4309V53.4263ZM59.7884 50.0366C70.2975 55.2889 80.4395 50.6076 80.5528 50.5532C88.5105 46.5925 93.5542 40.8825 95.1267 34.0442C96.3186 28.8689 95.1132 24.8176 95.0996 24.7768C92.6253 14.3901 83.5346 9.27378 79.3473 8.05022C83.3669 11.0819 86.2854 15.2919 87.8443 20.3357C90.2959 28.2753 88.2521 36.9626 82.515 43.0034C76.5195 49.316 67.9228 51.8855 59.7929 50.0321L59.7884 50.0366Z" fill="#085D3E"/>
<path d="M129.026 45.9945C127.784 45.9945 126.506 45.8948 125.188 45.6727C125.043 45.6591 107.704 43.6062 106.358 21.3646C106.354 21.215 105.914 7.1259 118.426 -0.582552L121.739 -2.62183L118.984 0.124402C112.272 6.81322 110.423 16.8555 114.275 25.706C117.465 33.0473 124.381 38.1093 132.325 38.925C138.035 39.5096 143.459 38.1546 148.005 35.0096L149.042 34.289L148.698 35.5035C148.041 37.8238 140.156 45.9945 129.026 45.9945ZM115.848 2.40385C106.92 10.0171 107.256 21.1878 107.26 21.3147C108.561 42.7905 125.138 44.7573 125.305 44.7709C135.833 46.5519 144.094 40.1803 146.854 36.7996C142.494 39.3147 137.478 40.357 132.225 39.8223C123.959 38.9748 116.759 33.7044 113.437 26.064C109.965 18.0791 110.958 9.16518 115.843 2.40385H115.848Z" fill="#085D3E"/>
<path d="M121.357 24.9445L120.496 24.02C118.674 22.0578 115.303 8.7119 124.013 -1.34852C124.099 -1.46635 134.857 -15.2156 154.565 -4.81982C154.697 -4.74731 166.964 2.19075 167.055 16.8916L167.078 20.7844L166.162 17.0004C163.933 7.79196 156.31 0.998904 146.744 -0.306231C138.813 -1.39384 130.896 1.88712 126.075 8.25419C122.608 12.8312 120.949 18.1696 121.28 23.6847L121.357 24.9445ZM140.313 -7.81076C137.481 -7.81076 134.771 -7.28055 132.229 -6.21559C127.334 -4.15819 124.747 -0.813779 124.72 -0.782057C117.732 7.29347 118.887 17.6575 120.342 21.7723C120.455 16.7376 122.168 11.9113 125.354 7.70132C130.371 1.07594 138.614 -2.33644 146.866 -1.21258C155.49 -0.0343283 162.596 5.44453 165.84 13.1303C163.969 1.54725 154.248 -3.96786 154.139 -4.02677C149.363 -6.54641 144.695 -7.81529 140.313 -7.81529V-7.81076Z" fill="#085D3E"/>
<path d="M141.317 53.0775C137.007 53.0775 131.859 52.0398 126.856 48.4824L123.684 46.2301L127.291 47.6939C136.069 51.2603 146.034 49.0398 152.682 42.0383C158.193 36.2331 160.155 27.8902 157.798 20.2634C156.104 14.7754 152.741 10.3162 148.069 7.36155L146.999 6.68633L148.255 6.52771C150.91 6.20143 163.712 11.2543 166.798 24.1969C166.844 24.3374 171.724 41.1002 151.771 51.0247C151.694 51.0609 147.321 53.0821 141.317 53.0821V53.0775ZM130.617 49.6878C141.113 54.931 151.264 50.2588 151.377 50.2044C156.937 47.4356 163.989 42.3147 165.96 33.6546C167.138 28.4884 165.937 24.4688 165.924 24.4325C163.449 14.0458 154.359 8.92953 150.167 7.70596C154.187 10.7377 157.105 14.9476 158.664 19.9915C161.116 27.931 159.072 36.6183 153.335 42.6591C147.339 48.9718 138.747 51.5413 130.613 49.6878H130.617Z" fill="#085D3E"/>
<path d="M198.249 46.0443C197.007 46.0443 195.729 45.9446 194.41 45.7225C194.265 45.7089 176.927 43.6561 175.581 21.4144C175.576 21.2648 175.137 7.17571 187.649 -0.532748L190.962 -2.57202L188.206 0.174206C181.495 6.86302 179.646 16.9008 183.498 25.7558C186.688 33.0971 193.604 38.1591 201.548 38.9748C207.262 39.5594 212.682 38.2044 217.227 35.0594L218.265 34.3388L217.921 35.5533C217.264 37.8736 209.378 46.0443 198.249 46.0443ZM185.075 2.45366C176.134 10.076 176.483 21.2422 176.487 21.3645C177.788 42.8403 194.365 44.8071 194.533 44.8252C205.06 46.6062 213.321 40.2346 216.081 36.8539C211.721 39.3691 206.705 40.4113 201.452 39.8766C193.187 39.0292 185.986 33.7588 182.664 26.1183C179.193 18.1334 180.185 9.21499 185.07 2.45366H185.075Z" fill="#085D3E"/>
<path d="M190.58 24.9943L189.719 24.0698C187.897 22.1076 184.525 8.7617 193.235 -1.29872C193.321 -1.41654 204.08 -15.1658 223.788 -4.77002C223.92 -4.69751 236.187 2.24056 236.278 16.9415L236.3 20.8342L235.385 17.0502C233.155 7.84176 225.533 1.04871 215.966 -0.256428C208.036 -1.34404 200.119 1.93693 195.297 8.304C191.83 12.881 190.172 18.2194 190.503 23.7345L190.58 24.9943ZM209.536 -7.76095C206.704 -7.76095 203.994 -7.23074 201.451 -6.16579C196.557 -4.10839 193.969 -0.763975 193.942 -0.732253C186.954 7.34327 188.11 17.7073 189.565 21.8221C189.678 16.7874 191.391 11.9611 194.577 7.75113C199.593 1.12575 207.836 -2.28664 216.089 -1.16277C224.713 0.0154752 231.818 5.49432 235.063 13.1801C233.191 1.59704 223.471 -3.91805 223.362 -3.97697C218.586 -6.4966 213.918 -7.76548 209.536 -7.76548V-7.76095Z" fill="#085D3E"/>
<path d="M210.539 53.1272C206.23 53.1272 201.081 52.0895 196.078 48.5321L192.906 46.2798L196.513 47.7436C205.291 51.31 215.257 49.0895 221.905 42.088C227.415 36.2828 229.378 27.9399 227.021 20.3131C225.331 14.8251 221.964 10.3659 217.291 7.41125L216.222 6.73602L217.477 6.57742C220.133 6.2466 232.935 11.304 236.021 24.2466C236.066 24.3871 240.947 41.1499 220.994 51.0744C220.917 51.1106 216.544 53.1318 210.539 53.1318V53.1272ZM199.835 49.7375C210.344 54.9898 220.486 50.3085 220.6 50.2541C226.16 47.4852 233.211 42.3644 235.183 33.7043C236.361 28.5381 235.16 24.5185 235.146 24.4822C232.672 14.0955 223.581 8.97922 219.39 7.75565C223.409 10.7874 226.328 14.9973 227.887 20.0412C230.338 27.9807 228.294 36.668 222.557 42.7088C216.562 49.0215 207.965 51.5955 199.835 49.7375Z" fill="#085D3E"/>
<path d="M130.37 166.66C129.128 166.66 127.85 166.561 126.531 166.339C126.386 166.325 109.048 164.272 107.702 142.03C107.697 141.881 107.258 127.792 119.77 120.088L123.083 118.049L120.327 120.795C113.616 127.479 111.767 137.521 115.619 146.376C118.809 153.718 125.725 158.78 133.669 159.595C139.379 160.18 144.803 158.825 149.348 155.68L150.386 154.959L150.042 156.174C149.385 158.494 141.5 166.665 130.37 166.665V166.66ZM117.191 123.07C108.25 130.688 108.599 141.858 108.604 141.981C109.904 163.456 126.481 165.423 126.649 165.441C137.176 167.222 145.438 160.851 148.197 157.47C143.838 159.985 138.821 161.027 133.569 160.493C125.303 159.645 118.102 154.375 114.781 146.734C111.309 138.749 112.302 129.831 117.187 123.07H117.191Z" fill="#085D3E"/>
<path d="M122.701 145.611L121.84 144.686C120.018 142.724 116.646 129.378 125.356 119.317C125.442 119.2 136.201 105.45 155.909 115.846C156.041 115.919 168.308 122.861 168.399 137.558L168.421 141.45L167.506 137.666C165.276 128.462 157.654 121.665 148.087 120.36C140.157 119.272 132.24 122.553 127.418 128.92C123.951 133.497 122.293 138.836 122.624 144.351L122.701 145.611ZM141.652 112.855C138.82 112.855 136.11 113.385 133.568 114.45C128.674 116.508 126.086 119.852 126.059 119.884C119.071 127.959 120.226 138.324 121.681 142.438C121.794 137.404 123.507 132.577 126.693 128.367C131.71 121.742 139.953 118.33 148.205 119.453C156.829 120.632 163.935 126.111 167.18 133.796C165.308 122.213 155.587 116.698 155.479 116.639C150.702 114.12 146.035 112.851 141.652 112.851V112.855Z" fill="#085D3E"/>
<path d="M142.66 173.743C138.351 173.743 133.203 172.706 128.2 169.148L125.027 166.896L128.635 168.36C137.413 171.926 147.378 169.706 154.026 162.704C159.536 156.899 161.499 148.556 159.142 140.929C157.447 135.441 154.085 130.982 149.413 128.027L148.343 127.352L149.598 127.194C152.254 126.863 165.056 131.92 168.142 144.863C168.187 145.003 173.068 161.766 153.115 171.691C153.038 171.727 148.665 173.748 142.66 173.748V173.743ZM131.956 170.354C142.461 175.606 152.607 170.925 152.721 170.87C160.678 166.91 165.722 161.2 167.295 154.361C168.487 149.186 167.281 145.135 167.268 145.094C164.793 134.707 155.703 129.591 151.515 128.367C155.535 131.399 158.453 135.609 160.012 140.653C162.464 148.592 160.42 157.28 154.683 163.321C148.687 169.633 140.091 172.203 131.961 170.349L131.956 170.354Z" fill="#085D3E"/>
<path d="M199.584 166.71C198.343 166.71 197.065 166.611 195.746 166.389C195.601 166.375 178.263 164.322 176.917 142.081C176.912 141.931 176.473 127.842 188.985 120.138L192.298 118.099L189.542 120.845C182.831 127.529 180.982 137.571 184.834 146.426C188.024 153.768 194.939 158.83 202.884 159.645C208.594 160.23 214.018 158.875 218.563 155.73L219.601 155.009L219.257 156.224C218.6 158.544 210.714 166.715 199.584 166.715V166.71ZM186.411 123.124C177.483 130.738 177.819 141.908 177.823 142.035C179.124 163.511 195.701 165.478 195.868 165.491C206.396 167.272 214.657 160.901 217.417 157.52C213.057 160.035 208.041 161.077 202.788 160.543C194.523 159.695 187.322 154.425 184 146.784C180.529 138.8 181.521 129.886 186.406 123.124H186.411Z" fill="#085D3E"/>
<path d="M191.919 145.661L191.058 144.736C189.237 142.774 185.865 129.428 194.575 119.368C194.661 119.25 205.419 105.5 225.128 115.896C225.259 115.969 237.527 122.911 237.617 137.608L237.64 141.5L236.725 137.716C234.495 128.513 226.873 121.715 217.306 120.41C209.376 119.322 201.459 122.603 196.637 128.97C193.17 133.547 191.512 138.886 191.842 144.401L191.919 145.661ZM210.871 112.905C208.039 112.905 205.329 113.436 202.787 114.5C197.892 116.558 195.305 119.902 195.277 119.934C188.29 128.01 189.445 138.374 190.9 142.488C191.013 137.454 192.726 132.627 195.912 128.417C200.929 121.792 209.172 118.38 217.424 119.503C226.048 120.682 233.154 126.161 236.398 133.846C234.527 122.263 224.806 116.748 224.697 116.689C219.921 114.17 215.253 112.901 210.871 112.901V112.905Z" fill="#085D3E"/>
<path d="M211.879 173.793C207.569 173.793 202.421 172.756 197.418 169.198L194.246 166.946L197.853 168.41C206.631 171.976 216.597 169.756 223.245 162.754C228.755 156.949 230.717 148.606 228.361 140.979C226.666 135.491 223.304 131.032 218.631 128.077L217.562 127.402L218.817 127.244C221.473 126.908 234.275 131.966 237.361 144.913C237.406 145.053 242.287 161.816 222.334 171.741C222.257 171.777 217.884 173.798 211.879 173.798V173.793ZM201.175 170.404C211.68 175.656 221.826 170.975 221.939 170.92C227.5 168.151 234.551 163.031 236.523 154.37C237.701 149.204 236.5 145.185 236.486 145.148C234.012 134.762 224.921 129.645 220.729 128.422C224.749 131.454 227.668 135.664 229.226 140.707C231.678 148.647 229.634 157.334 223.897 163.375C217.902 169.688 209.305 172.257 201.175 170.404Z" fill="#085D3E"/>
<path d="M165.292 107.807C164.05 107.807 162.772 107.707 161.453 107.485C161.308 107.472 143.97 105.419 142.624 83.1772C142.619 83.0276 142.18 68.9385 154.692 61.2346L158.004 59.1953L155.249 61.9415C148.538 68.6258 146.689 78.6681 150.541 87.5231C153.731 94.8645 160.646 99.9264 168.591 100.742C174.305 101.331 179.725 99.9717 184.27 96.8267L185.308 96.1062L184.964 97.3207C184.307 99.6409 176.421 107.812 165.292 107.812V107.807ZM152.118 64.2165C143.19 71.8298 143.526 83.0004 143.535 83.1273C144.835 104.603 161.412 106.57 161.58 106.584C172.107 108.364 180.369 101.993 183.128 98.6122C178.769 101.127 173.752 102.17 168.5 101.635C160.234 100.787 153.033 95.5171 149.711 87.8766C146.24 79.8917 147.233 70.9778 152.113 64.2165H152.118Z" fill="#085D3E"/>
<path d="M157.623 86.7573L156.762 85.8328C154.94 83.8706 151.568 70.5246 160.278 60.4642C160.364 60.3464 171.123 46.5972 190.831 56.9929C190.963 57.0654 203.23 64.008 203.32 78.7044L203.343 82.5971L202.428 78.8132C200.198 69.6047 192.576 62.8117 183.009 61.5065C175.079 60.4189 167.162 63.6999 162.34 70.0669C158.873 74.644 157.215 79.9823 157.546 85.4974L157.623 86.7573ZM176.579 53.9975C173.746 53.9975 171.037 54.5277 168.494 55.5926C163.6 57.65 161.012 60.9944 160.985 61.0262C153.997 69.1017 155.153 79.4657 156.608 83.5805C156.721 78.5458 158.434 73.7195 161.62 69.5095C166.636 62.8842 174.879 59.4672 183.132 60.5956C191.756 61.7739 198.861 67.2527 202.106 74.9385C200.234 63.3554 190.514 57.8404 190.405 57.7814C185.629 55.2618 180.961 53.9929 176.579 53.9929V53.9975Z" fill="#085D3E"/>
<path d="M177.586 114.886C173.276 114.886 168.128 113.848 163.125 110.291L159.953 108.038L163.56 109.502C172.338 113.068 182.304 110.848 188.952 103.846C194.462 98.0413 196.424 89.6984 194.068 82.0715C192.373 76.5836 189.01 72.1244 184.338 69.1697L183.269 68.4945L184.524 68.3359C187.18 68.0005 199.982 73.0579 203.068 86.005C203.113 86.1455 207.994 102.908 188.041 112.833C187.964 112.869 183.591 114.89 177.586 114.89V114.886ZM166.878 111.496C177.382 116.748 187.529 112.067 187.642 112.013C193.202 109.244 200.254 104.123 202.225 95.4627C203.403 90.2966 202.202 86.2769 202.189 86.2407C199.714 75.854 190.624 70.7377 186.432 69.5141C190.452 72.5458 193.37 76.7558 194.929 81.7996C197.381 89.7392 195.337 98.4265 189.6 104.467C183.604 110.78 175.008 113.354 166.878 111.496Z" fill="#085D3E"/>
</svg>
