<svg width="215" height="57" viewBox="0 0 215 57" fill="none" xmlns="http://www.w3.org/2000/svg">
<g clip-path="url(#clip0_454_9474)">
<path d="M7.8051 28.5546C4.90096 17.2788 9.4624 6.77739 17.5862 0.899414C2.67833 7.10265 0.897125 22.3591 0.897125 22.3591C-1.48814 46.7538 16.897 51.6638 16.897 51.6638C30.3799 56.2097 42.4766 47.6057 43.7312 44.9107C38.4341 47.4508 32.1302 48.233 25.5784 46.4905C16.866 44.1749 10.0587 37.2902 7.8051 28.5546Z" fill="url(#paint0_linear_454_9474)"/>
<path d="M48.3845 42.5956C47.5945 44.5549 46.4639 45.9566 45.5268 47.0408C36.7059 57.3021 22.9132 55.0098 17.4457 53.4686C17.2366 53.4067 17.1282 53.7165 17.3295 53.8017C28.2723 58.7116 38.1464 57.5112 45.6429 50.6032C50.2431 46.3671 52.3496 41.6198 53.2789 37.6392C51.7378 39.6914 50.4522 41.0854 48.3845 42.5956Z" fill="url(#paint1_linear_454_9474)"/>
<path d="M58.4053 24.2025C58.3743 24.5819 58.4518 24.9691 58.6686 25.2867C59.2494 26.1618 59.9851 27.881 60.0858 29.2905C60.4033 33.9526 58.2349 36.0901 57.5534 36.6864C57.507 36.7251 57.4837 36.7871 57.4837 36.849C57.5379 38.1578 57.4992 39.5286 57.2979 40.8993C65.2126 34.6883 63.6792 24.884 58.4053 19.7417C58.4673 20.4929 58.5137 21.2519 58.5137 22.0185C58.5137 22.7852 58.4827 23.49 58.4208 24.2102" fill="url(#paint2_linear_454_9474)"/>
<path d="M57.4679 36.7405C57.375 34.7735 57.0575 32.9613 56.709 31.4744C56.0585 33.1394 55.2453 34.7193 54.285 36.1907C54.8349 38.514 54.982 40.4578 54.7729 42.0919C53.952 48.3648 50.3741 49.209 48.0585 49.2709C47.8417 49.2709 47.2763 49.4878 47.3925 49.6659C47.9501 50.51 53.5648 51.2535 56.2521 44.7715C56.7787 43.5091 57.104 42.1926 57.2898 40.876C57.4912 39.4743 57.5376 38.0648 57.4679 36.725" fill="url(#paint3_linear_454_9474)"/>
<path d="M49.9415 36.2219C49.9415 36.2219 49.9415 36.2219 49.9336 36.2298C49.9336 36.2455 49.9336 36.2691 49.9336 36.2848C49.9336 36.2612 49.9415 36.2376 49.9493 36.2219" fill="url(#paint4_linear_454_9474)"/>
<path d="M64.7245 34.7116C64.7245 35.2924 64.2521 35.7726 63.6635 35.7726C63.0749 35.7726 62.6025 35.3002 62.6025 34.7116C62.6025 34.123 63.0749 33.6506 63.6635 33.6506C64.2521 33.6506 64.7245 34.123 64.7245 34.7116Z" fill="url(#paint5_linear_454_9474)"/>
<path d="M91.5195 20.5471H96.5998C97.444 20.5471 98.0945 20.764 98.5514 21.2054C99.0083 21.6391 99.2329 22.1812 99.2329 22.824C99.2329 23.3661 99.0703 23.8307 98.745 24.2102C98.5282 24.4658 98.2107 24.6749 97.8002 24.822C98.4353 24.9769 98.8922 25.248 99.1942 25.6352C99.4885 26.0224 99.6434 26.5025 99.6434 27.0834C99.6434 27.5558 99.5349 27.9817 99.3259 28.3612C99.1168 28.7407 98.8225 29.0427 98.4585 29.2595C98.2339 29.3989 97.8854 29.4996 97.4285 29.5616C96.8167 29.6468 96.414 29.6855 96.2126 29.6855H91.5273V20.5471H91.5195ZM94.261 24.1328H95.4382C95.8641 24.1328 96.1584 24.0553 96.321 23.9082C96.4837 23.7533 96.5689 23.5364 96.5689 23.2499C96.5689 22.9866 96.4837 22.7775 96.321 22.6226C96.1584 22.4755 95.8641 22.398 95.4537 22.398H94.2533V24.1328H94.261ZM94.261 27.7261H95.6473C96.1119 27.7261 96.445 27.641 96.6386 27.4706C96.8322 27.3002 96.9251 27.0679 96.9251 26.7736C96.9251 26.5025 96.8322 26.2857 96.6386 26.1231C96.445 25.9604 96.1119 25.8752 95.6395 25.8752H94.261V27.7261Z" fill="url(#paint6_linear_454_9474)"/>
<path d="M106.256 28.1829H103.174L102.748 29.693H99.9756L103.282 20.5547H106.241L109.54 29.693H106.698L106.256 28.1829ZM105.691 26.2081L104.723 22.9245L103.763 26.2081H105.691Z" fill="url(#paint7_linear_454_9474)"/>
<path d="M110.438 20.5471H114.473C115.271 20.5471 115.914 20.6555 116.402 20.8801C116.89 21.1047 117.292 21.43 117.618 21.8482C117.935 22.2664 118.167 22.7543 118.314 23.3119C118.462 23.8695 118.531 24.458 118.531 25.0853C118.531 26.0611 118.423 26.8201 118.214 27.3544C117.997 27.8965 117.703 28.3457 117.323 28.7097C116.944 29.0737 116.533 29.3137 116.1 29.4377C115.503 29.608 114.961 29.6855 114.481 29.6855H110.446V20.5471H110.438ZM113.157 22.6226V27.6177H113.823C114.388 27.6177 114.791 27.5558 115.031 27.4241C115.271 27.2925 115.457 27.0679 115.596 26.7349C115.728 26.4096 115.798 25.883 115.798 25.1473C115.798 24.1792 115.643 23.5132 115.341 23.157C115.039 22.8007 114.535 22.6226 113.831 22.6226H113.149H113.157Z" fill="url(#paint8_linear_454_9474)"/>
<path d="M119.987 29.693V20.5547H124.51C125.346 20.5547 125.989 20.6321 126.438 20.7793C126.88 20.9264 127.236 21.2052 127.515 21.6079C127.786 22.0106 127.925 22.5063 127.925 23.0871C127.925 23.5982 127.825 24.0319 127.616 24.3959C127.406 24.7599 127.12 25.0619 126.756 25.2942C126.524 25.4414 126.206 25.5576 125.803 25.6582C126.129 25.7744 126.361 25.8828 126.508 25.999C126.609 26.0764 126.756 26.2313 126.942 26.4791C127.135 26.7269 127.259 26.9128 127.321 27.0445L128.638 29.693H125.571L124.123 26.8973C123.937 26.5333 123.774 26.301 123.635 26.1926C123.441 26.0532 123.217 25.9835 122.969 25.9835H122.729V29.693H120.003H119.987ZM122.713 24.2565H123.859C123.983 24.2565 124.223 24.2178 124.58 24.1326C124.758 24.0939 124.905 24.0009 125.021 23.846C125.137 23.6912 125.192 23.513 125.192 23.3194C125.192 23.0251 125.099 22.8006 124.92 22.6379C124.742 22.483 124.402 22.3978 123.906 22.3978H122.713V24.2565Z" fill="url(#paint9_linear_454_9474)"/>
<path d="M139 28.1829H135.918L135.492 29.693H132.72L136.027 20.5547H138.985L142.284 29.693H139.442L139 28.1829ZM138.435 26.2081L137.467 22.9245L136.507 26.2081H138.435Z" fill="url(#paint10_linear_454_9474)"/>
<path d="M143.144 20.5471H145.862V27.4396H150.098V29.6932H143.144V20.5471Z" fill="url(#paint11_linear_454_9474)"/>
<path d="M154.953 26.6651L157.54 26.4947C157.594 26.9284 157.71 27.2614 157.88 27.4937C158.159 27.8655 158.562 28.0513 159.081 28.0513C159.468 28.0513 159.77 27.9584 159.979 27.7648C160.188 27.5789 160.297 27.3543 160.297 27.1065C160.297 26.8587 160.196 26.6574 159.995 26.4715C159.793 26.2856 159.329 26.1075 158.601 25.9449C157.408 25.6661 156.564 25.2943 156.053 24.8374C155.542 24.3728 155.286 23.7919 155.286 23.0717C155.286 22.5993 155.418 22.1579 155.681 21.7397C155.944 21.3215 156.339 20.9962 156.858 20.7561C157.385 20.5161 158.105 20.3999 159.019 20.3999C160.142 20.3999 161.001 20.6167 161.59 21.0504C162.179 21.4841 162.527 22.1734 162.643 23.1259L160.08 23.2808C160.01 22.8704 159.871 22.5683 159.654 22.3825C159.437 22.1966 159.135 22.1037 158.748 22.1037C158.43 22.1037 158.198 22.1734 158.035 22.3128C157.873 22.4522 157.795 22.6225 157.795 22.8239C157.795 22.971 157.865 23.1027 157.997 23.2189C158.128 23.3428 158.43 23.4512 158.91 23.5519C160.095 23.8152 160.947 24.0862 161.458 24.3573C161.97 24.6283 162.349 24.9691 162.581 25.3718C162.814 25.7745 162.93 26.2237 162.93 26.7271C162.93 27.3156 162.775 27.85 162.465 28.3456C162.155 28.8413 161.722 29.213 161.156 29.4686C160.599 29.7241 159.894 29.8558 159.042 29.8558C157.547 29.8558 156.51 29.5537 155.937 28.9574C155.364 28.3611 155.038 27.5944 154.961 26.6728" fill="url(#paint12_linear_454_9474)"/>
<path d="M169.698 28.1829H166.615L166.189 29.693H163.417L166.724 20.5547H169.682L172.981 29.693H170.139L169.698 28.1829ZM169.132 26.2081L168.164 22.9245L167.204 26.2081H169.132Z" fill="url(#paint13_linear_454_9474)"/>
<path d="M173.818 20.5471H177.389L178.767 26.1153L180.13 20.5471H183.7V29.6932H181.478V22.7233L179.766 29.6932H177.752L176.041 22.7233V29.6932H173.818V20.5471Z" fill="url(#paint14_linear_454_9474)"/>
<path d="M190.84 28.1829H187.758L187.332 29.693H184.56L187.866 20.5547H190.825L194.124 29.693H191.282L190.84 28.1829ZM190.275 26.2081L189.307 22.9245L188.347 26.2081H190.275Z" fill="url(#paint15_linear_454_9474)"/>
<path d="M200.389 28.1829H197.307L196.881 29.693H194.108L197.415 20.5547H200.374L203.673 29.693H200.831L200.389 28.1829ZM199.824 26.2081L198.856 22.9245L197.895 26.2081H199.824Z" fill="url(#paint16_linear_454_9474)"/>
<path d="M88.3062 13.926V9.68207H87.4156C87.0207 9.68207 86.6954 9.78275 86.4476 9.97636C86.1998 10.17 86.0681 10.4565 86.0681 10.836V15.0722H83.435C82.6141 15.0722 81.8862 14.9095 81.2666 14.5765L81.5996 13.926C82.134 14.197 82.6683 14.3364 83.2027 14.3364H85.3401V10.9521C85.3401 10.2706 85.557 9.74403 85.9829 9.38004C86.3314 9.0935 86.8116 8.9541 87.4079 8.9541H89.0419V13.198H90.1881V13.9337H88.3062V13.926ZM84.0313 11.4633C83.9307 11.5562 83.8068 11.6027 83.6596 11.6027C83.5125 11.6027 83.3886 11.5562 83.2879 11.4633C83.1872 11.3703 83.1407 11.2542 83.1407 11.107C83.1407 10.9599 83.1872 10.8437 83.2879 10.7508C83.3886 10.6579 83.5125 10.6114 83.6596 10.6114C83.8068 10.6114 83.9307 10.6579 84.0313 10.7508C84.132 10.8437 84.1785 10.9599 84.1785 11.107C84.1785 11.2542 84.132 11.3703 84.0313 11.4633ZM84.0313 13.2058C83.9307 13.2987 83.8068 13.3452 83.6596 13.3452C83.5125 13.3452 83.3886 13.2987 83.2879 13.2058C83.1872 13.1128 83.1407 12.9967 83.1407 12.8495C83.1407 12.7024 83.1872 12.5862 83.2879 12.4933C83.3886 12.4003 83.5125 12.3539 83.6596 12.3539C83.8068 12.3539 83.9307 12.4003 84.0313 12.4933C84.132 12.5862 84.1785 12.7024 84.1785 12.8495C84.1785 12.9967 84.132 13.1128 84.0313 13.2058Z" fill="url(#paint17_linear_454_9474)"/>
<path d="M88.3062 13.926V9.68207H87.4156C87.0207 9.68207 86.6954 9.78275 86.4476 9.97636C86.1998 10.17 86.0681 10.4565 86.0681 10.836V15.0722H83.435C82.6141 15.0722 81.8862 14.9095 81.2666 14.5765L81.5996 13.926C82.134 14.197 82.6683 14.3364 83.2027 14.3364H85.3401V10.9521C85.3401 10.2706 85.557 9.74403 85.9829 9.38004C86.3314 9.0935 86.8116 8.9541 87.4079 8.9541H89.0419V13.198H90.1881V13.9337H88.3062V13.926ZM84.0313 11.4633C83.9307 11.5562 83.8068 11.6027 83.6596 11.6027C83.5125 11.6027 83.3886 11.5562 83.2879 11.4633C83.1872 11.3703 83.1407 11.2542 83.1407 11.107C83.1407 10.9599 83.1872 10.8437 83.2879 10.7508C83.3886 10.6579 83.5125 10.6114 83.6596 10.6114C83.8068 10.6114 83.9307 10.6579 84.0313 10.7508C84.132 10.8437 84.1785 10.9599 84.1785 11.107C84.1785 11.2542 84.132 11.3703 84.0313 11.4633ZM84.0313 13.2058C83.9307 13.2987 83.8068 13.3452 83.6596 13.3452C83.5125 13.3452 83.3886 13.2987 83.2879 13.2058C83.1872 13.1128 83.1407 12.9967 83.1407 12.8495C83.1407 12.7024 83.1872 12.5862 83.2879 12.4933C83.3886 12.4003 83.5125 12.3539 83.6596 12.3539C83.8068 12.3539 83.9307 12.4003 84.0313 12.4933C84.132 12.5862 84.1785 12.7024 84.1785 12.8495C84.1785 12.9967 84.132 13.1128 84.0313 13.2058Z" fill="url(#paint18_linear_454_9474)"/>
<path d="M95.8112 11.5485C95.8112 10.6502 95.3853 10.201 94.5411 10.1933H90.8006C90.6225 9.99191 90.5141 9.74409 90.4676 9.4498L92.0397 6.49146H92.8064L91.2962 9.45755H94.5411C95.2071 9.45755 95.726 9.66665 96.09 10.0926C96.392 10.4411 96.5469 10.929 96.5469 11.5485V13.1981H97.6853V13.9338H90.0029V13.1981H95.8112V11.5485Z" fill="url(#paint19_linear_454_9474)"/>
<path d="M95.8112 11.5485C95.8112 10.6502 95.3853 10.201 94.5411 10.1933H90.8006C90.6225 9.99191 90.5141 9.74409 90.4676 9.4498L92.0397 6.49146H92.8064L91.2962 9.45755H94.5411C95.2071 9.45755 95.726 9.66665 96.09 10.0926C96.392 10.4411 96.5469 10.929 96.5469 11.5485V13.1981H97.6853V13.9338H90.0029V13.1981H95.8112V11.5485Z" fill="url(#paint20_linear_454_9474)"/>
<path d="M97.499 13.9261V13.1903H98.8775V6.49146H99.6132V13.1903H100.992V13.9261H97.499Z" fill="url(#paint21_linear_454_9474)"/>
<path d="M97.499 13.9261V13.1903H98.8775V6.49146H99.6132V13.1903H100.992V13.9261H97.499Z" fill="url(#paint22_linear_454_9474)"/>
<path d="M100.806 13.926V13.1903H101.944C101.797 12.834 101.727 12.4701 101.727 12.1061C101.727 11.3626 101.983 10.7276 102.486 10.2087C102.99 9.68982 103.617 9.42651 104.36 9.42651C105.104 9.42651 105.739 9.68208 106.25 10.201C106.761 10.7121 107.017 11.3471 107.017 12.1061C107.017 12.4933 106.939 12.8495 106.784 13.1903H108.101V13.926H106.304C105.785 14.4758 105.135 14.7469 104.353 14.7469C103.57 14.7469 102.928 14.4758 102.409 13.926H100.798H100.806ZM102.997 13.4536C103.353 13.8331 103.81 14.0189 104.345 14.0189C104.879 14.0189 105.344 13.8408 105.716 13.4768C106.087 13.1128 106.281 12.6559 106.281 12.1061C106.281 11.5562 106.095 11.0916 105.731 10.7276C105.367 10.3636 104.902 10.1777 104.353 10.1777C103.803 10.1777 103.346 10.3636 102.99 10.7431C102.633 11.1225 102.455 11.5717 102.455 12.1061C102.455 12.6404 102.633 13.0896 102.997 13.4691" fill="url(#paint23_linear_454_9474)"/>
<path d="M100.806 13.926V13.1903H101.944C101.797 12.834 101.727 12.4701 101.727 12.1061C101.727 11.3626 101.983 10.7276 102.486 10.2087C102.99 9.68982 103.617 9.42651 104.36 9.42651C105.104 9.42651 105.739 9.68208 106.25 10.201C106.761 10.7121 107.017 11.3471 107.017 12.1061C107.017 12.4933 106.939 12.8495 106.784 13.1903H108.101V13.926H106.304C105.785 14.4758 105.135 14.7469 104.353 14.7469C103.57 14.7469 102.928 14.4758 102.409 13.926H100.798H100.806ZM102.997 13.4536C103.353 13.8331 103.81 14.0189 104.345 14.0189C104.879 14.0189 105.344 13.8408 105.716 13.4768C106.087 13.1128 106.281 12.6559 106.281 12.1061C106.281 11.5562 106.095 11.0916 105.731 10.7276C105.367 10.3636 104.902 10.1777 104.353 10.1777C103.803 10.1777 103.346 10.3636 102.99 10.7431C102.633 11.1225 102.455 11.5717 102.455 12.1061C102.455 12.6404 102.633 13.0896 102.997 13.4691V13.4536Z" fill="url(#paint24_linear_454_9474)"/>
<path d="M107.915 13.9261V13.1903H109.301V6.49146H110.037V13.9261H107.915Z" fill="url(#paint25_linear_454_9474)"/>
<path d="M107.915 13.9261V13.1903H109.301V6.49146H110.037V13.9261H107.915Z" fill="url(#paint26_linear_454_9474)"/>
<path d="M112.871 6.49146H112.136V13.9261H112.871V6.49146Z" fill="url(#paint27_linear_454_9474)"/>
<path d="M112.871 6.49146H112.136V13.9261H112.871V6.49146Z" fill="url(#paint28_linear_454_9474)"/>
<path d="M117.61 13.9259V12.044C117.61 11.2541 117.788 10.6501 118.145 10.2319C118.501 9.8214 119.02 9.6123 119.701 9.6123H120.569V10.348H119.546C119.19 10.348 118.904 10.4874 118.679 10.7585C118.454 11.0295 118.346 11.3935 118.346 11.8427V13.1902H120.971V13.9259H117.618H117.61Z" fill="url(#paint29_linear_454_9474)"/>
<path d="M117.61 13.9259V12.044C117.61 11.2541 117.788 10.6501 118.145 10.2319C118.501 9.8214 119.02 9.6123 119.701 9.6123H120.569V10.348H119.546C119.19 10.348 118.904 10.4874 118.679 10.7585C118.454 11.0295 118.346 11.3935 118.346 11.8427V13.1902H120.971V13.9259H117.618H117.61Z" fill="url(#paint30_linear_454_9474)"/>
<path d="M122.877 13.9261V6.49146H123.605V13.1903H125.169V13.9261H122.877Z" fill="url(#paint31_linear_454_9474)"/>
<path d="M122.877 13.9261V6.49146H123.605V13.1903H125.169V13.9261H122.877Z" fill="url(#paint32_linear_454_9474)"/>
<path d="M124.976 13.926V13.1903H126.114C125.967 12.834 125.897 12.4701 125.897 12.1061C125.897 11.3626 126.153 10.7276 126.656 10.2087C127.159 9.68982 127.787 9.42651 128.53 9.42651C129.274 9.42651 129.909 9.68208 130.42 10.201C130.931 10.7121 131.187 11.3471 131.187 12.1061C131.187 12.4933 131.109 12.8495 130.954 13.1903H132.271V13.926H130.474C129.955 14.4758 129.305 14.7469 128.522 14.7469C127.74 14.7469 127.097 14.4758 126.579 13.926H124.968H124.976ZM127.167 13.4536C127.523 13.8331 127.98 14.0189 128.515 14.0189C129.049 14.0189 129.514 13.8408 129.885 13.4768C130.257 13.1128 130.451 12.6559 130.451 12.1061C130.451 11.5562 130.265 11.0916 129.901 10.7276C129.537 10.3636 129.072 10.1777 128.522 10.1777C127.973 10.1777 127.516 10.3636 127.159 10.7431C126.803 11.1225 126.625 11.5717 126.625 12.1061C126.625 12.6404 126.803 13.0896 127.167 13.4691" fill="url(#paint33_linear_454_9474)"/>
<path d="M124.976 13.926V13.1903H126.114C125.967 12.834 125.897 12.4701 125.897 12.1061C125.897 11.3626 126.153 10.7276 126.656 10.2087C127.159 9.68982 127.787 9.42651 128.53 9.42651C129.274 9.42651 129.909 9.68208 130.42 10.201C130.931 10.7121 131.187 11.3471 131.187 12.1061C131.187 12.4933 131.109 12.8495 130.954 13.1903H132.271V13.926H130.474C129.955 14.4758 129.305 14.7469 128.522 14.7469C127.74 14.7469 127.097 14.4758 126.579 13.926H124.968H124.976ZM127.167 13.4536C127.523 13.8331 127.98 14.0189 128.515 14.0189C129.049 14.0189 129.514 13.8408 129.885 13.4768C130.257 13.1128 130.451 12.6559 130.451 12.1061C130.451 11.5562 130.265 11.0916 129.901 10.7276C129.537 10.3636 129.072 10.1777 128.522 10.1777C127.973 10.1777 127.516 10.3636 127.159 10.7431C126.803 11.1225 126.625 11.5717 126.625 12.1061C126.625 12.6404 126.803 13.0896 127.167 13.4691V13.4536Z" fill="url(#paint34_linear_454_9474)"/>
<path d="M132.093 13.9259V13.1902H134.207V9.40321H134.943V13.1902H136.36C136.716 13.1902 137.01 13.0895 137.251 12.8804C137.483 12.6791 137.607 12.3616 137.607 11.9434V9.40321H138.342V11.9976C138.358 12.3616 138.497 12.6713 138.768 12.9114C139.039 13.1592 139.396 13.2754 139.829 13.2754C140.263 13.2754 140.596 13.1515 140.828 12.9037C141.061 12.6558 141.177 12.3151 141.177 11.8814V8.41968H141.913V11.7652C141.913 12.0363 141.889 12.2609 141.851 12.4467C141.998 12.6946 142.191 12.8804 142.439 13.0043C142.687 13.1205 143.02 13.1825 143.431 13.1825V13.9182C142.555 13.9182 141.959 13.6394 141.642 13.074C141.316 13.7013 140.72 14.0111 139.853 14.0111C138.985 14.0111 138.366 13.7013 137.986 13.074C137.607 13.6316 137.065 13.9182 136.36 13.9182H132.093V13.9259Z" fill="url(#paint35_linear_454_9474)"/>
<path d="M132.093 13.9259V13.1902H134.207V9.40321H134.943V13.1902H136.36C136.716 13.1902 137.01 13.0895 137.251 12.8804C137.483 12.6791 137.607 12.3616 137.607 11.9434V9.40321H138.342V11.9976C138.358 12.3616 138.497 12.6713 138.768 12.9114C139.039 13.1592 139.396 13.2754 139.829 13.2754C140.263 13.2754 140.596 13.1515 140.828 12.9037C141.061 12.6558 141.177 12.3151 141.177 11.8814V8.41968H141.913V11.7652C141.913 12.0363 141.889 12.2609 141.851 12.4467C141.998 12.6946 142.191 12.8804 142.439 13.0043C142.687 13.1205 143.02 13.1825 143.431 13.1825V13.9182C142.555 13.9182 141.959 13.6394 141.642 13.074C141.316 13.7013 140.72 14.0111 139.853 14.0111C138.985 14.0111 138.366 13.7013 137.986 13.074C137.607 13.6316 137.065 13.9182 136.36 13.9182H132.093V13.9259Z" fill="url(#paint36_linear_454_9474)"/>
<path d="M143.236 13.9261V13.1903H144.623V6.49146H145.358V13.9261H143.236Z" fill="url(#paint37_linear_454_9474)"/>
<path d="M143.236 13.9261V13.1903H144.623V6.49146H145.358V13.9261H143.236Z" fill="url(#paint38_linear_454_9474)"/>
<path d="M148.193 6.49146H147.457V13.9261H148.193V6.49146Z" fill="url(#paint39_linear_454_9474)"/>
<path d="M148.193 6.49146H147.457V13.9261H148.193V6.49146Z" fill="url(#paint40_linear_454_9474)"/>
<path d="M152.817 15.9476C152.623 15.9476 152.422 15.9166 152.221 15.8624L152.414 15.1577C152.554 15.1964 152.678 15.2119 152.794 15.2196C153.065 15.2196 153.251 15.1344 153.351 14.9795C153.444 14.8169 153.499 14.5226 153.499 14.0967V8.96216H154.234V14.0967C154.234 14.7085 154.126 15.1731 153.917 15.4829C153.7 15.8004 153.344 15.9553 152.833 15.9553" fill="url(#paint41_linear_454_9474)"/>
<path d="M152.817 15.9476C152.623 15.9476 152.422 15.9166 152.221 15.8624L152.414 15.1577C152.554 15.1964 152.678 15.2119 152.794 15.2196C153.065 15.2196 153.251 15.1344 153.351 14.9795C153.444 14.8169 153.499 14.5226 153.499 14.0967V8.96216H154.234V14.0967C154.234 14.7085 154.126 15.1731 153.917 15.4829C153.7 15.8004 153.344 15.9553 152.833 15.9553L152.817 15.9476Z" fill="url(#paint42_linear_454_9474)"/>
<path d="M155.187 13.9259V13.1902H158.625V11.0605C158.625 10.65 158.524 10.3093 158.315 10.0615C158.106 9.80591 157.82 9.682 157.448 9.682H156.805V8.94629H157.347C157.99 8.94629 158.501 9.16313 158.888 9.58907C159.198 9.95306 159.353 10.4332 159.361 11.0373V13.1902H160.491V13.9259H155.187Z" fill="url(#paint43_linear_454_9474)"/>
<path d="M155.187 13.9259V13.1902H158.625V11.0605C158.625 10.65 158.524 10.3093 158.315 10.0615C158.106 9.80591 157.82 9.682 157.448 9.682H156.805V8.94629H157.347C157.99 8.94629 158.501 9.16313 158.888 9.58907C159.198 9.95306 159.353 10.4332 159.361 11.0373V13.1902H160.491V13.9259H155.187Z" fill="url(#paint44_linear_454_9474)"/>
<path d="M160.305 13.9259V13.1902H161.389V8.94629H162.125V13.9259H160.305ZM162.125 15.7071C162.024 15.8001 161.9 15.8465 161.753 15.8465C161.606 15.8465 161.482 15.8001 161.381 15.7149C161.28 15.6219 161.226 15.5058 161.234 15.3664C161.234 15.2192 161.288 15.1031 161.389 15.0101C161.49 14.9172 161.613 14.8707 161.761 14.8707C161.908 14.8707 162.032 14.9172 162.132 15.0101C162.233 15.1031 162.28 15.2192 162.28 15.3586C162.28 15.498 162.233 15.6142 162.132 15.7071" fill="url(#paint45_linear_454_9474)"/>
<path d="M160.305 13.9259V13.1902H161.389V8.94629H162.125V13.9259H160.305ZM162.125 15.7071C162.024 15.8001 161.9 15.8465 161.753 15.8465C161.606 15.8465 161.482 15.8001 161.381 15.7149C161.28 15.6219 161.226 15.5058 161.234 15.3664C161.234 15.2192 161.288 15.1031 161.389 15.0101C161.49 14.9172 161.613 14.8707 161.761 14.8707C161.908 14.8707 162.032 14.9172 162.132 15.0101C162.233 15.1031 162.28 15.2192 162.28 15.3586C162.28 15.498 162.233 15.6142 162.132 15.7071H162.125Z" fill="url(#paint46_linear_454_9474)"/>
<path d="M169.025 15.0722C168.499 15.0722 168.073 15.0257 167.755 14.9405C167.438 14.8553 167.167 14.7082 166.934 14.4991C166.702 14.29 166.532 14.0344 166.423 13.7169C166.315 13.4071 166.261 13.1051 166.261 12.8031V10.5959H166.996V12.6946C166.996 13.2755 167.159 13.6937 167.477 13.9492C167.794 14.2048 168.267 14.3364 168.886 14.3364H170.629V10.9521C170.629 10.2706 170.845 9.74403 171.271 9.38004C171.62 9.0935 172.1 8.9541 172.704 8.9541H174.33V13.198H175.477V13.9337H173.595V9.68982H172.704C172.309 9.68982 171.984 9.79049 171.736 9.9841C171.488 10.1777 171.357 10.4643 171.357 10.8437V15.0799H169.025V15.0722Z" fill="url(#paint47_linear_454_9474)"/>
<path d="M169.025 15.0722C168.499 15.0722 168.073 15.0257 167.755 14.9405C167.438 14.8553 167.167 14.7082 166.934 14.4991C166.702 14.29 166.532 14.0344 166.423 13.7169C166.315 13.4071 166.261 13.1051 166.261 12.8031V10.5959H166.996V12.6946C166.996 13.2755 167.159 13.6937 167.477 13.9492C167.794 14.2048 168.267 14.3364 168.886 14.3364H170.629V10.9521C170.629 10.2706 170.845 9.74403 171.271 9.38004C171.62 9.0935 172.1 8.9541 172.704 8.9541H174.33V13.198H175.477V13.9337H173.595V9.68982H172.704C172.309 9.68982 171.984 9.79049 171.736 9.9841C171.488 10.1777 171.357 10.4643 171.357 10.8437V15.0799H169.025V15.0722Z" fill="url(#paint48_linear_454_9474)"/>
<path d="M175.291 13.9262V13.1905H176.925C176.375 12.7258 176.096 12.1295 176.096 11.4093C176.096 10.6891 176.36 10.0927 176.886 9.63582C177.413 9.1789 178.133 8.94657 179.055 8.94657H180.294V13.1905H181.262V13.9262H175.291ZM176.832 11.4325C176.832 11.8042 176.933 12.145 177.134 12.447C177.336 12.7568 177.607 12.9969 177.947 13.1905H179.55V9.68229H178.745C178.226 9.68229 177.777 9.84492 177.397 10.1702C177.018 10.4954 176.832 10.9136 176.832 11.4325ZM178.977 7.78492C178.877 7.87785 178.753 7.92432 178.606 7.92432C178.458 7.92432 178.335 7.87785 178.234 7.78492C178.133 7.69199 178.087 7.57582 178.087 7.42868C178.087 7.28153 178.133 7.16537 178.234 7.07244C178.335 6.9795 178.458 6.92529 178.606 6.92529C178.753 6.92529 178.877 6.97176 178.977 7.07244C179.078 7.16537 179.124 7.28928 179.124 7.42868C179.124 7.56808 179.078 7.69199 178.977 7.78492Z" fill="url(#paint49_linear_454_9474)"/>
<path d="M175.291 13.9262V13.1905H176.925C176.375 12.7258 176.096 12.1295 176.096 11.4093C176.096 10.6891 176.36 10.0927 176.886 9.63582C177.413 9.1789 178.133 8.94657 179.055 8.94657H180.294V13.1905H181.262V13.9262H175.291ZM176.832 11.4325C176.832 11.8042 176.933 12.145 177.134 12.447C177.336 12.7568 177.607 12.9969 177.947 13.1905H179.55V9.68229H178.745C178.226 9.68229 177.777 9.84492 177.397 10.1702C177.018 10.4954 176.832 10.9136 176.832 11.4325ZM178.977 7.78492C178.877 7.87785 178.753 7.92432 178.606 7.92432C178.458 7.92432 178.335 7.87785 178.234 7.78492C178.133 7.69199 178.087 7.57582 178.087 7.42868C178.087 7.28153 178.133 7.16537 178.234 7.07244C178.335 6.9795 178.458 6.92529 178.606 6.92529C178.753 6.92529 178.877 6.97176 178.977 7.07244C179.078 7.16537 179.124 7.28928 179.124 7.42868C179.124 7.56808 179.078 7.69199 178.977 7.78492Z" fill="url(#paint50_linear_454_9474)"/>
<path d="M181.075 13.9262V13.1905H183.189V9.40347H183.925V13.1905H185.342C185.699 13.1905 185.993 13.0898 186.225 12.8807C186.458 12.6793 186.581 12.3618 186.581 11.9436V9.40347H187.317V11.9978C187.333 12.3618 187.472 12.6716 187.743 12.9117C188.014 13.1595 188.37 13.2757 188.804 13.2757C189.238 13.2757 189.571 13.1517 189.803 12.8962C190.035 12.6484 190.152 12.3076 190.152 11.8739V8.41219H190.887V11.7578C190.887 11.9823 190.864 12.2224 190.825 12.4625C191.104 12.9426 191.631 13.1827 192.413 13.1827V13.9184C191.538 13.9184 190.942 13.6396 190.624 13.0743C190.306 13.7016 189.71 14.0114 188.843 14.0114C187.975 14.0114 187.348 13.7016 186.969 13.0743C186.589 13.6319 186.047 13.9184 185.342 13.9184H181.075V13.9262ZM186.388 7.76941C186.287 7.85459 186.171 7.90106 186.032 7.90106C185.892 7.90106 185.776 7.85459 185.675 7.76941C185.575 7.68422 185.528 7.56805 185.528 7.42865C185.528 7.28926 185.575 7.17309 185.675 7.0879C185.776 6.99497 185.892 6.9485 186.032 6.9485C186.171 6.9485 186.287 6.99497 186.388 7.0879C186.481 7.18083 186.535 7.297 186.535 7.42865C186.535 7.56031 186.489 7.67647 186.388 7.76941ZM187.247 6.46061C187.162 6.5458 187.046 6.58452 186.922 6.58452C186.798 6.58452 186.682 6.5458 186.589 6.46061C186.496 6.37542 186.45 6.267 186.45 6.14309C186.45 6.01918 186.496 5.91076 186.581 5.82557C186.674 5.74038 186.783 5.70166 186.914 5.70166C187.046 5.70166 187.162 5.74813 187.247 5.82557C187.333 5.91076 187.379 6.01918 187.379 6.14309C187.379 6.267 187.333 6.37542 187.247 6.46061ZM188.146 7.76941C188.053 7.85459 187.937 7.90106 187.797 7.90106C187.658 7.90106 187.542 7.85459 187.449 7.76941C187.348 7.68422 187.302 7.56805 187.302 7.42865C187.302 7.28926 187.348 7.17309 187.441 7.0879C187.534 6.99497 187.65 6.9485 187.79 6.9485C187.929 6.9485 188.045 6.99497 188.146 7.0879C188.239 7.18083 188.293 7.297 188.293 7.42865C188.293 7.56031 188.246 7.67647 188.146 7.76941Z" fill="url(#paint51_linear_454_9474)"/>
<path d="M181.075 13.9262V13.1905H183.189V9.40347H183.925V13.1905H185.342C185.699 13.1905 185.993 13.0898 186.225 12.8807C186.458 12.6793 186.581 12.3618 186.581 11.9436V9.40347H187.317V11.9978C187.333 12.3618 187.472 12.6716 187.743 12.9117C188.014 13.1595 188.37 13.2757 188.804 13.2757C189.238 13.2757 189.571 13.1517 189.803 12.8962C190.035 12.6484 190.152 12.3076 190.152 11.8739V8.41219H190.887V11.7578C190.887 11.9823 190.864 12.2224 190.825 12.4625C191.104 12.9426 191.631 13.1827 192.413 13.1827V13.9184C191.538 13.9184 190.942 13.6396 190.624 13.0743C190.306 13.7016 189.71 14.0114 188.843 14.0114C187.975 14.0114 187.348 13.7016 186.969 13.0743C186.589 13.6319 186.047 13.9184 185.342 13.9184H181.075V13.9262ZM186.388 7.76941C186.287 7.85459 186.171 7.90106 186.032 7.90106C185.892 7.90106 185.776 7.85459 185.675 7.76941C185.575 7.68422 185.528 7.56805 185.528 7.42865C185.528 7.28926 185.575 7.17309 185.675 7.0879C185.776 6.99497 185.892 6.9485 186.032 6.9485C186.171 6.9485 186.287 6.99497 186.388 7.0879C186.481 7.18083 186.535 7.297 186.535 7.42865C186.535 7.56031 186.489 7.67647 186.388 7.76941ZM187.247 6.46061C187.162 6.5458 187.046 6.58452 186.922 6.58452C186.798 6.58452 186.682 6.5458 186.589 6.46061C186.496 6.37542 186.45 6.267 186.45 6.14309C186.45 6.01918 186.496 5.91076 186.581 5.82557C186.674 5.74038 186.783 5.70166 186.914 5.70166C187.046 5.70166 187.162 5.74813 187.247 5.82557C187.333 5.91076 187.379 6.01918 187.379 6.14309C187.379 6.267 187.333 6.37542 187.247 6.46061ZM188.146 7.76941C188.053 7.85459 187.937 7.90106 187.797 7.90106C187.658 7.90106 187.542 7.85459 187.449 7.76941C187.348 7.68422 187.302 7.56805 187.302 7.42865C187.302 7.28926 187.348 7.17309 187.441 7.0879C187.534 6.99497 187.65 6.9485 187.79 6.9485C187.929 6.9485 188.045 6.99497 188.146 7.0879C188.239 7.18083 188.293 7.297 188.293 7.42865C188.293 7.56031 188.246 7.67647 188.146 7.76941Z" fill="url(#paint52_linear_454_9474)"/>
<path d="M192.212 13.9258V13.1901H194.156V8.94618H194.891V13.1901H196.75V13.9258H192.212ZM193.931 7.78453C193.83 7.87746 193.714 7.92392 193.575 7.92392C193.436 7.92392 193.319 7.87746 193.219 7.78453C193.118 7.69159 193.072 7.57543 193.072 7.44377C193.072 7.31212 193.118 7.19595 193.219 7.10302C193.319 7.01009 193.436 6.96362 193.575 6.96362C193.714 6.96362 193.838 7.01009 193.931 7.10302C194.032 7.19595 194.078 7.30438 194.078 7.44377C194.078 7.58317 194.032 7.69934 193.931 7.78453ZM195.712 7.79227C195.612 7.8852 195.496 7.92392 195.348 7.92392C195.201 7.92392 195.085 7.87746 194.984 7.78453C194.884 7.69159 194.837 7.57543 194.837 7.44377C194.837 7.31212 194.884 7.19595 194.984 7.10302C195.085 7.01009 195.201 6.96362 195.348 6.96362C195.496 6.96362 195.612 7.01009 195.712 7.10302C195.813 7.19595 195.86 7.31212 195.86 7.45152C195.86 7.59092 195.813 7.70708 195.712 7.79227Z" fill="url(#paint53_linear_454_9474)"/>
<path d="M192.212 13.9258V13.1901H194.156V8.94618H194.891V13.1901H196.75V13.9258H192.212ZM193.931 7.78453C193.83 7.87746 193.714 7.92392 193.575 7.92392C193.436 7.92392 193.319 7.87746 193.219 7.78453C193.118 7.69159 193.072 7.57543 193.072 7.44377C193.072 7.31212 193.118 7.19595 193.219 7.10302C193.319 7.01009 193.436 6.96362 193.575 6.96362C193.714 6.96362 193.838 7.01009 193.931 7.10302C194.032 7.19595 194.078 7.30438 194.078 7.44377C194.078 7.58317 194.032 7.69934 193.931 7.78453ZM195.712 7.79227C195.612 7.8852 195.496 7.92392 195.348 7.92392C195.201 7.92392 195.085 7.87746 194.984 7.78453C194.884 7.69159 194.837 7.57543 194.837 7.44377C194.837 7.31212 194.884 7.19595 194.984 7.10302C195.085 7.01009 195.201 6.96362 195.348 6.96362C195.496 6.96362 195.612 7.01009 195.712 7.10302C195.813 7.19595 195.86 7.31212 195.86 7.45152C195.86 7.59092 195.813 7.70708 195.712 7.79227Z" fill="url(#paint54_linear_454_9474)"/>
<path d="M196.572 13.9257V13.19H198.686V9.40297H199.422V13.19H200.839C201.196 13.19 201.49 13.0893 201.722 12.8802C201.955 12.6788 202.078 12.3613 202.078 11.9431V9.40297H202.814V11.9973C202.83 12.3613 202.969 12.6711 203.24 12.9112C203.511 13.159 203.867 13.2752 204.301 13.2752C204.735 13.2752 205.068 13.1512 205.3 12.9034C205.532 12.6556 205.649 12.3149 205.649 11.8812V8.41943H206.384V11.765C206.384 12.0361 206.361 12.2606 206.322 12.4465C206.47 12.6943 206.663 12.8802 206.911 13.0041C207.159 13.1203 207.492 13.1822 207.902 13.1822V13.9179C207.027 13.9179 206.431 13.6391 206.113 13.0738C205.788 13.7011 205.192 14.0109 204.324 14.0109C203.457 14.0109 202.837 13.7011 202.458 13.0738C202.078 13.6314 201.536 13.9179 200.832 13.9179H196.564L196.572 13.9257Z" fill="url(#paint55_linear_454_9474)"/>
<path d="M196.572 13.9257V13.19H198.686V9.40297H199.422V13.19H200.839C201.196 13.19 201.49 13.0893 201.722 12.8802C201.955 12.6788 202.078 12.3613 202.078 11.9431V9.40297H202.814V11.9973C202.83 12.3613 202.969 12.6711 203.24 12.9112C203.511 13.159 203.867 13.2752 204.301 13.2752C204.735 13.2752 205.068 13.1512 205.3 12.9034C205.532 12.6556 205.649 12.3149 205.649 11.8812V8.41943H206.384V11.765C206.384 12.0361 206.361 12.2606 206.322 12.4465C206.47 12.6943 206.663 12.8802 206.911 13.0041C207.159 13.1203 207.492 13.1822 207.902 13.1822V13.9179C207.027 13.9179 206.431 13.6391 206.113 13.0738C205.788 13.7011 205.192 14.0109 204.324 14.0109C203.457 14.0109 202.837 13.7011 202.458 13.0738C202.078 13.6314 201.536 13.9179 200.832 13.9179H196.564L196.572 13.9257Z" fill="url(#paint56_linear_454_9474)"/>
<path d="M207.717 13.926V13.1903H208.855C208.708 12.834 208.638 12.4701 208.638 12.1061C208.638 11.3626 208.894 10.7276 209.397 10.2087C209.901 9.68982 210.528 9.42651 211.271 9.42651C212.015 9.42651 212.65 9.68208 213.161 10.201C213.672 10.7121 213.928 11.3549 213.928 12.1061C213.928 12.8573 213.672 13.4923 213.153 13.9957C212.634 14.4991 211.999 14.7469 211.24 14.7469C210.482 14.7469 209.846 14.4758 209.335 13.926H207.725H207.717ZM209.908 13.4536C210.265 13.8331 210.722 14.0189 211.256 14.0189C211.79 14.0189 212.255 13.8408 212.627 13.4768C212.998 13.1128 213.192 12.6559 213.192 12.1061C213.192 11.5562 213.006 11.0916 212.642 10.7276C212.278 10.3636 211.814 10.1777 211.264 10.1777C210.714 10.1777 210.257 10.3636 209.901 10.7431C209.544 11.1225 209.366 11.5717 209.366 12.1061C209.366 12.6404 209.544 13.0896 209.908 13.4691" fill="url(#paint57_linear_454_9474)"/>
<path d="M207.717 13.926V13.1903H208.855C208.708 12.834 208.638 12.4701 208.638 12.1061C208.638 11.3626 208.894 10.7276 209.397 10.2087C209.901 9.68982 210.528 9.42651 211.271 9.42651C212.015 9.42651 212.65 9.68208 213.161 10.201C213.672 10.7121 213.928 11.3549 213.928 12.1061C213.928 12.8573 213.672 13.4923 213.153 13.9957C212.634 14.4991 211.999 14.7469 211.24 14.7469C210.482 14.7469 209.846 14.4758 209.335 13.926H207.725H207.717ZM209.908 13.4536C210.265 13.8331 210.722 14.0189 211.256 14.0189C211.79 14.0189 212.255 13.8408 212.627 13.4768C212.998 13.1128 213.192 12.6559 213.192 12.1061C213.192 11.5562 213.006 11.0916 212.642 10.7276C212.278 10.3636 211.814 10.1777 211.264 10.1777C210.714 10.1777 210.257 10.3636 209.901 10.7431C209.544 11.1225 209.366 11.5717 209.366 12.1061C209.366 12.6404 209.544 13.0896 209.908 13.4691V13.4536Z" fill="url(#paint58_linear_454_9474)"/>
<path d="M83.9167 33.8677C85.5817 33.8677 86.4258 34.3014 86.9912 34.7738C87.9128 35.5482 88.1838 36.5782 88.1838 37.4843C88.1838 38.6614 87.7114 39.6914 86.7743 40.3187C86.4646 40.5356 86.0309 40.7369 85.4578 40.8454L89.2138 45.9179H86.2865L83.0725 41.0777H82.786V45.9179H80.4395V33.8677H83.9244H83.9167ZM82.7783 39.4126H83.4443C83.8934 39.4126 85.7521 39.3584 85.7521 37.585C85.7521 35.8115 83.9089 35.7805 83.4753 35.7805H82.7705V39.4126H82.7783Z" fill="url(#paint59_linear_454_9474)"/>
<path d="M103.084 39.9004C103.084 43.5712 100.443 46.1888 96.6563 46.1888C92.8693 46.1888 90.2285 43.5712 90.2285 39.9004C90.2285 36.2295 92.8693 33.5964 96.6563 33.5964C100.443 33.5964 103.084 36.2373 103.084 39.9004ZM100.66 39.9004C100.66 37.4609 98.9951 35.7261 96.6486 35.7261C94.3021 35.7261 92.637 37.4609 92.637 39.9004C92.637 42.3398 94.3021 44.0513 96.6486 44.0513C98.9951 44.0513 100.66 42.3321 100.66 39.9004Z" fill="url(#paint60_linear_454_9474)"/>
<path d="M107.421 40.4039L103.285 33.8677H106.065L108.644 38.0574L111.231 33.8677H114.011L109.767 40.4039V45.9102H107.421V40.4039Z" fill="url(#paint61_linear_454_9474)"/>
<path d="M120.989 43.3855H116.133L115.064 45.9179H112.517L117.698 33.8677H119.541L124.582 45.9179H122.05L120.981 43.3855H120.989ZM120.3 41.4726L118.58 37.1358L116.861 41.4726H120.292H120.3Z" fill="url(#paint62_linear_454_9474)"/>
<path d="M128.338 33.8677V43.8889H132.063V45.9102H125.991V33.8677H128.338Z" fill="url(#paint63_linear_454_9474)"/>
<path d="M140.242 38.5298H145.338V33.8677H147.684V45.9102H145.338V40.5511H140.242V45.9102H137.896V33.8677H140.242V38.5298Z" fill="url(#paint64_linear_454_9474)"/>
<path d="M162.715 39.9004C162.715 43.5712 160.074 46.1888 156.287 46.1888C152.5 46.1888 149.859 43.5712 149.859 39.9004C149.859 36.2295 152.5 33.5964 156.287 33.5964C160.074 33.5964 162.715 36.2373 162.715 39.9004ZM160.299 39.9004C160.299 37.4609 158.634 35.7261 156.287 35.7261C153.941 35.7261 152.276 37.4609 152.276 39.9004C152.276 42.3398 153.941 44.0513 156.287 44.0513C158.634 44.0513 160.299 42.3321 160.299 39.9004Z" fill="url(#paint65_linear_454_9474)"/>
<path d="M170.808 36.6091C170.104 35.672 169.275 35.5791 168.841 35.5791C167.579 35.5791 167.176 36.3767 167.176 36.9885C167.176 37.2751 167.269 37.5461 167.556 37.8017C167.842 38.0728 168.245 38.2199 169.004 38.4909C169.941 38.8162 170.832 39.1415 171.443 39.6991C171.986 40.187 172.474 41.0001 172.474 42.2315C172.474 44.578 170.777 46.1888 168.284 46.1888C166.061 46.1888 164.76 44.8336 164.133 43.912L165.666 42.4483C166.247 43.6255 167.347 44.0591 168.199 44.0591C169.267 44.0591 170.057 43.4086 170.057 42.3941C170.057 41.9604 169.91 41.6197 169.585 41.3099C169.136 40.8917 168.408 40.6594 167.726 40.427C167.091 40.2102 166.332 39.9237 165.72 39.3815C165.325 39.0408 164.76 38.367 164.76 37.1434C164.76 35.37 165.953 33.6042 168.625 33.6042C169.383 33.6042 170.808 33.7514 172.04 35.0137L170.808 36.6246V36.6091Z" fill="url(#paint66_linear_454_9474)"/>
<path d="M178.034 33.8677C179.389 33.8677 180.326 34.0148 181.217 34.7893C182.192 35.6566 182.448 36.8338 182.448 37.6934C182.448 38.1658 182.378 39.4669 181.457 40.3884C180.791 41.0545 179.792 41.4572 178.405 41.4572H176.888V45.9179H174.541V33.8677H178.041H178.034ZM176.88 39.4281H177.84C178.289 39.4281 178.87 39.4281 179.374 39.0487C179.807 38.7079 180.024 38.1658 180.024 37.6392C180.024 36.9732 179.699 36.5162 179.358 36.2684C178.87 35.9277 178.258 35.889 177.693 35.889H176.88V39.4281Z" fill="url(#paint67_linear_454_9474)"/>
<path d="M186.529 33.8677H184.183V45.9179H186.529V33.8677Z" fill="url(#paint68_linear_454_9474)"/>
<path d="M193.066 35.889V45.9102H190.719V35.889H188.009V33.8677H195.776V35.889H193.066Z" fill="url(#paint69_linear_454_9474)"/>
<path d="M203.691 43.3855H198.835L197.767 45.9179H195.219L200.4 33.8677H202.243L207.284 45.9179H204.752L203.683 43.3855H203.691ZM203.002 41.4726L201.283 37.1358L199.563 41.4726H202.994H203.002Z" fill="url(#paint70_linear_454_9474)"/>
<path d="M211.04 33.8677V43.8889H214.765V45.9102H208.693V33.8677H211.04Z" fill="url(#paint71_linear_454_9474)"/>
</g>
<defs>
<linearGradient id="paint0_linear_454_9474" x1="15.0306" y1="-5.77623" x2="35.6151" y2="117.746" gradientUnits="userSpaceOnUse">
<stop stop-color="#FFD69F"/>
<stop offset="1" stop-color="#896F2E"/>
</linearGradient>
<linearGradient id="paint1_linear_454_9474" x1="26.3672" y1="-7.6654" x2="46.9595" y2="115.857" gradientUnits="userSpaceOnUse">
<stop stop-color="#FFD69F"/>
<stop offset="1" stop-color="#896F2E"/>
</linearGradient>
<linearGradient id="paint2_linear_454_9474" x1="52.2253" y1="-11.9715" x2="72.8098" y2="111.551" gradientUnits="userSpaceOnUse">
<stop stop-color="#FFD69F"/>
<stop offset="1" stop-color="#896F2E"/>
</linearGradient>
<linearGradient id="paint3_linear_454_9474" x1="43.5668" y1="-10.5311" x2="64.1591" y2="112.992" gradientUnits="userSpaceOnUse">
<stop stop-color="#FFD69F"/>
<stop offset="1" stop-color="#896F2E"/>
</linearGradient>
<linearGradient id="paint4_linear_454_9474" x1="42.0589" y1="-10.9844" x2="62.946" y2="114.36" gradientUnits="userSpaceOnUse">
<stop stop-color="#FFD69F"/>
<stop offset="1" stop-color="#896F2E"/>
</linearGradient>
<linearGradient id="paint5_linear_454_9474" x1="55.7875" y1="-12.5677" x2="76.3798" y2="110.955" gradientUnits="userSpaceOnUse">
<stop stop-color="#FFD69F"/>
<stop offset="1" stop-color="#896F2E"/>
</linearGradient>
<linearGradient id="paint6_linear_454_9474" x1="88.0268" y1="-17.9424" x2="108.619" y2="105.58" gradientUnits="userSpaceOnUse">
<stop stop-color="#FFD69F"/>
<stop offset="1" stop-color="#896F2E"/>
</linearGradient>
<linearGradient id="paint7_linear_454_9474" x1="96.5836" y1="-19.3675" x2="117.168" y2="104.155" gradientUnits="userSpaceOnUse">
<stop stop-color="#FFD69F"/>
<stop offset="1" stop-color="#896F2E"/>
</linearGradient>
<linearGradient id="paint8_linear_454_9474" x1="106.466" y1="-21.0092" x2="127.058" y2="102.514" gradientUnits="userSpaceOnUse">
<stop stop-color="#FFD69F"/>
<stop offset="1" stop-color="#896F2E"/>
</linearGradient>
<linearGradient id="paint9_linear_454_9474" x1="115.821" y1="-22.5737" x2="136.405" y2="100.949" gradientUnits="userSpaceOnUse">
<stop stop-color="#FFD69F"/>
<stop offset="1" stop-color="#896F2E"/>
</linearGradient>
<linearGradient id="paint10_linear_454_9474" x1="128.437" y1="-24.6724" x2="149.029" y2="98.8503" gradientUnits="userSpaceOnUse">
<stop stop-color="#FFD69F"/>
<stop offset="1" stop-color="#896F2E"/>
</linearGradient>
<linearGradient id="paint11_linear_454_9474" x1="137.498" y1="-26.1824" x2="158.082" y2="97.3403" gradientUnits="userSpaceOnUse">
<stop stop-color="#FFD69F"/>
<stop offset="1" stop-color="#896F2E"/>
</linearGradient>
<linearGradient id="paint12_linear_454_9474" x1="149.935" y1="-28.258" x2="170.519" y2="95.2647" gradientUnits="userSpaceOnUse">
<stop stop-color="#FFD69F"/>
<stop offset="1" stop-color="#896F2E"/>
</linearGradient>
<linearGradient id="paint13_linear_454_9474" x1="158.306" y1="-29.6521" x2="178.898" y2="93.8706" gradientUnits="userSpaceOnUse">
<stop stop-color="#FFD69F"/>
<stop offset="1" stop-color="#896F2E"/>
</linearGradient>
<linearGradient id="paint14_linear_454_9474" x1="169.327" y1="-31.4873" x2="189.911" y2="92.0354" gradientUnits="userSpaceOnUse">
<stop stop-color="#FFD69F"/>
<stop offset="1" stop-color="#896F2E"/>
</linearGradient>
<linearGradient id="paint15_linear_454_9474" x1="178.875" y1="-33.0828" x2="199.46" y2="90.4399" gradientUnits="userSpaceOnUse">
<stop stop-color="#FFD69F"/>
<stop offset="1" stop-color="#896F2E"/>
</linearGradient>
<linearGradient id="paint16_linear_454_9474" x1="188.168" y1="-34.6317" x2="208.753" y2="88.891" gradientUnits="userSpaceOnUse">
<stop stop-color="#FFD69F"/>
<stop offset="1" stop-color="#896F2E"/>
</linearGradient>
<linearGradient id="paint17_linear_454_9474" x1="80.6238" y1="-16.703" x2="101.216" y2="106.82" gradientUnits="userSpaceOnUse">
<stop stop-color="#FFD69F"/>
<stop offset="1" stop-color="#896F2E"/>
</linearGradient>
<linearGradient id="paint18_linear_454_9474" x1="80.6238" y1="-16.703" x2="101.216" y2="106.82" gradientUnits="userSpaceOnUse">
<stop stop-color="#FFD69F"/>
<stop offset="1" stop-color="#896F2E"/>
</linearGradient>
<linearGradient id="paint19_linear_454_9474" x1="88.578" y1="-18.0272" x2="109.162" y2="105.495" gradientUnits="userSpaceOnUse">
<stop stop-color="#FFD69F"/>
<stop offset="1" stop-color="#896F2E"/>
</linearGradient>
<linearGradient id="paint20_linear_454_9474" x1="88.578" y1="-18.0272" x2="109.162" y2="105.495" gradientUnits="userSpaceOnUse">
<stop stop-color="#FFD69F"/>
<stop offset="1" stop-color="#896F2E"/>
</linearGradient>
<linearGradient id="paint21_linear_454_9474" x1="93.8282" y1="-18.9023" x2="114.42" y2="104.62" gradientUnits="userSpaceOnUse">
<stop stop-color="#FFD69F"/>
<stop offset="1" stop-color="#896F2E"/>
</linearGradient>
<linearGradient id="paint22_linear_454_9474" x1="93.8282" y1="-18.9023" x2="114.42" y2="104.62" gradientUnits="userSpaceOnUse">
<stop stop-color="#FFD69F"/>
<stop offset="1" stop-color="#896F2E"/>
</linearGradient>
<linearGradient id="paint23_linear_454_9474" x1="98.9005" y1="-19.7543" x2="119.485" y2="103.768" gradientUnits="userSpaceOnUse">
<stop stop-color="#FFD69F"/>
<stop offset="1" stop-color="#896F2E"/>
</linearGradient>
<linearGradient id="paint24_linear_454_9474" x1="98.9005" y1="-19.7543" x2="119.485" y2="103.768" gradientUnits="userSpaceOnUse">
<stop stop-color="#FFD69F"/>
<stop offset="1" stop-color="#896F2E"/>
</linearGradient>
<linearGradient id="paint25_linear_454_9474" x1="103.849" y1="-20.5751" x2="124.434" y2="102.948" gradientUnits="userSpaceOnUse">
<stop stop-color="#FFD69F"/>
<stop offset="1" stop-color="#896F2E"/>
</linearGradient>
<linearGradient id="paint26_linear_454_9474" x1="103.849" y1="-20.5751" x2="124.434" y2="102.948" gradientUnits="userSpaceOnUse">
<stop stop-color="#FFD69F"/>
<stop offset="1" stop-color="#896F2E"/>
</linearGradient>
<linearGradient id="paint27_linear_454_9474" x1="107.272" y1="-21.1482" x2="127.865" y2="102.374" gradientUnits="userSpaceOnUse">
<stop stop-color="#FFD69F"/>
<stop offset="1" stop-color="#896F2E"/>
</linearGradient>
<linearGradient id="paint28_linear_454_9474" x1="107.272" y1="-21.1482" x2="127.865" y2="102.374" gradientUnits="userSpaceOnUse">
<stop stop-color="#FFD69F"/>
<stop offset="1" stop-color="#896F2E"/>
</linearGradient>
<linearGradient id="paint29_linear_454_9474" x1="113.428" y1="-22.1706" x2="134.013" y2="101.352" gradientUnits="userSpaceOnUse">
<stop stop-color="#FFD69F"/>
<stop offset="1" stop-color="#896F2E"/>
</linearGradient>
<linearGradient id="paint30_linear_454_9474" x1="113.428" y1="-22.1706" x2="134.013" y2="101.352" gradientUnits="userSpaceOnUse">
<stop stop-color="#FFD69F"/>
<stop offset="1" stop-color="#896F2E"/>
</linearGradient>
<linearGradient id="paint31_linear_454_9474" x1="117.936" y1="-22.9217" x2="138.528" y2="100.601" gradientUnits="userSpaceOnUse">
<stop stop-color="#FFD69F"/>
<stop offset="1" stop-color="#896F2E"/>
</linearGradient>
<linearGradient id="paint32_linear_454_9474" x1="117.936" y1="-22.9217" x2="138.528" y2="100.601" gradientUnits="userSpaceOnUse">
<stop stop-color="#FFD69F"/>
<stop offset="1" stop-color="#896F2E"/>
</linearGradient>
<linearGradient id="paint33_linear_454_9474" x1="122.42" y1="-23.6729" x2="143.004" y2="99.8497" gradientUnits="userSpaceOnUse">
<stop stop-color="#FFD69F"/>
<stop offset="1" stop-color="#896F2E"/>
</linearGradient>
<linearGradient id="paint34_linear_454_9474" x1="122.42" y1="-23.6729" x2="143.004" y2="99.8497" gradientUnits="userSpaceOnUse">
<stop stop-color="#FFD69F"/>
<stop offset="1" stop-color="#896F2E"/>
</linearGradient>
<linearGradient id="paint35_linear_454_9474" x1="131.303" y1="-25.1522" x2="151.895" y2="98.3705" gradientUnits="userSpaceOnUse">
<stop stop-color="#FFD69F"/>
<stop offset="1" stop-color="#896F2E"/>
</linearGradient>
<linearGradient id="paint36_linear_454_9474" x1="131.303" y1="-25.1522" x2="151.895" y2="98.3705" gradientUnits="userSpaceOnUse">
<stop stop-color="#FFD69F"/>
<stop offset="1" stop-color="#896F2E"/>
</linearGradient>
<linearGradient id="paint37_linear_454_9474" x1="138.21" y1="-26.306" x2="158.795" y2="97.2168" gradientUnits="userSpaceOnUse">
<stop stop-color="#FFD69F"/>
<stop offset="1" stop-color="#896F2E"/>
</linearGradient>
<linearGradient id="paint38_linear_454_9474" x1="138.21" y1="-26.306" x2="158.795" y2="97.2168" gradientUnits="userSpaceOnUse">
<stop stop-color="#FFD69F"/>
<stop offset="1" stop-color="#896F2E"/>
</linearGradient>
<linearGradient id="paint39_linear_454_9474" x1="141.641" y1="-26.8713" x2="162.226" y2="96.6514" gradientUnits="userSpaceOnUse">
<stop stop-color="#FFD69F"/>
<stop offset="1" stop-color="#896F2E"/>
</linearGradient>
<linearGradient id="paint40_linear_454_9474" x1="141.641" y1="-26.8713" x2="162.226" y2="96.6514" gradientUnits="userSpaceOnUse">
<stop stop-color="#FFD69F"/>
<stop offset="1" stop-color="#896F2E"/>
</linearGradient>
<linearGradient id="paint41_linear_454_9474" x1="146.529" y1="-27.6919" x2="167.121" y2="95.8308" gradientUnits="userSpaceOnUse">
<stop stop-color="#FFD69F"/>
<stop offset="1" stop-color="#896F2E"/>
</linearGradient>
<linearGradient id="paint42_linear_454_9474" x1="146.529" y1="-27.6919" x2="167.121" y2="95.8308" gradientUnits="userSpaceOnUse">
<stop stop-color="#FFD69F"/>
<stop offset="1" stop-color="#896F2E"/>
</linearGradient>
<linearGradient id="paint43_linear_454_9474" x1="150.842" y1="-28.4048" x2="171.434" y2="95.1179" gradientUnits="userSpaceOnUse">
<stop stop-color="#FFD69F"/>
<stop offset="1" stop-color="#896F2E"/>
</linearGradient>
<linearGradient id="paint44_linear_454_9474" x1="150.842" y1="-28.4048" x2="171.434" y2="95.1179" gradientUnits="userSpaceOnUse">
<stop stop-color="#FFD69F"/>
<stop offset="1" stop-color="#896F2E"/>
</linearGradient>
<linearGradient id="paint45_linear_454_9474" x1="154.473" y1="-29.0166" x2="175.058" y2="94.5138" gradientUnits="userSpaceOnUse">
<stop stop-color="#FFD69F"/>
<stop offset="1" stop-color="#896F2E"/>
</linearGradient>
<linearGradient id="paint46_linear_454_9474" x1="154.473" y1="-29.0166" x2="175.058" y2="94.5138" gradientUnits="userSpaceOnUse">
<stop stop-color="#FFD69F"/>
<stop offset="1" stop-color="#896F2E"/>
</linearGradient>
<linearGradient id="paint47_linear_454_9474" x1="163.597" y1="-30.5344" x2="184.181" y2="92.9883" gradientUnits="userSpaceOnUse">
<stop stop-color="#FFD69F"/>
<stop offset="1" stop-color="#896F2E"/>
</linearGradient>
<linearGradient id="paint48_linear_454_9474" x1="163.597" y1="-30.5344" x2="184.181" y2="92.9883" gradientUnits="userSpaceOnUse">
<stop stop-color="#FFD69F"/>
<stop offset="1" stop-color="#896F2E"/>
</linearGradient>
<linearGradient id="paint49_linear_454_9474" x1="170.73" y1="-31.7191" x2="191.314" y2="91.8036" gradientUnits="userSpaceOnUse">
<stop stop-color="#FFD69F"/>
<stop offset="1" stop-color="#896F2E"/>
</linearGradient>
<linearGradient id="paint50_linear_454_9474" x1="170.73" y1="-31.7191" x2="191.314" y2="91.8036" gradientUnits="userSpaceOnUse">
<stop stop-color="#FFD69F"/>
<stop offset="1" stop-color="#896F2E"/>
</linearGradient>
<linearGradient id="paint51_linear_454_9474" x1="178.961" y1="-33.0976" x2="199.553" y2="90.4251" gradientUnits="userSpaceOnUse">
<stop stop-color="#FFD69F"/>
<stop offset="1" stop-color="#896F2E"/>
</linearGradient>
<linearGradient id="paint52_linear_454_9474" x1="178.961" y1="-33.0976" x2="199.553" y2="90.4251" gradientUnits="userSpaceOnUse">
<stop stop-color="#FFD69F"/>
<stop offset="1" stop-color="#896F2E"/>
</linearGradient>
<linearGradient id="paint53_linear_454_9474" x1="186.535" y1="-34.3603" x2="207.12" y2="89.1701" gradientUnits="userSpaceOnUse">
<stop stop-color="#FFD69F"/>
<stop offset="1" stop-color="#896F2E"/>
</linearGradient>
<linearGradient id="paint54_linear_454_9474" x1="186.535" y1="-34.3603" x2="207.12" y2="89.1701" gradientUnits="userSpaceOnUse">
<stop stop-color="#FFD69F"/>
<stop offset="1" stop-color="#896F2E"/>
</linearGradient>
<linearGradient id="paint55_linear_454_9474" x1="194.048" y1="-35.6073" x2="214.632" y2="87.9154" gradientUnits="userSpaceOnUse">
<stop stop-color="#FFD69F"/>
<stop offset="1" stop-color="#896F2E"/>
</linearGradient>
<linearGradient id="paint56_linear_454_9474" x1="194.048" y1="-35.6073" x2="214.632" y2="87.9154" gradientUnits="userSpaceOnUse">
<stop stop-color="#FFD69F"/>
<stop offset="1" stop-color="#896F2E"/>
</linearGradient>
<linearGradient id="paint57_linear_454_9474" x1="202.505" y1="-37.0165" x2="223.089" y2="86.5062" gradientUnits="userSpaceOnUse">
<stop stop-color="#FFD69F"/>
<stop offset="1" stop-color="#896F2E"/>
</linearGradient>
<linearGradient id="paint58_linear_454_9474" x1="202.505" y1="-37.0165" x2="223.089" y2="86.5062" gradientUnits="userSpaceOnUse">
<stop stop-color="#FFD69F"/>
<stop offset="1" stop-color="#896F2E"/>
</linearGradient>
<linearGradient id="paint59_linear_454_9474" x1="74.7628" y1="-15.7273" x2="95.3474" y2="107.795" gradientUnits="userSpaceOnUse">
<stop stop-color="#FFD69F"/>
<stop offset="1" stop-color="#896F2E"/>
</linearGradient>
<linearGradient id="paint60_linear_454_9474" x1="87.0378" y1="-17.772" x2="107.63" y2="105.751" gradientUnits="userSpaceOnUse">
<stop stop-color="#FFD69F"/>
<stop offset="1" stop-color="#896F2E"/>
</linearGradient>
<linearGradient id="paint61_linear_454_9474" x1="99.6918" y1="-19.886" x2="120.276" y2="103.644" gradientUnits="userSpaceOnUse">
<stop stop-color="#FFD69F"/>
<stop offset="1" stop-color="#896F2E"/>
</linearGradient>
<linearGradient id="paint62_linear_454_9474" x1="107.367" y1="-21.1638" x2="127.959" y2="102.359" gradientUnits="userSpaceOnUse">
<stop stop-color="#FFD69F"/>
<stop offset="1" stop-color="#896F2E"/>
</linearGradient>
<linearGradient id="paint63_linear_454_9474" x1="117.728" y1="-22.8908" x2="138.313" y2="100.632" gradientUnits="userSpaceOnUse">
<stop stop-color="#FFD69F"/>
<stop offset="1" stop-color="#896F2E"/>
</linearGradient>
<linearGradient id="paint64_linear_454_9474" x1="131.932" y1="-25.2528" x2="152.525" y2="98.2699" gradientUnits="userSpaceOnUse">
<stop stop-color="#FFD69F"/>
<stop offset="1" stop-color="#896F2E"/>
</linearGradient>
<linearGradient id="paint65_linear_454_9474" x1="145.058" y1="-27.4447" x2="165.65" y2="96.078" gradientUnits="userSpaceOnUse">
<stop stop-color="#FFD69F"/>
<stop offset="1" stop-color="#896F2E"/>
</linearGradient>
<linearGradient id="paint66_linear_454_9474" x1="156.613" y1="-29.373" x2="177.198" y2="94.1575" gradientUnits="userSpaceOnUse">
<stop stop-color="#FFD69F"/>
<stop offset="1" stop-color="#896F2E"/>
</linearGradient>
<linearGradient id="paint67_linear_454_9474" x1="166.386" y1="-30.9992" x2="186.971" y2="92.5235" gradientUnits="userSpaceOnUse">
<stop stop-color="#FFD69F"/>
<stop offset="1" stop-color="#896F2E"/>
</linearGradient>
<linearGradient id="paint68_linear_454_9474" x1="173.348" y1="-32.1608" x2="193.933" y2="91.3619" gradientUnits="userSpaceOnUse">
<stop stop-color="#FFD69F"/>
<stop offset="1" stop-color="#896F2E"/>
</linearGradient>
<linearGradient id="paint69_linear_454_9474" x1="180.52" y1="-33.3534" x2="201.112" y2="90.1692" gradientUnits="userSpaceOnUse">
<stop stop-color="#FFD69F"/>
<stop offset="1" stop-color="#896F2E"/>
</linearGradient>
<linearGradient id="paint70_linear_454_9474" x1="187.838" y1="-34.5771" x2="208.423" y2="88.9534" gradientUnits="userSpaceOnUse">
<stop stop-color="#FFD69F"/>
<stop offset="1" stop-color="#896F2E"/>
</linearGradient>
<linearGradient id="paint71_linear_454_9474" x1="198.192" y1="-36.2963" x2="218.784" y2="87.2264" gradientUnits="userSpaceOnUse">
<stop stop-color="#FFD69F"/>
<stop offset="1" stop-color="#896F2E"/>
</linearGradient>
<clipPath id="clip0_454_9474">
<rect width="214.085" height="55.8911" fill="white" transform="translate(0.679688 0.899902)"/>
</clipPath>
</defs>
</svg>
