<svg width="191" height="51" viewBox="0 0 191 51" fill="none" xmlns="http://www.w3.org/2000/svg">
<g clip-path="url(#clip0_209_17115)">
<path d="M6.95596 25.6012C4.34883 15.4676 8.44983 6.03819 15.7479 0.757324C2.35066 6.32365 0.752126 20.0349 0.752126 20.0349C-1.38877 41.9386 15.1199 46.3631 15.1199 46.3631C27.2326 50.4451 38.0988 42.7188 39.2216 40.302C34.4641 42.5856 28.8026 43.2897 22.9127 41.7197C15.0818 39.6359 8.97316 33.4511 6.94644 25.6107" fill="#DE1C1E"/>
<path d="M43.4088 38.2089C42.6952 39.9692 41.677 41.2252 40.8397 42.2053C32.9137 51.4254 20.5345 49.3606 15.6152 47.9714C15.4249 47.9143 15.3298 48.1902 15.5106 48.2759C25.3396 52.6909 34.2077 51.6061 40.9444 45.4023C45.0739 41.5963 46.9674 37.3335 47.8047 33.7559C46.4155 35.5923 45.2642 36.8483 43.4088 38.2089Z" fill="#2E368F"/>
<path d="M52.4092 21.6811C52.3807 22.0237 52.4568 22.3662 52.6471 22.6517C53.1704 23.4414 53.827 24.9829 53.9126 26.2484C54.1981 30.435 52.2475 32.3571 51.6385 32.8899C51.6005 32.928 51.5719 32.9755 51.5719 33.0326C51.6195 34.2125 51.5814 35.4399 51.4102 36.6674C58.5179 31.0915 57.1382 22.2806 52.3997 17.6658C52.4568 18.3413 52.4949 19.0169 52.4949 19.7115C52.4949 20.4061 52.4663 21.0341 52.4092 21.6811Z" fill="#2E368F"/>
<path d="M51.5728 32.9475C51.4871 31.1872 51.2017 29.5506 50.8972 28.2185C50.3168 29.7124 49.5841 31.1301 48.7183 32.4527C49.213 34.5365 49.3462 36.2873 49.1559 37.7526C48.4138 43.3855 45.2072 44.1467 43.1329 44.2038C42.9426 44.2038 42.4288 44.3941 42.5334 44.5559C43.0282 45.3171 48.0712 45.9832 50.4881 40.1599C50.9543 39.0276 51.2493 37.8478 51.4205 36.6584C51.6013 35.3929 51.6394 34.1369 51.5823 32.9285" fill="#2E368F"/>
<path d="M44.8066 32.4809C44.8066 32.5 44.8066 32.5095 44.8066 32.5285C44.8066 32.5095 44.8162 32.4905 44.8162 32.4714" fill="#2E368F"/>
<path d="M58.0905 31.1197C58.0905 31.6431 57.6623 32.0712 57.139 32.0712C56.6157 32.0712 56.1875 31.6431 56.1875 31.1197C56.1875 30.5964 56.6157 30.1682 57.139 30.1682C57.6623 30.1682 58.0905 30.5964 58.0905 31.1197Z" fill="#2E368F"/>
<path d="M77.4066 12.4611V8.64555H76.6074C76.2553 8.64555 75.9603 8.73119 75.732 8.91198C75.5036 9.09276 75.3894 9.34967 75.3894 9.6827V13.4887H73.0297C72.2875 13.4887 71.6405 13.3365 71.0791 13.0415L71.3741 12.4611C71.8498 12.7085 72.3351 12.8322 72.8108 12.8322H74.7329V9.79688C74.7329 9.1784 74.9232 8.71216 75.3133 8.37913C75.6273 8.12223 76.0555 7.98901 76.5979 7.98901H78.0632V11.8046H79.0908V12.4611H77.4066ZM73.5721 10.2441C73.4864 10.3297 73.3722 10.3678 73.239 10.3678C73.1058 10.3678 72.9916 10.3297 72.906 10.2441C72.8204 10.1585 72.7728 10.0538 72.7728 9.93009C72.7728 9.80639 72.8204 9.69221 72.906 9.60658C72.9916 9.52094 73.1058 9.48288 73.239 9.48288C73.3722 9.48288 73.4864 9.52094 73.5721 9.60658C73.6577 9.69221 73.7053 9.79688 73.7053 9.93009C73.7053 10.0633 73.6577 10.168 73.5721 10.2441ZM73.5721 11.8046C73.4864 11.8902 73.3722 11.9283 73.239 11.9283C73.1058 11.9283 72.9916 11.8902 72.906 11.8046C72.8204 11.7189 72.7728 11.6143 72.7728 11.4906C72.7728 11.3669 72.8204 11.2527 72.906 11.167C72.9916 11.0814 73.1058 11.0434 73.239 11.0434C73.3722 11.0434 73.4864 11.0814 73.5721 11.167C73.6577 11.2527 73.7053 11.3574 73.7053 11.4906C73.7053 11.6238 73.6577 11.7284 73.5721 11.8046Z" fill="#2E368F"/>
<path d="M77.4066 12.4611V8.64555H76.6074C76.2553 8.64555 75.9603 8.73119 75.732 8.91198C75.5036 9.09276 75.3894 9.34967 75.3894 9.6827V13.4887H73.0297C72.2875 13.4887 71.6405 13.3365 71.0791 13.0415L71.3741 12.4611C71.8498 12.7085 72.3351 12.8322 72.8108 12.8322H74.7329V9.79688C74.7329 9.1784 74.9232 8.71216 75.3133 8.37913C75.6273 8.12223 76.0555 7.98901 76.5979 7.98901H78.0632V11.8046H79.0908V12.4611H77.4066ZM73.5721 10.2441C73.4864 10.3297 73.3722 10.3678 73.239 10.3678C73.1058 10.3678 72.9916 10.3297 72.906 10.2441C72.8204 10.1585 72.7728 10.0538 72.7728 9.93009C72.7728 9.80639 72.8204 9.69221 72.906 9.60658C72.9916 9.52094 73.1058 9.48288 73.239 9.48288C73.3722 9.48288 73.4864 9.52094 73.5721 9.60658C73.6577 9.69221 73.7053 9.79688 73.7053 9.93009C73.7053 10.0633 73.6577 10.168 73.5721 10.2441ZM73.5721 11.8046C73.4864 11.8902 73.3722 11.9283 73.239 11.9283C73.1058 11.9283 72.9916 11.8902 72.906 11.8046C72.8204 11.7189 72.7728 11.6143 72.7728 11.4906C72.7728 11.3669 72.8204 11.2527 72.906 11.167C72.9916 11.0814 73.1058 11.0434 73.239 11.0434C73.3722 11.0434 73.4864 11.0814 73.5721 11.167C73.6577 11.2527 73.7053 11.3574 73.7053 11.4906C73.7053 11.6238 73.6577 11.7284 73.5721 11.8046Z" fill="#2E368F"/>
<path d="M84.1515 10.3204C84.1515 9.52116 83.7709 9.11202 83.0097 9.1025H79.6509C79.4891 8.92171 79.394 8.70287 79.3559 8.43644L80.7641 5.78174H81.4587L80.0981 8.44596H83.0097C83.6092 8.44596 84.0754 8.63626 84.3989 9.01687C84.6748 9.33086 84.8081 9.76856 84.8081 10.3204V11.8048H85.8262V12.4613H78.9277V11.8048H84.142V10.3204H84.1515Z" fill="#2E368F"/>
<path d="M84.1515 10.3204C84.1515 9.52116 83.7709 9.11202 83.0097 9.1025H79.6509C79.4891 8.92171 79.394 8.70287 79.3559 8.43644L80.7641 5.78174H81.4587L80.0981 8.44596H83.0097C83.6092 8.44596 84.0754 8.63626 84.3989 9.01687C84.6748 9.33086 84.8081 9.76856 84.8081 10.3204V11.8048H85.8262V12.4613H78.9277V11.8048H84.142V10.3204H84.1515Z" fill="#2E368F"/>
<path d="M85.6641 12.4613V11.7953H86.901V5.78174H87.5671V11.7953H88.804V12.4613H85.6641Z" fill="#2E368F"/>
<path d="M85.6641 12.4613V11.7953H86.901V5.78174H87.5671V11.7953H88.804V12.4613H85.6641Z" fill="#2E368F"/>
<path d="M88.6335 12.4609V11.8044H89.6516C89.5184 11.4904 89.4518 11.1573 89.4518 10.8338C89.4518 10.1678 89.6802 9.59687 90.1274 9.13063C90.5841 8.66439 91.1455 8.42651 91.8116 8.42651C92.4776 8.42651 93.0485 8.65488 93.5053 9.12111C93.962 9.58735 94.1999 10.1583 94.1999 10.8338C94.1999 11.1764 94.1333 11.4999 93.9905 11.8044H95.1704V12.4609H93.5623C93.0961 12.9557 92.5157 13.2031 91.8116 13.2031C91.1075 13.2031 90.527 12.9557 90.0703 12.4609H88.624H88.6335ZM90.6032 12.0327C90.9267 12.3753 91.3263 12.537 91.8116 12.537C92.2968 12.537 92.706 12.3753 93.0485 12.0518C93.3816 11.7282 93.5528 11.3191 93.5528 10.8148C93.5528 10.3105 93.3911 9.90135 93.058 9.57784C92.725 9.25433 92.3159 9.08305 91.8211 9.08305C91.3263 9.08305 90.9172 9.25432 90.6032 9.58735C90.2796 9.9299 90.1274 10.3295 90.1274 10.8053C90.1274 11.281 90.2892 11.6902 90.6127 12.0232" fill="#2E368F"/>
<path d="M88.6335 12.4609V11.8044H89.6516C89.5184 11.4904 89.4518 11.1573 89.4518 10.8338C89.4518 10.1678 89.6802 9.59687 90.1274 9.13063C90.5841 8.66439 91.1455 8.42651 91.8116 8.42651C92.4776 8.42651 93.0485 8.65488 93.5053 9.12111C93.962 9.58735 94.1999 10.1583 94.1999 10.8338C94.1999 11.1764 94.1333 11.4999 93.9905 11.8044H95.1704V12.4609H93.5623C93.0961 12.9557 92.5157 13.2031 91.8116 13.2031C91.1075 13.2031 90.527 12.9557 90.0703 12.4609H88.624H88.6335ZM90.6032 12.0327C90.9267 12.3753 91.3263 12.537 91.8116 12.537C92.2968 12.537 92.706 12.3753 93.0485 12.0518C93.3816 11.7282 93.5528 11.3191 93.5528 10.8148C93.5528 10.3105 93.3911 9.90135 93.058 9.57784C92.725 9.25433 92.3159 9.08305 91.8211 9.08305C91.3263 9.08305 90.9172 9.25432 90.6032 9.58735C90.2796 9.9299 90.1274 10.3295 90.1274 10.8053C90.1274 11.281 90.2892 11.6902 90.6127 12.0232L90.6032 12.0327Z" fill="#2E368F"/>
<path d="M95.0273 12.4613V11.7953H96.2643V5.78174H96.9304V12.4613H95.0273Z" fill="#2E368F"/>
<path d="M95.0273 12.4613V11.7953H96.2643V5.78174H96.9304V12.4613H95.0273Z" fill="#2E368F"/>
<path d="M99.471 5.78174H98.8145V12.4613H99.471V5.78174Z" fill="#2E368F"/>
<path d="M99.471 5.78174H98.8145V12.4613H99.471V5.78174Z" fill="#2E368F"/>
<path d="M103.733 12.461V10.7768C103.733 10.0632 103.895 9.52086 104.219 9.14977C104.542 8.77868 105.008 8.58838 105.617 8.58838H106.398V9.24492H105.484C105.17 9.24492 104.904 9.36862 104.704 9.61601C104.504 9.8634 104.409 10.1869 104.409 10.5865V11.795H106.769V12.4515H103.752L103.733 12.461Z" fill="#2E368F"/>
<path d="M103.733 12.461V10.7768C103.733 10.0632 103.895 9.52086 104.219 9.14977C104.542 8.77868 105.008 8.58838 105.617 8.58838H106.398V9.24492H105.484C105.17 9.24492 104.904 9.36862 104.704 9.61601C104.504 9.8634 104.409 10.1869 104.409 10.5865V11.795H106.769V12.4515H103.752L103.733 12.461Z" fill="#2E368F"/>
<path d="M108.453 12.4613V5.78174H109.119V11.7953H110.518V12.4613H108.453Z" fill="#2E368F"/>
<path d="M108.453 12.4613V5.78174H109.119V11.7953H110.518V12.4613H108.453Z" fill="#2E368F"/>
<path d="M110.347 12.4609V11.8044H111.366C111.232 11.4904 111.166 11.1573 111.166 10.8338C111.166 10.1678 111.394 9.59687 111.841 9.13063C112.298 8.66439 112.859 8.42651 113.525 8.42651C114.191 8.42651 114.762 8.65488 115.219 9.12111C115.676 9.58735 115.914 10.1583 115.914 10.8338C115.914 11.1764 115.847 11.4999 115.704 11.8044H116.884V12.4609H115.276C114.81 12.9557 114.23 13.2031 113.525 13.2031C112.821 13.2031 112.241 12.9557 111.784 12.4609H110.338H110.347ZM112.317 12.0327C112.641 12.3753 113.04 12.537 113.525 12.537C114.011 12.537 114.42 12.3753 114.762 12.0518C115.095 11.7282 115.267 11.3191 115.267 10.8148C115.267 10.3105 115.105 9.90135 114.772 9.57784C114.439 9.25433 114.03 9.08305 113.535 9.08305C113.04 9.08305 112.631 9.25432 112.317 9.58735C111.994 9.9299 111.841 10.3295 111.841 10.8053C111.841 11.281 112.003 11.6902 112.327 12.0232" fill="#2E368F"/>
<path d="M110.347 12.4609V11.8044H111.366C111.232 11.4904 111.166 11.1573 111.166 10.8338C111.166 10.1678 111.394 9.59687 111.841 9.13063C112.298 8.66439 112.859 8.42651 113.525 8.42651C114.191 8.42651 114.762 8.65488 115.219 9.12111C115.676 9.58735 115.914 10.1583 115.914 10.8338C115.914 11.1764 115.847 11.4999 115.704 11.8044H116.884V12.4609H115.276C114.81 12.9557 114.23 13.2031 113.525 13.2031C112.821 13.2031 112.241 12.9557 111.784 12.4609H110.338H110.347ZM112.317 12.0327C112.641 12.3753 113.04 12.537 113.525 12.537C114.011 12.537 114.42 12.3753 114.762 12.0518C115.095 11.7282 115.267 11.3191 115.267 10.8148C115.267 10.3105 115.105 9.90135 114.772 9.57784C114.439 9.25433 114.03 9.08305 113.535 9.08305C113.04 9.08305 112.631 9.25432 112.317 9.58735C111.994 9.9299 111.841 10.3295 111.841 10.8053C111.841 11.281 112.003 11.6902 112.327 12.0232L112.317 12.0327Z" fill="#2E368F"/>
<path d="M116.741 12.4608V11.8043H118.644V8.39785H119.301V11.8043H120.576C120.899 11.8043 121.156 11.7091 121.375 11.5283C121.584 11.3475 121.689 11.0621 121.689 10.6815V8.39785H122.345V10.729C122.355 11.0621 122.488 11.3285 122.726 11.5569C122.973 11.7757 123.287 11.8899 123.677 11.8899C124.068 11.8899 124.363 11.7757 124.572 11.5569C124.781 11.3285 124.886 11.024 124.886 10.6434V7.53198H125.542V10.5387C125.542 10.7766 125.523 10.986 125.485 11.1572C125.619 11.3856 125.79 11.5473 126.018 11.652C126.237 11.7567 126.541 11.8138 126.913 11.8138V12.4703C126.123 12.4703 125.59 12.2229 125.305 11.7186C125.01 12.28 124.477 12.5559 123.696 12.5559C122.916 12.5559 122.364 12.2705 122.022 11.7186C121.679 12.2229 121.194 12.4703 120.566 12.4703H116.731L116.741 12.4608Z" fill="#2E368F"/>
<path d="M116.741 12.4608V11.8043H118.644V8.39785H119.301V11.8043H120.576C120.899 11.8043 121.156 11.7091 121.375 11.5283C121.584 11.3475 121.689 11.0621 121.689 10.6815V8.39785H122.345V10.729C122.355 11.0621 122.488 11.3285 122.726 11.5569C122.973 11.7757 123.287 11.8899 123.677 11.8899C124.068 11.8899 124.363 11.7757 124.572 11.5569C124.781 11.3285 124.886 11.024 124.886 10.6434V7.53198H125.542V10.5387C125.542 10.7766 125.523 10.986 125.485 11.1572C125.619 11.3856 125.79 11.5473 126.018 11.652C126.237 11.7567 126.541 11.8138 126.913 11.8138V12.4703C126.123 12.4703 125.59 12.2229 125.305 11.7186C125.01 12.28 124.477 12.5559 123.696 12.5559C122.916 12.5559 122.364 12.2705 122.022 11.7186C121.679 12.2229 121.194 12.4703 120.566 12.4703H116.731L116.741 12.4608Z" fill="#2E368F"/>
<path d="M126.75 12.4613V11.7953H127.987V5.78174H128.653V12.4613H126.75Z" fill="#2E368F"/>
<path d="M126.75 12.4613V11.7953H127.987V5.78174H128.653V12.4613H126.75Z" fill="#2E368F"/>
<path d="M131.195 5.78174H130.538V12.4613H131.195V5.78174Z" fill="#2E368F"/>
<path d="M131.195 5.78174H130.538V12.4613H131.195V5.78174Z" fill="#2E368F"/>
<path d="M135.353 14.269C135.172 14.269 135.001 14.2404 134.811 14.1928L134.982 13.5553C135.106 13.5839 135.22 13.6029 135.324 13.6029C135.572 13.6029 135.734 13.5268 135.819 13.3841C135.905 13.2413 135.952 12.9749 135.952 12.5943V7.97949H136.609V12.5943C136.609 13.1462 136.514 13.5648 136.323 13.8408C136.133 14.1262 135.81 14.269 135.353 14.269Z" fill="#2E368F"/>
<path d="M135.353 14.269C135.172 14.269 135.001 14.2404 134.811 14.1928L134.982 13.5553C135.106 13.5839 135.22 13.6029 135.324 13.6029C135.572 13.6029 135.734 13.5268 135.819 13.3841C135.905 13.2413 135.952 12.9749 135.952 12.5943V7.97949H136.609V12.5943C136.609 13.1462 136.514 13.5648 136.323 13.8408C136.133 14.1262 135.81 14.269 135.353 14.269Z" fill="#2E368F"/>
<path d="M137.484 12.4611V11.8046H140.577V9.89203C140.577 9.52094 140.481 9.21646 140.301 8.9881C140.12 8.75973 139.853 8.64555 139.52 8.64555H138.94V7.98901H139.425C140.006 7.98901 140.462 8.17932 140.805 8.55992C141.081 8.88343 141.224 9.32112 141.224 9.86348V11.795H142.242V12.4516H137.475L137.484 12.4611Z" fill="#2E368F"/>
<path d="M137.484 12.4611V11.8046H140.577V9.89203C140.577 9.52094 140.481 9.21646 140.301 8.9881C140.12 8.75973 139.853 8.64555 139.52 8.64555H138.94V7.98901H139.425C140.006 7.98901 140.462 8.17932 140.805 8.55992C141.081 8.88343 141.224 9.32112 141.224 9.86348V11.795H142.242V12.4516H137.475L137.484 12.4611Z" fill="#2E368F"/>
<path d="M142.08 12.4611V11.8046H143.05V7.98901H143.707V12.4611H142.07H142.08ZM143.716 14.0501C143.631 14.1358 143.517 14.1738 143.383 14.1738C143.25 14.1738 143.136 14.1358 143.05 14.0501C142.955 13.974 142.917 13.8693 142.917 13.7361C142.917 13.6029 142.965 13.4982 143.05 13.4126C143.136 13.327 143.25 13.2889 143.383 13.2889C143.517 13.2889 143.631 13.327 143.716 13.4126C143.802 13.4982 143.85 13.6029 143.85 13.7266C143.85 13.8503 143.802 13.955 143.716 14.0406" fill="#2E368F"/>
<path d="M142.08 12.4611V11.8046H143.05V7.98901H143.707V12.4611H142.07H142.08ZM143.716 14.0501C143.631 14.1358 143.517 14.1738 143.383 14.1738C143.25 14.1738 143.136 14.1358 143.05 14.0501C142.955 13.974 142.917 13.8693 142.917 13.7361C142.917 13.6029 142.965 13.4982 143.05 13.4126C143.136 13.327 143.25 13.2889 143.383 13.2889C143.517 13.2889 143.631 13.327 143.716 13.4126C143.802 13.4982 143.85 13.6029 143.85 13.7266C143.85 13.8503 143.802 13.955 143.716 14.0406V14.0501Z" fill="#2E368F"/>
<path d="M149.911 13.4887C149.435 13.4887 149.055 13.4507 148.769 13.365C148.484 13.2889 148.237 13.1557 148.027 12.9749C147.818 12.7846 147.666 12.5562 147.57 12.2708C147.475 11.9949 147.428 11.7189 147.428 11.4525V9.47336H148.084V11.3573C148.084 11.8807 148.227 12.2518 148.512 12.4801C148.798 12.7085 149.226 12.8227 149.778 12.8227H151.338V9.78736C151.338 9.17839 151.529 8.70264 151.909 8.36961C152.223 8.1127 152.652 7.97949 153.194 7.97949H154.659V11.795H155.687V12.4516H154.003V8.63603H153.203C152.851 8.63603 152.556 8.72167 152.328 8.90246C152.1 9.08324 151.995 9.34015 151.995 9.67318V13.4792H149.902L149.911 13.4887Z" fill="#2E368F"/>
<path d="M149.911 13.4887C149.435 13.4887 149.055 13.4507 148.769 13.365C148.484 13.2889 148.237 13.1557 148.027 12.9749C147.818 12.7846 147.666 12.5562 147.57 12.2708C147.475 11.9949 147.428 11.7189 147.428 11.4525V9.47336H148.084V11.3573C148.084 11.8807 148.227 12.2518 148.512 12.4801C148.798 12.7085 149.226 12.8227 149.778 12.8227H151.338V9.78736C151.338 9.17839 151.529 8.70264 151.909 8.36961C152.223 8.1127 152.652 7.97949 153.194 7.97949H154.659V11.795H155.687V12.4516H154.003V8.63603H153.203C152.851 8.63603 152.556 8.72167 152.328 8.90246C152.1 9.08324 151.995 9.34015 151.995 9.67318V13.4792H149.902L149.911 13.4887Z" fill="#2E368F"/>
<path d="M155.533 12.4611V11.8046H156.999C156.504 11.3859 156.256 10.8531 156.256 10.206C156.256 9.559 156.494 9.02615 156.96 8.61701C157.436 8.20786 158.083 7.99853 158.911 7.99853H160.024V11.8141H160.9V12.4706H155.543L155.533 12.4611ZM156.922 10.2155C156.922 10.5486 157.008 10.853 157.189 11.129C157.37 11.4049 157.617 11.6238 157.921 11.795H159.358V8.64555H158.635C158.169 8.64555 157.769 8.78828 157.427 9.08325C157.084 9.37821 156.913 9.7493 156.913 10.2155M158.854 6.94235C158.768 7.02799 158.654 7.06605 158.521 7.06605C158.388 7.06605 158.274 7.02799 158.188 6.94235C158.102 6.85672 158.055 6.75205 158.055 6.62835C158.055 6.50466 158.102 6.39048 158.188 6.30484C158.274 6.21921 158.388 6.17163 158.521 6.17163C158.654 6.17163 158.768 6.21921 158.854 6.30484C158.94 6.39048 158.987 6.49514 158.987 6.62835C158.987 6.76157 158.94 6.86623 158.854 6.94235Z" fill="#2E368F"/>
<path d="M155.533 12.4611V11.8046H156.999C156.504 11.3859 156.256 10.8531 156.256 10.206C156.256 9.559 156.494 9.02615 156.96 8.61701C157.436 8.20786 158.083 7.99853 158.911 7.99853H160.024V11.8141H160.9V12.4706H155.543L155.533 12.4611ZM156.922 10.2155C156.922 10.5486 157.008 10.853 157.189 11.129C157.37 11.4049 157.617 11.6238 157.921 11.795H159.358V8.64555H158.635C158.169 8.64555 157.769 8.78828 157.427 9.08325C157.084 9.37821 156.913 9.7493 156.913 10.2155H156.922ZM158.854 6.94235C158.768 7.02799 158.654 7.06605 158.521 7.06605C158.388 7.06605 158.274 7.02799 158.188 6.94235C158.102 6.85672 158.055 6.75205 158.055 6.62835C158.055 6.50466 158.102 6.39048 158.188 6.30484C158.274 6.21921 158.388 6.17163 158.521 6.17163C158.654 6.17163 158.768 6.21921 158.854 6.30484C158.94 6.39048 158.987 6.49514 158.987 6.62835C158.987 6.76157 158.94 6.86623 158.854 6.94235Z" fill="#2E368F"/>
<path d="M160.729 12.4608V11.8043H162.632V8.40742H163.289V11.8043H164.564C164.887 11.8043 165.144 11.7092 165.363 11.5284C165.572 11.3476 165.677 11.0621 165.677 10.691V8.40742H166.334V10.7386C166.343 11.0716 166.476 11.3381 166.714 11.5664C166.962 11.7853 167.276 11.8995 167.666 11.8995C168.056 11.8995 168.36 11.7853 168.56 11.5664C168.769 11.3381 168.874 11.0336 168.874 10.653V7.54155H169.531V10.5483C169.531 10.7481 169.512 10.967 169.474 11.1763C169.721 11.6045 170.197 11.8233 170.901 11.8233V12.4799C170.111 12.4799 169.578 12.2325 169.293 11.7282C169.007 12.2896 168.475 12.5655 167.694 12.5655C166.914 12.5655 166.353 12.2801 166.01 11.7282C165.668 12.2325 165.182 12.4799 164.554 12.4799H160.72L160.729 12.4608ZM165.506 6.93258C165.42 7.0087 165.316 7.04676 165.192 7.04676C165.068 7.04676 164.963 7.0087 164.878 6.93258C164.792 6.85646 164.745 6.7518 164.745 6.6281C164.745 6.5044 164.792 6.39974 164.878 6.3141C164.963 6.22847 165.078 6.19041 165.201 6.19041C165.325 6.19041 165.43 6.22847 165.515 6.3141C165.601 6.39974 165.649 6.5044 165.649 6.6281C165.649 6.7518 165.601 6.85646 165.515 6.93258M166.277 5.75271C166.2 5.82883 166.096 5.86689 165.982 5.86689C165.867 5.86689 165.763 5.82883 165.677 5.75271C165.591 5.67659 165.553 5.58144 165.553 5.46726C165.553 5.35308 165.591 5.25793 165.677 5.18181C165.753 5.10569 165.858 5.06763 165.982 5.06763C166.105 5.06763 166.2 5.10569 166.286 5.18181C166.362 5.25793 166.4 5.35308 166.4 5.46726C166.4 5.58144 166.362 5.67659 166.286 5.75271M167.085 6.93258C167 7.0087 166.895 7.04676 166.771 7.04676C166.648 7.04676 166.543 7.0087 166.457 6.93258C166.372 6.85646 166.324 6.7518 166.324 6.6281C166.324 6.5044 166.362 6.39974 166.448 6.3141C166.533 6.22847 166.638 6.19041 166.762 6.19041C166.885 6.19041 166.99 6.22847 167.076 6.3141C167.161 6.39974 167.209 6.5044 167.209 6.6281C167.209 6.7518 167.161 6.85646 167.076 6.93258" fill="#2E368F"/>
<path d="M160.729 12.4608V11.8043H162.632V8.40742H163.289V11.8043H164.564C164.887 11.8043 165.144 11.7092 165.363 11.5284C165.572 11.3476 165.677 11.0621 165.677 10.691V8.40742H166.334V10.7386C166.343 11.0716 166.476 11.3381 166.714 11.5664C166.962 11.7853 167.276 11.8995 167.666 11.8995C168.056 11.8995 168.36 11.7853 168.56 11.5664C168.769 11.3381 168.874 11.0336 168.874 10.653V7.54155H169.531V10.5483C169.531 10.7481 169.512 10.967 169.474 11.1763C169.721 11.6045 170.197 11.8233 170.901 11.8233V12.4799C170.111 12.4799 169.578 12.2325 169.293 11.7282C169.007 12.2896 168.475 12.5655 167.694 12.5655C166.914 12.5655 166.353 12.2801 166.01 11.7282C165.668 12.2325 165.182 12.4799 164.554 12.4799H160.72L160.729 12.4608ZM165.506 6.93258C165.42 7.0087 165.316 7.04676 165.192 7.04676C165.068 7.04676 164.963 7.0087 164.878 6.93258C164.792 6.85646 164.745 6.7518 164.745 6.6281C164.745 6.5044 164.792 6.39974 164.878 6.3141C164.963 6.22847 165.078 6.19041 165.201 6.19041C165.325 6.19041 165.43 6.22847 165.515 6.3141C165.601 6.39974 165.649 6.5044 165.649 6.6281C165.649 6.7518 165.601 6.85646 165.515 6.93258H165.506ZM166.277 5.75271C166.2 5.82883 166.096 5.86689 165.982 5.86689C165.867 5.86689 165.763 5.82883 165.677 5.75271C165.591 5.67659 165.553 5.58144 165.553 5.46726C165.553 5.35308 165.591 5.25793 165.677 5.18181C165.753 5.10569 165.858 5.06763 165.982 5.06763C166.105 5.06763 166.2 5.10569 166.286 5.18181C166.362 5.25793 166.4 5.35308 166.4 5.46726C166.4 5.58144 166.362 5.67659 166.286 5.75271H166.277ZM167.085 6.93258C167 7.0087 166.895 7.04676 166.771 7.04676C166.648 7.04676 166.543 7.0087 166.457 6.93258C166.372 6.85646 166.324 6.7518 166.324 6.6281C166.324 6.5044 166.362 6.39974 166.448 6.3141C166.533 6.22847 166.638 6.19041 166.762 6.19041C166.885 6.19041 166.99 6.22847 167.076 6.3141C167.161 6.39974 167.209 6.5044 167.209 6.6281C167.209 6.7518 167.161 6.85646 167.076 6.93258H167.085Z" fill="#2E368F"/>
<path d="M170.739 12.4614V11.8048H172.481V7.98927H173.137V11.8048H174.812V12.4614H170.739ZM172.281 6.94262C172.195 7.02825 172.081 7.06631 171.957 7.06631C171.833 7.06631 171.729 7.02825 171.634 6.94262C171.548 6.85698 171.5 6.75231 171.5 6.62862C171.5 6.50492 171.548 6.40026 171.634 6.32414C171.719 6.2385 171.824 6.20044 171.957 6.20044C172.09 6.20044 172.195 6.2385 172.281 6.32414C172.366 6.40977 172.414 6.50492 172.414 6.62862C172.414 6.75231 172.366 6.85698 172.281 6.94262ZM173.879 6.94262C173.794 7.01874 173.679 7.06631 173.556 7.06631C173.432 7.06631 173.318 7.02825 173.232 6.94262C173.147 6.85698 173.099 6.75231 173.099 6.62862C173.099 6.50492 173.147 6.40026 173.232 6.32414C173.318 6.2385 173.432 6.20044 173.556 6.20044C173.679 6.20044 173.794 6.2385 173.879 6.32414C173.965 6.40977 174.012 6.50492 174.012 6.63813C174.012 6.77134 173.965 6.8665 173.879 6.95213" fill="#2E368F"/>
<path d="M170.739 12.4614V11.8048H172.481V7.98927H173.137V11.8048H174.812V12.4614H170.739ZM172.281 6.94262C172.195 7.02825 172.081 7.06631 171.957 7.06631C171.833 7.06631 171.729 7.02825 171.634 6.94262C171.548 6.85698 171.5 6.75231 171.5 6.62862C171.5 6.50492 171.548 6.40026 171.634 6.32414C171.719 6.2385 171.824 6.20044 171.957 6.20044C172.09 6.20044 172.195 6.2385 172.281 6.32414C172.366 6.40977 172.414 6.50492 172.414 6.62862C172.414 6.75231 172.366 6.85698 172.281 6.94262ZM173.879 6.94262C173.794 7.01874 173.679 7.06631 173.556 7.06631C173.432 7.06631 173.318 7.02825 173.232 6.94262C173.147 6.85698 173.099 6.75231 173.099 6.62862C173.099 6.50492 173.147 6.40026 173.232 6.32414C173.318 6.2385 173.432 6.20044 173.556 6.20044C173.679 6.20044 173.794 6.2385 173.879 6.32414C173.965 6.40977 174.012 6.50492 174.012 6.63813C174.012 6.77134 173.965 6.8665 173.879 6.95213V6.94262Z" fill="#2E368F"/>
<path d="M174.649 12.4608V11.8043H176.552V8.39785H177.209V11.8043H178.484C178.807 11.8043 179.064 11.7091 179.283 11.5283C179.492 11.3475 179.597 11.0621 179.597 10.6815V8.39785H180.254V10.729C180.263 11.0621 180.396 11.3285 180.634 11.5569C180.882 11.7757 181.196 11.8899 181.586 11.8899C181.976 11.8899 182.271 11.7757 182.48 11.5569C182.689 11.3285 182.794 11.024 182.794 10.6434V7.53198H183.451V10.5387C183.451 10.7766 183.432 10.986 183.394 11.1572C183.527 11.3856 183.698 11.5473 183.926 11.652C184.145 11.7567 184.45 11.8138 184.821 11.8138V12.4703C184.031 12.4703 183.498 12.2229 183.213 11.7186C182.918 12.28 182.385 12.5559 181.605 12.5559C180.824 12.5559 180.273 12.2705 179.93 11.7186C179.587 12.2229 179.102 12.4703 178.474 12.4703H174.64L174.649 12.4608Z" fill="#2E368F"/>
<path d="M174.649 12.4608V11.8043H176.552V8.39785H177.209V11.8043H178.484C178.807 11.8043 179.064 11.7091 179.283 11.5283C179.492 11.3475 179.597 11.0621 179.597 10.6815V8.39785H180.254V10.729C180.263 11.0621 180.396 11.3285 180.634 11.5569C180.882 11.7757 181.196 11.8899 181.586 11.8899C181.976 11.8899 182.271 11.7757 182.48 11.5569C182.689 11.3285 182.794 11.024 182.794 10.6434V7.53198H183.451V10.5387C183.451 10.7766 183.432 10.986 183.394 11.1572C183.527 11.3856 183.698 11.5473 183.926 11.652C184.145 11.7567 184.45 11.8138 184.821 11.8138V12.4703C184.031 12.4703 183.498 12.2229 183.213 11.7186C182.918 12.28 182.385 12.5559 181.605 12.5559C180.824 12.5559 180.273 12.2705 179.93 11.7186C179.587 12.2229 179.102 12.4703 178.474 12.4703H174.64L174.649 12.4608Z" fill="#2E368F"/>
<path d="M184.66 12.4609V11.8044H185.678C185.545 11.4904 185.478 11.1573 185.478 10.8338C185.478 10.1678 185.707 9.59687 186.154 9.13063C186.61 8.66439 187.172 8.42651 187.838 8.42651C188.504 8.42651 189.075 8.65488 189.532 9.12111C189.988 9.58735 190.226 10.1583 190.226 10.8338C190.226 11.5094 189.998 12.0803 189.532 12.5275C189.065 12.9747 188.494 13.2031 187.809 13.2031C187.124 13.2031 186.553 12.9557 186.097 12.4609H184.65H184.66ZM186.63 12.0327C186.953 12.3753 187.353 12.537 187.838 12.537C188.323 12.537 188.732 12.3753 189.075 12.0518C189.408 11.7282 189.579 11.3191 189.579 10.8148C189.579 10.3105 189.417 9.90135 189.084 9.57784C188.751 9.24481 188.342 9.08305 187.847 9.08305C187.353 9.08305 186.944 9.25432 186.63 9.58735C186.306 9.9299 186.154 10.3295 186.154 10.8053C186.154 11.281 186.316 11.6902 186.639 12.0232" fill="#2E368F"/>
<path d="M184.66 12.4609V11.8044H185.678C185.545 11.4904 185.478 11.1573 185.478 10.8338C185.478 10.1678 185.707 9.59687 186.154 9.13063C186.61 8.66439 187.172 8.42651 187.838 8.42651C188.504 8.42651 189.075 8.65488 189.532 9.12111C189.988 9.58735 190.226 10.1583 190.226 10.8338C190.226 11.5094 189.998 12.0803 189.532 12.5275C189.065 12.9747 188.494 13.2031 187.809 13.2031C187.124 13.2031 186.553 12.9557 186.097 12.4609H184.65H184.66ZM186.63 12.0327C186.953 12.3753 187.353 12.537 187.838 12.537C188.323 12.537 188.732 12.3753 189.075 12.0518C189.408 11.7282 189.579 11.3191 189.579 10.8148C189.579 10.3105 189.417 9.90135 189.084 9.57784C188.751 9.24481 188.342 9.08305 187.847 9.08305C187.353 9.08305 186.944 9.25432 186.63 9.58735C186.306 9.9299 186.154 10.3295 186.154 10.8053C186.154 11.281 186.316 11.6902 186.639 12.0232L186.63 12.0327Z" fill="#2E368F"/>
<path d="M80.2988 18.4082H84.8661C85.6273 18.4082 86.2077 18.608 86.6168 18.9981C87.026 19.3883 87.2258 19.8735 87.2258 20.4539C87.2258 20.9392 87.0831 21.3579 86.7881 21.7004C86.5978 21.9288 86.3124 22.1191 85.9413 22.2523C86.5122 22.395 86.9213 22.6424 87.1973 22.985C87.4637 23.3275 87.5969 23.7652 87.5969 24.2885C87.5969 24.7167 87.5017 25.0973 87.3114 25.4398C87.1211 25.7824 86.8642 26.0488 86.5312 26.2486C86.3219 26.3723 86.0174 26.458 85.6082 26.5151C85.0564 26.5912 84.6948 26.6292 84.514 26.6292H80.2988V18.4177V18.4082ZM82.7537 21.6243H83.8099C84.1905 21.6243 84.4569 21.5577 84.5996 21.4245C84.7519 21.2913 84.8185 21.0915 84.8185 20.8345C84.8185 20.5967 84.7424 20.4064 84.5996 20.2732C84.4474 20.1399 84.1905 20.0733 83.8194 20.0733H82.7442V21.6338L82.7537 21.6243ZM82.7537 24.8499H84.0002C84.4189 24.8499 84.7138 24.7738 84.8851 24.6216C85.0564 24.4693 85.142 24.26 85.142 23.9936C85.142 23.7557 85.0564 23.5559 84.8851 23.4131C84.7138 23.2704 84.4189 23.1943 83.9907 23.1943H82.7537V24.8594V24.8499Z" fill="#2E368F"/>
<path d="M93.534 25.2591H90.7652L90.3846 26.6102H87.8916L90.8603 18.3987H93.5245L96.4932 26.6102H93.9432L93.5436 25.2591H93.534ZM93.0297 23.4892L92.1544 20.5396L91.2885 23.4892H93.0202H93.0297Z" fill="#2E368F"/>
<path d="M97.293 18.4082H100.918C101.632 18.4082 102.212 18.5129 102.65 18.7127C103.088 18.9125 103.449 19.2075 103.744 19.5786C104.03 19.9592 104.239 20.3969 104.372 20.8916C104.505 21.3959 104.562 21.9193 104.562 22.4807C104.562 23.356 104.467 24.0411 104.277 24.5264C104.087 25.0117 103.82 25.4113 103.478 25.7443C103.135 26.0678 102.774 26.2867 102.384 26.4009C101.851 26.5531 101.365 26.6292 100.928 26.6292H97.3025V18.4177L97.293 18.4082ZM99.7288 20.2636V24.7452H100.328C100.842 24.7452 101.204 24.6882 101.413 24.5645C101.632 24.4503 101.794 24.2409 101.917 23.946C102.041 23.651 102.098 23.1753 102.098 22.5187C102.098 21.6528 101.965 21.0534 101.689 20.7299C101.413 20.4064 100.966 20.2446 100.328 20.2446H99.7193L99.7288 20.2636Z" fill="#2E368F"/>
<path d="M105.866 26.6197V18.4082H109.929C110.681 18.4082 111.261 18.4748 111.661 18.608C112.061 18.7412 112.384 18.9886 112.622 19.3597C112.869 19.7213 112.983 20.1685 112.983 20.6918C112.983 21.1485 112.888 21.5387 112.708 21.8717C112.517 22.2047 112.26 22.4711 111.937 22.671C111.728 22.8042 111.442 22.9088 111.08 22.9945C111.375 23.0991 111.585 23.1943 111.718 23.299C111.804 23.3656 111.937 23.5083 112.108 23.7271C112.279 23.946 112.394 24.1173 112.451 24.2409L113.631 26.6197H110.871L109.568 24.1077C109.406 23.7842 109.254 23.5749 109.13 23.4702C108.959 23.3465 108.759 23.2799 108.53 23.2799H108.312V26.6102H105.866V26.6197ZM108.321 21.7385H109.349C109.463 21.7385 109.672 21.7004 109.996 21.6243C110.158 21.5862 110.291 21.5006 110.395 21.3674C110.5 21.2247 110.548 21.0724 110.548 20.8916C110.548 20.6252 110.462 20.4254 110.31 20.2827C110.148 20.1399 109.844 20.0733 109.396 20.0733H108.321V21.7385Z" fill="#2E368F"/>
<path d="M122.945 25.2591H120.176L119.796 26.6102H117.303L120.271 18.3987H122.936L125.904 26.6102H123.354L122.955 25.2591H122.945ZM122.441 23.4892L121.565 20.5396L120.7 23.4892H122.431H122.441Z" fill="#2E368F"/>
<path d="M126.665 18.4082H129.11V24.593H132.916V26.6197H126.665V18.4082Z" fill="#2E368F"/>
<path d="M137.274 23.8985L139.596 23.7463C139.644 24.1364 139.748 24.4409 139.901 24.6407C140.148 24.9737 140.51 25.1355 140.976 25.1355C141.328 25.1355 141.594 25.0499 141.785 24.8786C141.975 24.7073 142.07 24.5075 142.07 24.2887C142.07 24.0698 141.984 23.889 141.804 23.7178C141.623 23.5465 141.204 23.3942 140.557 23.242C139.491 22.9946 138.721 22.6616 138.274 22.2429C137.817 21.8243 137.588 21.3009 137.588 20.6539C137.588 20.2352 137.703 19.8356 137.94 19.455C138.178 19.0839 138.53 18.7889 138.997 18.5701C139.472 18.3512 140.119 18.2466 140.938 18.2466C141.946 18.2466 142.717 18.4464 143.25 18.8365C143.783 19.2266 144.097 19.8451 144.192 20.7015L141.889 20.8442C141.832 20.4731 141.699 20.2067 141.509 20.0354C141.309 19.8641 141.042 19.788 140.7 19.788C140.414 19.788 140.205 19.8546 140.062 19.9783C139.92 20.102 139.843 20.2543 139.843 20.4351C139.843 20.5683 139.901 20.6824 140.024 20.7871C140.138 20.8918 140.414 20.9964 140.843 21.0916C141.908 21.3295 142.669 21.5673 143.136 21.8147C143.592 22.0621 143.935 22.3666 144.144 22.7282C144.354 23.0898 144.458 23.4989 144.458 23.9461C144.458 24.4694 144.316 24.9547 144.04 25.4019C143.764 25.8491 143.364 26.1822 142.869 26.4105C142.365 26.6389 141.737 26.7531 140.966 26.7531C139.625 26.7531 138.692 26.4866 138.178 25.9443C137.665 25.4019 137.37 24.7264 137.303 23.8985" fill="#2E368F"/>
<path d="M150.519 25.2591H147.751L147.37 26.6102H144.877L147.846 18.3987H150.51L153.479 26.6102H150.929L150.538 25.2591H150.519ZM150.006 23.4892L149.13 20.5396L148.264 23.4892H149.996H150.006Z" fill="#2E368F"/>
<path d="M154.212 18.4082H157.419L158.655 23.4036L159.892 18.4082H163.089V26.6197H161.101V20.3588L159.559 26.6197H157.752L156.21 20.3588V26.6197H154.212V18.4082Z" fill="#2E368F"/>
<path d="M169.502 25.2591H166.733L166.352 26.6102H163.859L166.828 18.3987H169.492L172.461 26.6102H169.911L169.521 25.2591H169.502ZM168.998 23.4892L168.122 20.5396L167.256 23.4892H168.988H168.998Z" fill="#2E368F"/>
<path d="M178.076 25.2591H175.307L174.927 26.6102H172.434L175.402 18.3987H178.067L181.035 26.6102H178.485L178.095 25.2591H178.076ZM177.572 23.4892L176.696 20.5396L175.83 23.4892H177.562H177.572Z" fill="#2E368F"/>
<path d="M73.4669 30.3687C74.9608 30.3687 75.722 30.7588 76.2263 31.1774C77.0541 31.872 77.3015 32.795 77.3015 33.6133C77.3015 34.6695 76.8828 35.5924 76.036 36.1633C75.76 36.3536 75.3699 36.5344 74.8561 36.6296L78.234 41.1873H75.6078L72.7247 36.8389H72.4678V41.1873H70.3555V30.3687H73.4859H73.4669ZM72.4393 35.345H73.0387C73.4479 35.345 75.113 35.2975 75.113 33.7084C75.113 32.1194 73.4574 32.0909 73.0673 32.0909H72.4393V35.3546V35.345Z" fill="#2E368F"/>
<path d="M90.6792 35.7826C90.6792 39.0748 88.31 41.425 84.9036 41.425C81.4972 41.425 79.1279 39.0748 79.1279 35.7826C79.1279 32.4903 81.4972 30.1211 84.9036 30.1211C88.31 30.1211 90.6792 32.4903 90.6792 35.7826ZM88.5098 35.7826C88.5098 33.5941 87.0159 32.0336 84.9036 32.0336C82.7912 32.0336 81.2974 33.5941 81.2974 35.7826C81.2974 37.971 82.7912 39.5125 84.9036 39.5125C87.0159 39.5125 88.5098 37.971 88.5098 35.7826Z" fill="#2E368F"/>
<path d="M94.5712 36.2395L90.8604 30.3687H93.3628L95.675 34.1271L97.9967 30.3687H100.499L96.6836 36.2395V41.1873H94.5712V36.2395Z" fill="#2E368F"/>
<path d="M106.76 38.9132H102.392L101.431 41.1873H99.1475L103.8 30.3687H105.456L109.985 41.1873H107.711L106.75 38.9132H106.76ZM106.141 37.2005L104.6 33.3088L103.058 37.2005H106.141Z" fill="#2E368F"/>
<path d="M113.365 30.3687V39.3699H116.704V41.1873H111.262V30.3687H113.365Z" fill="#2E368F"/>
<path d="M124.059 34.5553H128.635V30.3687H130.748V41.1873H128.635V36.3727H124.059V41.1873H121.946V30.3687H124.059V34.5553Z" fill="#2E368F"/>
<path d="M144.24 35.7826C144.24 39.0748 141.871 41.425 138.464 41.425C135.058 41.425 132.688 39.0748 132.688 35.7826C132.688 32.4903 135.058 30.1211 138.464 30.1211C141.871 30.1211 144.24 32.4903 144.24 35.7826ZM142.07 35.7826C142.07 33.5941 140.576 32.0336 138.464 32.0336C136.352 32.0336 134.858 33.5941 134.858 35.7826C134.858 37.971 136.352 39.5125 138.464 39.5125C140.576 39.5125 142.07 37.971 142.07 35.7826Z" fill="#2E368F"/>
<path d="M151.509 32.8329C150.871 31.9861 150.129 31.9099 149.739 31.9099C148.607 31.9099 148.245 32.6236 148.245 33.1754C148.245 33.4323 148.331 33.6797 148.588 33.9081C148.844 34.1555 149.206 34.2792 149.882 34.5266C150.728 34.8215 151.518 35.107 152.07 35.6113C152.555 36.049 152.993 36.7817 152.993 37.8854C152.993 39.9978 151.471 41.4345 149.225 41.4345C147.227 41.4345 146.066 40.2166 145.495 39.3888L146.875 38.0757C147.398 39.1319 148.388 39.522 149.149 39.522C150.11 39.522 150.824 38.9416 150.824 38.0281C150.824 37.638 150.69 37.3335 150.405 37.0576C149.996 36.6865 149.349 36.4772 148.73 36.2583C148.159 36.068 147.484 35.8016 146.932 35.3163C146.57 35.0118 146.076 34.4124 146.076 33.3087C146.076 31.7196 147.151 30.1306 149.549 30.1306C150.234 30.1306 151.509 30.2638 152.612 31.3961L151.509 32.8424V32.8329Z" fill="#2E368F"/>
<path d="M158.008 30.3687C159.226 30.3687 160.073 30.5019 160.862 31.1965C161.738 31.9767 161.966 33.0329 161.966 33.8131C161.966 34.2318 161.9 35.4021 161.072 36.2299C160.472 36.8294 159.578 37.191 158.331 37.191H156.971V41.1968H154.858V30.3782H158.008V30.3687ZM156.961 35.3641H157.818C158.227 35.3641 158.741 35.3641 159.197 35.0215C159.587 34.717 159.778 34.2223 159.778 33.756C159.778 33.1566 159.483 32.7474 159.178 32.5191C158.741 32.2146 158.189 32.1765 157.684 32.1765H156.952V35.3546L156.961 35.3641Z" fill="#2E368F"/>
<path d="M165.63 30.3687H163.518V41.1873H165.63V30.3687Z" fill="#2E368F"/>
<path d="M171.501 32.186V41.1873H169.398V32.186H166.962V30.3687H173.936V32.186H171.501Z" fill="#2E368F"/>
<path d="M181.045 38.9132H176.677L175.716 41.1873H173.433L178.086 30.3687H179.741L184.27 41.1873H181.996L181.035 38.9132H181.045ZM180.426 37.2005L178.885 33.3088L177.343 37.2005H180.426Z" fill="#2E368F"/>
<path d="M187.647 30.3687V39.3699H190.987V41.1873H185.544V30.3687H187.647Z" fill="#2E368F"/>
</g>
<defs>
<clipPath id="clip0_209_17115">
<rect width="190.425" height="50.2016" fill="white" transform="translate(0.5625 0.757324)"/>
</clipPath>
</defs>
</svg>
