<svg width="18" height="17" viewBox="0 0 18 17" fill="none" xmlns="http://www.w3.org/2000/svg">
<path d="M8.81529 8.28058C14.0138 8.43058 12.163 11.6969 10.505 13.4084C10.4975 13.1194 10.3185 13.1006 9.71319 14.0214C8.77384 15.4502 8.12459 14.9995 7.91738 14.5955L7.36481 11.2786V9.62012H4.46398C1.70115 9.72218 3.3128 7.57894 4.46398 6.49456L7.40704 3.25885C7.85916 2.68704 8.35629 2.15213 8.81529 1.71057L7.40704 3.25885C5.68209 5.44048 4.61236 8.15931 8.81529 8.28058Z" fill="#E4FF85"/>
<path d="M11.0494 12.4566C9.62054 14.2419 8.90609 15.1346 8.23953 14.946C7.57297 14.7573 7.57299 13.6624 7.57303 11.4727L7.57303 11.2663C7.57304 10.4765 7.57305 10.0816 7.29979 9.83387L7.28533 9.82104C7.00617 9.57857 6.56112 9.57857 5.67101 9.57857C4.06925 9.57857 3.26836 9.57857 2.99769 9.12994C2.99321 9.12251 2.98885 9.11502 2.98462 9.10748C2.72911 8.65191 3.19282 8.0725 4.12024 6.91369L6.33075 4.15167C7.75962 2.3663 8.47405 1.47362 9.14061 1.66226C9.80717 1.8509 9.80717 2.94578 9.80717 5.13553V5.342C9.80717 6.13179 9.80717 6.52669 10.0804 6.77439L10.0949 6.78722C10.374 7.02969 10.8191 7.02969 11.7092 7.02969C13.311 7.02969 14.1118 7.02969 14.3825 7.47832C14.387 7.48575 14.3914 7.49324 14.3956 7.50078C14.6511 7.95636 14.1874 8.53576 13.2599 9.69457" stroke="#023321" stroke-width="0.808747" stroke-linecap="round"/>
</svg>
