<svg width="37" height="36" viewBox="0 0 37 36" fill="none" xmlns="http://www.w3.org/2000/svg">
<path d="M17.1294 32.5032C8.08375 31.5013 6.06131 19.5612 6.18078 13.7164L4.81546 13.1917L3.20178 14.226L3.60508 19.3979V24.8572L4.81546 30.6037C5.83003 33.1322 13.4475 32.9235 17.1294 32.5032Z" fill="#E4FF85"/>
<path d="M27.1709 23.702L24.1987 23.702M24.1987 23.702L21.2264 23.702M24.1987 23.702L24.1987 20.739M24.1987 23.702L24.1987 26.6649" stroke="#023321" stroke-width="2.22919" stroke-linecap="round"/>
<path d="M10.8237 5.92434V3.70215" stroke="#023321" stroke-width="2.22919" stroke-linecap="round"/>
<path d="M25.6851 5.92434V3.70215" stroke="#023321" stroke-width="2.22919" stroke-linecap="round"/>
<path d="M32.3725 13.3315H25.1277H16.3967M3.3931 13.3315H9.15183" stroke="#023321" stroke-width="2.22919" stroke-linecap="round"/>
<path d="M21.2268 32.5909H15.2823C9.67781 32.5909 6.87555 32.5909 5.13444 30.8553C3.39334 29.1196 3.39334 26.3261 3.39334 20.7392V17.7763C3.39334 12.1893 3.39334 9.39584 5.13444 7.6602C6.87555 5.92456 9.67781 5.92456 15.2823 5.92456H21.2268C26.8314 5.92456 29.6336 5.92456 31.3747 7.6602C33.1158 9.39584 33.1158 12.1893 33.1158 17.7763V20.7392C33.1158 26.3261 33.1158 29.1196 31.3747 30.8553C30.404 31.8229 29.1035 32.2511 27.1713 32.4405" stroke="#023321" stroke-width="2.22919" stroke-linecap="round"/>
</svg>
