<svg width="24" height="25" viewBox="0 0 24 25" fill="none" xmlns="http://www.w3.org/2000/svg">
<path d="M14 22.4424H10C6.22876 22.4424 4.34315 22.4424 3.17157 21.2708C2 20.0992 2 18.2136 2 14.4424V12.4424C2 8.67115 2 6.78553 3.17157 5.61396C4.34315 4.44238 6.22876 4.44238 10 4.44238H14C17.7712 4.44238 19.6569 4.44238 20.8284 5.61396C22 6.78553 22 8.67115 22 12.4424V14.4424C22 18.2136 22 20.0992 20.8284 21.2708C20.1752 21.924 19.3001 22.213 18 22.3409" stroke="#023321" stroke-opacity="0.5" stroke-width="1.5" stroke-linecap="round"/>
<path d="M7 4.44238V2.94238" stroke="#023321" stroke-opacity="0.5" stroke-width="1.5" stroke-linecap="round"/>
<path d="M17 4.44238V2.94238" stroke="#023321" stroke-opacity="0.5" stroke-width="1.5" stroke-linecap="round"/>
<path d="M21.5 9.44238H16.625H10.75M2 9.44238H5.875" stroke="#023321" stroke-opacity="0.5" stroke-width="1.5" stroke-linecap="round"/>
<path d="M18 17.4424C18 17.9947 17.5523 18.4424 17 18.4424C16.4477 18.4424 16 17.9947 16 17.4424C16 16.8901 16.4477 16.4424 17 16.4424C17.5523 16.4424 18 16.8901 18 17.4424Z" fill="#023321" fill-opacity="0.5"/>
<path d="M18 13.4424C18 13.9947 17.5523 14.4424 17 14.4424C16.4477 14.4424 16 13.9947 16 13.4424C16 12.8901 16.4477 12.4424 17 12.4424C17.5523 12.4424 18 12.8901 18 13.4424Z" fill="#023321" fill-opacity="0.5"/>
<path d="M13 17.4424C13 17.9947 12.5523 18.4424 12 18.4424C11.4477 18.4424 11 17.9947 11 17.4424C11 16.8901 11.4477 16.4424 12 16.4424C12.5523 16.4424 13 16.8901 13 17.4424Z" fill="#023321" fill-opacity="0.5"/>
<path d="M13 13.4424C13 13.9947 12.5523 14.4424 12 14.4424C11.4477 14.4424 11 13.9947 11 13.4424C11 12.8901 11.4477 12.4424 12 12.4424C12.5523 12.4424 13 12.8901 13 13.4424Z" fill="#023321" fill-opacity="0.5"/>
<path d="M8 17.4424C8 17.9947 7.55228 18.4424 7 18.4424C6.44772 18.4424 6 17.9947 6 17.4424C6 16.8901 6.44772 16.4424 7 16.4424C7.55228 16.4424 8 16.8901 8 17.4424Z" fill="#023321" fill-opacity="0.5"/>
<path d="M8 13.4424C8 13.9947 7.55228 14.4424 7 14.4424C6.44772 14.4424 6 13.9947 6 13.4424C6 12.8901 6.44772 12.4424 7 12.4424C7.55228 12.4424 8 12.8901 8 13.4424Z" fill="#023321" fill-opacity="0.5"/>
</svg>
