<svg width="25" height="25" viewBox="0 0 25 25" fill="none" xmlns="http://www.w3.org/2000/svg">
<path d="M14.8008 22.9365H10.8008C7.02954 22.9365 5.14393 22.9365 3.97235 21.7649C2.80078 20.5934 2.80078 18.7078 2.80078 14.9365V12.9365C2.80078 9.16529 2.80078 7.27967 3.97235 6.1081C5.14393 4.93652 7.02955 4.93652 10.8008 4.93652H14.8008C18.572 4.93652 20.4576 4.93652 21.6292 6.1081C22.8008 7.27967 22.8008 9.16529 22.8008 12.9365V14.9365C22.8008 18.7078 22.8008 20.5934 21.6292 21.7649C20.976 22.4181 20.1009 22.7071 18.8008 22.835" stroke="#023321" stroke-width="1.5" stroke-linecap="round"/>
<path d="M7.80078 4.93652V3.43652" stroke="#023321" stroke-width="1.5" stroke-linecap="round"/>
<path d="M17.8008 4.93652V3.43652" stroke="#023321" stroke-width="1.5" stroke-linecap="round"/>
<path d="M22.3008 9.93652H17.4258H11.5508M2.80078 9.93652H6.67578" stroke="#023321" stroke-width="1.5" stroke-linecap="round"/>
<path d="M18.8008 17.9365C18.8008 18.4888 18.3531 18.9365 17.8008 18.9365C17.2485 18.9365 16.8008 18.4888 16.8008 17.9365C16.8008 17.3842 17.2485 16.9365 17.8008 16.9365C18.3531 16.9365 18.8008 17.3842 18.8008 17.9365Z" fill="#023321"/>
<path d="M18.8008 13.9365C18.8008 14.4888 18.3531 14.9365 17.8008 14.9365C17.2485 14.9365 16.8008 14.4888 16.8008 13.9365C16.8008 13.3842 17.2485 12.9365 17.8008 12.9365C18.3531 12.9365 18.8008 13.3842 18.8008 13.9365Z" fill="#023321"/>
<path d="M13.8008 17.9365C13.8008 18.4888 13.3531 18.9365 12.8008 18.9365C12.2485 18.9365 11.8008 18.4888 11.8008 17.9365C11.8008 17.3842 12.2485 16.9365 12.8008 16.9365C13.3531 16.9365 13.8008 17.3842 13.8008 17.9365Z" fill="#023321"/>
<path d="M13.8008 13.9365C13.8008 14.4888 13.3531 14.9365 12.8008 14.9365C12.2485 14.9365 11.8008 14.4888 11.8008 13.9365C11.8008 13.3842 12.2485 12.9365 12.8008 12.9365C13.3531 12.9365 13.8008 13.3842 13.8008 13.9365Z" fill="#023321"/>
<path d="M8.80078 17.9365C8.80078 18.4888 8.35307 18.9365 7.80078 18.9365C7.2485 18.9365 6.80078 18.4888 6.80078 17.9365C6.80078 17.3842 7.2485 16.9365 7.80078 16.9365C8.35307 16.9365 8.80078 17.3842 8.80078 17.9365Z" fill="#023321"/>
<path d="M8.80078 13.9365C8.80078 14.4888 8.35307 14.9365 7.80078 14.9365C7.2485 14.9365 6.80078 14.4888 6.80078 13.9365C6.80078 13.3842 7.2485 12.9365 7.80078 12.9365C8.35307 12.9365 8.80078 13.3842 8.80078 13.9365Z" fill="#023321"/>
</svg>
