<svg width="42" height="42" viewBox="0 0 42 42" fill="none" xmlns="http://www.w3.org/2000/svg">
<path d="M15.7848 7.46021C11.3044 13.0391 16.0855 26.1191 19.0361 31.9617L15.7848 30.1347L11.9863 25.0529L8.01562 16.6953C8.01562 9.91024 13.1951 7.71146 15.7848 7.46021Z" fill="#E4FF85"/>
<path d="M24.7734 4.0144C24.7734 4.0144 28.5636 4.35897 33.3875 9.18286C38.2114 14.0068 38.556 17.797 38.556 17.797" stroke="#023321" stroke-width="1.9505" stroke-linecap="round"/>
<path d="M25.1289 10.106C25.1289 10.106 26.8344 10.5932 29.3927 13.1515C31.9509 15.7098 32.4382 17.4153 32.4382 17.4153" stroke="#023321" stroke-width="1.9505" stroke-linecap="round"/>
<path d="M7.55426 14.2362C7.42963 17.5236 8.2616 23.1064 13.8618 28.7065C15.2128 30.0576 16.5628 31.1311 17.8799 31.9806M10.1923 9.07489C12.5921 6.67509 16.421 6.99752 17.9446 9.72773L19.0628 11.7312C20.0718 13.5393 19.6668 15.9112 18.0775 17.5004C18.0775 17.5005 18.0775 17.5004 18.0775 17.5005C18.0773 17.5007 16.15 19.4284 19.6449 22.9233C23.1387 26.4171 25.0663 24.4923 25.0678 24.4908C25.0679 24.4907 25.0678 24.4908 25.0679 24.4907C26.6572 22.9015 29.029 22.4965 30.837 23.5055L32.8406 24.6236C35.5708 26.1473 35.8932 29.9761 33.4934 32.3759C32.0514 33.818 30.2849 34.94 28.3321 35.014C26.9296 35.0672 25.1094 34.9463 23.0483 34.3553" stroke="#023321" stroke-width="1.9505" stroke-linecap="round"/>
</svg>
