<svg width="10" height="17" viewBox="0 0 10 17" fill="none" xmlns="http://www.w3.org/2000/svg">
<path d="M9.08288 7.92069L8.88027 9.54768C8.84599 9.81946 8.61584 10.0239 8.34283 10.0239H5.70769V16.8263C5.42979 16.8514 5.14822 16.8643 4.86359 16.8643C4.22699 16.8643 3.6057 16.8006 3.00521 16.6794V10.0239H0.978511C0.792429 10.0239 0.640625 9.87149 0.640625 9.68479V7.64891C0.640625 7.46221 0.792429 7.3098 0.978511 7.3098H3.00521V4.25658C3.00521 2.38291 4.51774 0.864258 6.38407 0.864258H8.74866C8.93475 0.864258 9.08655 1.01667 9.08655 1.20337V3.23925C9.08655 3.42595 8.93475 3.57836 8.74866 3.57836H7.05923C6.31307 3.57836 5.7083 4.18558 5.7083 4.93542V7.31041H8.54605C8.8717 7.31041 9.12328 7.59688 9.08349 7.9213L9.08288 7.92069Z" fill="white"/>
</svg>
