<svg width="33" height="32" viewBox="0 0 33 32" fill="none" xmlns="http://www.w3.org/2000/svg">
<path d="M12.1857 5.50415C8.74013 9.79454 12.4169 19.8535 14.6861 24.3466L12.1857 22.9416L9.26451 19.0336L6.21094 12.6062C6.21094 7.38831 10.1941 5.69737 12.1857 5.50415Z" fill="#E4FF85"/>
<path d="M19.0977 2.85425C19.0977 2.85425 22.0124 3.11923 25.7222 6.82896C29.4319 10.5387 29.6969 13.4535 29.6969 13.4535" stroke="#1C274C" stroke-width="2.16349" stroke-linecap="round"/>
<path d="M19.3711 7.53882C19.3711 7.53882 20.6827 7.91356 22.6501 9.88094C24.6175 11.8483 24.9922 13.1599 24.9922 13.1599" stroke="#1C274C" stroke-width="2.16349" stroke-linecap="round"/>
<path d="M5.85634 10.7151C5.7605 13.2432 6.40031 17.5366 10.707 21.8433C11.746 22.8823 12.7842 23.7079 13.7971 24.3612M7.8851 6.74589C9.73063 4.90037 12.6751 5.14833 13.8469 7.24795L14.7068 8.78872C15.4828 10.1792 15.1713 12.0032 13.9491 13.2254C13.9491 13.2254 13.9491 13.2254 13.9491 13.2254C13.9489 13.2256 12.4667 14.7081 15.1545 17.3958C17.8413 20.0826 19.3237 18.6024 19.3249 18.6012C19.3249 18.6012 19.3249 18.6012 19.3249 18.6012C20.5471 17.379 22.3711 17.0675 23.7616 17.8435L25.3023 18.7034C27.402 19.8752 27.6499 22.8197 25.8044 24.6652C24.6955 25.7741 23.3369 26.637 21.8352 26.694C20.7567 26.7348 19.3569 26.6418 17.7718 26.1874" stroke="#1C274C" stroke-width="2.16349" stroke-linecap="round"/>
</svg>
