<svg width="29" height="29" viewBox="0 0 29 29" fill="none" xmlns="http://www.w3.org/2000/svg">
<path d="M13.4452 26.3442C6.2262 25.5446 4.61216 16.0157 4.70751 11.3511L3.61789 10.9324L2.33008 11.7579L2.65193 15.8854V20.2422L3.61789 24.8283C4.42759 26.8462 10.5068 26.6797 13.4452 26.3442Z" fill="#E4FF85"/>
<path d="M21.4589 19.3202L19.0869 19.3202M19.0869 19.3202L16.7148 19.3202M19.0869 19.3202L19.0869 16.9556M19.0869 19.3202L19.0869 21.6848" stroke="#023321" stroke-width="1.93671" stroke-linecap="round"/>
<path d="M8.41406 5.13258V3.35913" stroke="#023321" stroke-width="1.93671" stroke-linecap="round"/>
<path d="M20.2734 5.13258V3.35913" stroke="#023321" stroke-width="1.93671" stroke-linecap="round"/>
<path d="M25.6113 11.0439H19.8295H12.8616M2.48388 11.0439H7.07972" stroke="#023321" stroke-width="1.93671" stroke-linecap="round"/>
<path d="M16.7147 26.4138H11.9706C7.49783 26.4138 5.26145 26.4138 3.87193 25.0286C2.48242 23.6435 2.48242 21.4141 2.48242 16.9554V14.5907C2.48242 10.132 2.48242 7.90263 3.87193 6.51748C5.26145 5.13232 7.49783 5.13232 11.9706 5.13232H16.7147C21.1875 5.13232 23.4239 5.13232 24.8134 6.51748C26.2029 7.90263 26.2029 10.132 26.2029 14.5907V16.9554C26.2029 21.4141 26.2029 23.6435 24.8134 25.0286C24.0387 25.8009 23.0007 26.1426 21.4588 26.2938" stroke="#023321" stroke-width="1.93671" stroke-linecap="round"/>
</svg>
