<svg width="29" height="29" viewBox="0 0 29 29" fill="none" xmlns="http://www.w3.org/2000/svg">
<path d="M13.9196 2.87483C9.88849 1.79682 8.72456 5.00354 8.64648 6.74165L9.81861 7.38613H15.326C19.9194 6.68306 21.263 10.2179 21.3606 12.0732V17.7564C23.2355 17.8033 25.1885 15.7058 25.9306 14.6512C26.3016 13.577 26.95 10.6202 26.5751 7.38613C26.2001 4.15202 23.7237 3.03105 22.5324 2.87483H13.9196Z" fill="#E4FF85"/>
<path d="M12.9468 25.7484L13.7832 26.2434L12.9468 25.7484ZM13.2556 25.2266L12.4192 24.7316V24.7316L13.2556 25.2266ZM10.5682 25.2266L11.4046 24.7316L11.4046 24.7316L10.5682 25.2266ZM10.877 25.7484L10.0406 26.2434H10.0406L10.877 25.7484ZM2.75113 20.5351L3.64908 20.1631L2.75113 20.5351ZM7.49469 23.4566L7.52576 22.4851H7.52576L7.49469 23.4566ZM5.3281 23.1121L4.95616 24.01H4.95616L5.3281 23.1121ZM21.0727 20.5351L21.9707 20.907L21.0727 20.5351ZM16.3291 23.4566L16.2981 22.4851L16.3291 23.4566ZM18.4958 23.1121L18.8677 24.01L18.4958 23.1121ZM19.1615 7.98659L19.6693 7.15788V7.15788L19.1615 7.98659ZM20.7335 9.55861L21.5622 9.05077V9.05077L20.7335 9.55861ZM4.66236 7.98659L4.15452 7.15788V7.15788L4.66236 7.98659ZM3.09034 9.55861L2.26163 9.05077H2.26163L3.09034 9.55861ZM9.43157 23.7391L8.93673 24.5757H8.93673L9.43157 23.7391ZM13.7832 26.2434L14.092 25.7217L12.4192 24.7316L12.1104 25.2533L13.7832 26.2434ZM9.73181 25.7217L10.0406 26.2434L11.7134 25.2533L11.4046 24.7316L9.73181 25.7217ZM12.1104 25.2533C12.0719 25.3183 12.0048 25.3595 11.9119 25.3595C11.819 25.3595 11.7519 25.3183 11.7134 25.2533L10.0406 26.2434C10.8771 27.6567 12.9467 27.6567 13.7832 26.2434L12.1104 25.2533ZM10.4834 8.25684H13.3404V6.31298H10.4834V8.25684ZM20.4632 15.3797V16.332H22.4071V15.3797H20.4632ZM3.3606 16.332V15.3797H1.41674V16.332H3.3606ZM1.41674 16.332C1.41674 17.4281 1.41621 18.2988 1.4643 19.0036C1.51298 19.7171 1.61472 20.3313 1.85318 20.907L3.64908 20.1631C3.52508 19.8638 3.44559 19.4858 3.40366 18.8712C3.36113 18.248 3.3606 17.4547 3.3606 16.332H1.41674ZM7.52576 22.4851C6.58453 22.455 6.084 22.3731 5.70005 22.2141L4.95616 24.01C5.68053 24.31 6.47622 24.3964 7.46362 24.428L7.52576 22.4851ZM1.85318 20.907C2.4351 22.3119 3.55128 23.4281 4.95616 24.01L5.70005 22.2141C4.77147 21.8295 4.03371 21.0917 3.64908 20.1631L1.85318 20.907ZM20.4632 16.332C20.4632 17.4547 20.4627 18.248 20.4202 18.8712C20.3783 19.4858 20.2988 19.8638 20.1748 20.1631L21.9707 20.907C22.2091 20.3313 22.3109 19.7171 22.3596 19.0036C22.4076 18.2988 22.4071 17.4281 22.4071 16.332H20.4632ZM16.3602 24.428C17.3476 24.3964 18.1433 24.31 18.8677 24.01L18.1238 22.2141C17.7399 22.3731 17.2393 22.455 16.2981 22.4851L16.3602 24.428ZM20.1748 20.1631C19.7901 21.0917 19.0524 21.8295 18.1238 22.2141L18.8677 24.01C20.2726 23.4281 21.3888 22.3119 21.9707 20.907L20.1748 20.1631ZM13.3404 8.25684C14.9179 8.25684 16.0328 8.25787 16.8986 8.34019C17.7499 8.42114 18.2595 8.57377 18.6537 8.8153L19.6693 7.15788C18.9184 6.69773 18.0762 6.49953 17.0826 6.40505C16.1034 6.31195 14.8803 6.31298 13.3404 6.31298V8.25684ZM22.4071 15.3797C22.4071 13.8398 22.4081 12.6167 22.315 11.6375C22.2206 10.6439 22.0224 9.80167 21.5622 9.05077L19.9048 10.0664C20.1463 10.4606 20.299 10.9702 20.3799 11.8215C20.4622 12.6873 20.4632 13.8022 20.4632 15.3797H22.4071ZM18.6537 8.8153C19.1636 9.12778 19.5923 9.55651 19.9048 10.0664L21.5622 9.05077C21.0895 8.27929 20.4408 7.63065 19.6693 7.15788L18.6537 8.8153ZM10.4834 6.31298C8.94357 6.31298 7.72042 6.31195 6.74127 6.40505C5.74765 6.49953 4.90541 6.69773 4.15452 7.15788L5.17019 8.8153C5.56432 8.57377 6.07394 8.42114 6.92527 8.34019C7.79106 8.25787 8.90593 8.25684 10.4834 8.25684V6.31298ZM3.3606 15.3797C3.3606 13.8022 3.36163 12.6873 3.44395 11.8215C3.52489 10.9702 3.67753 10.4606 3.91905 10.0664L2.26163 9.05077C1.80149 9.80167 1.60329 10.6439 1.50881 11.6375C1.41571 12.6167 1.41674 13.8398 1.41674 15.3797H3.3606ZM4.15452 7.15788C3.38304 7.63065 2.7344 8.27929 2.26163 9.05077L3.91905 10.0664C4.23154 9.55651 4.66027 9.12778 5.17019 8.8153L4.15452 7.15788ZM11.4046 24.7316C11.1663 24.329 10.9545 23.9692 10.7485 23.6856C10.5309 23.386 10.2783 23.1108 9.9264 22.9026L8.93673 24.5757C8.97901 24.6007 9.04726 24.6511 9.17573 24.8279C9.31574 25.0207 9.47515 25.2881 9.73181 25.7217L11.4046 24.7316ZM7.46362 24.428C7.99531 24.445 8.33012 24.4566 8.58328 24.4875C8.82113 24.5165 8.90045 24.5542 8.93673 24.5757L9.9264 22.9026C9.56846 22.6909 9.19357 22.6037 8.81864 22.558C8.45902 22.5141 8.02251 22.501 7.52576 22.4851L7.46362 24.428ZM14.092 25.7217C14.3487 25.2881 14.5081 25.0207 14.6481 24.8279C14.7766 24.6511 14.8448 24.6007 14.8871 24.5757L13.8974 22.9026C13.5455 23.1108 13.2929 23.386 13.0753 23.6856C12.8693 23.9692 12.6575 24.329 12.4192 24.7316L14.092 25.7217ZM16.2981 22.4851C15.8013 22.501 15.3648 22.5141 15.0052 22.558C14.6303 22.6037 14.2554 22.6909 13.8974 22.9026L14.8871 24.5757C14.9234 24.5542 15.0027 24.5165 15.2405 24.4875C15.4937 24.4566 15.8285 24.445 16.3602 24.428L16.2981 22.4851Z" fill="#023321"/>
<path d="M25.8576 14.9452L26.7555 15.3172V15.3172L25.8576 14.9452ZM23.4417 17.3611L23.8136 18.2591L23.8136 18.2591L23.4417 17.3611ZM24.0658 3.18101L23.558 4.00972V4.00972L24.0658 3.18101ZM25.5396 4.65478L26.3683 4.14695V4.14695L25.5396 4.65478ZM10.4728 3.18101L9.96501 2.35231V2.35231L10.4728 3.18101ZM8.99909 4.65478L8.17038 4.14695H8.17038L8.99909 4.65478ZM15.9301 3.49513H18.6085V1.55126H15.9301V3.49513ZM25.2254 10.1121V11.0049H27.1693V10.1121H25.2254ZM25.2254 11.0049C25.2254 12.0582 25.2249 12.7995 25.1852 13.3812C25.1461 13.9543 25.0723 14.3013 24.9596 14.5733L26.7555 15.3172C26.9827 14.7688 27.0787 14.1856 27.1246 13.5136C27.1698 12.8503 27.1693 12.0316 27.1693 11.0049H25.2254ZM24.9596 14.5733C24.6052 15.4289 23.9254 16.1088 23.0697 16.4632L23.8136 18.2591C25.1456 17.7074 26.2038 16.6491 26.7555 15.3172L24.9596 14.5733ZM18.6085 3.49513C20.0886 3.49513 21.1304 3.49615 21.9386 3.57299C22.7322 3.64845 23.1996 3.79012 23.558 4.00972L24.5736 2.35231C23.8585 1.91408 23.0585 1.72684 22.1226 1.63785C21.2011 1.55024 20.051 1.55126 18.6085 1.55126V3.49513ZM27.1693 10.1121C27.1693 8.66962 27.1703 7.51952 27.0827 6.59802C26.9937 5.66206 26.8065 4.86206 26.3683 4.14695L24.7108 5.16261C24.9304 5.52097 25.0721 5.98834 25.1476 6.78202C25.2244 7.59016 25.2254 8.63198 25.2254 10.1121H27.1693ZM23.558 4.00972C24.0278 4.29767 24.4229 4.69273 24.7108 5.16261L26.3683 4.14695C25.92 3.41551 25.3051 2.80053 24.5736 2.35231L23.558 4.00972ZM15.9301 1.55126C14.4877 1.55126 13.3376 1.55024 12.4161 1.63785C11.4801 1.72684 10.6801 1.91408 9.96501 2.35231L10.9807 4.00972C11.339 3.79012 11.8064 3.64845 12.6001 3.57299C13.4082 3.49615 14.45 3.49513 15.9301 3.49513V1.55126ZM9.96501 2.35231C9.23358 2.80053 8.6186 3.41551 8.17038 4.14695L9.8278 5.16261C10.1157 4.69273 10.5108 4.29767 10.9807 4.00972L9.96501 2.35231ZM9.35148 7.33531C9.41077 6.19541 9.55876 5.60165 9.8278 5.16261L8.17038 4.14695C7.63936 5.0135 7.47381 6.01216 7.41024 7.23433L9.35148 7.33531ZM21.4681 18.6547C22.3827 18.6243 23.13 18.5422 23.8136 18.2591L23.0697 16.4632C22.724 16.6064 22.2691 16.6831 21.4035 16.7119L21.4681 18.6547Z" fill="#023321"/>
<path d="M7.75586 15.6177H7.76657M11.9112 15.6177H11.922M16.0669 15.6177H16.0777" stroke="#023321" stroke-width="2.59182" stroke-linecap="round" stroke-linejoin="round"/>
</svg>
