<svg width="13" height="14" viewBox="0 0 13 14" fill="none" xmlns="http://www.w3.org/2000/svg">
<path d="M9.92676 0.484375H3.32758C1.62714 0.484375 0.248047 1.86346 0.248047 3.56391V10.1631C0.248047 11.8635 1.62714 13.2426 3.32758 13.2426H9.92676C11.6272 13.2426 13.0063 11.8635 13.0063 10.1631V3.56391C13.0063 1.86346 11.6272 0.484375 9.92676 0.484375ZM11.9063 9.94273C11.9063 11.1572 10.9208 12.1427 9.7064 12.1427H3.54733C2.3329 12.1427 1.3474 11.1572 1.3474 9.94273V3.78366C1.3474 2.56923 2.3329 1.58373 3.54733 1.58373H9.7064C10.9208 1.58373 11.9063 2.56923 11.9063 3.78366V9.94273Z" fill="white"/>
<path d="M6.63327 3.56396C4.81223 3.56396 3.33398 5.04222 3.33398 6.86325C3.33398 8.68428 4.81223 10.1625 6.63327 10.1625C8.4543 10.1625 9.93255 8.68428 9.93255 6.86325C9.93255 5.04222 8.4543 3.56396 6.63327 3.56396ZM6.63327 9.06318C5.42128 9.06318 4.43334 8.07523 4.43334 6.86325C4.43334 5.65127 5.42128 4.66332 6.63327 4.66332C7.84525 4.66332 8.8332 5.65127 8.8332 6.86325C8.8332 8.07523 7.84525 9.06318 6.63327 9.06318Z" fill="white"/>
<path d="M10.152 4.0038C10.5165 4.0038 10.8119 3.70837 10.8119 3.34394C10.8119 2.97951 10.5165 2.68408 10.152 2.68408C9.78761 2.68408 9.49219 2.97951 9.49219 3.34394C9.49219 3.70837 9.78761 4.0038 10.152 4.0038Z" fill="white"/>
</svg>
