<svg width="32" height="27" viewBox="0 0 32 27" fill="none" xmlns="http://www.w3.org/2000/svg">
<path d="M24.9824 7.53833L21.7606 10.2232C19.0197 12.5073 17.6492 13.6493 16.0283 13.6493C15.0593 13.6493 14.1799 13.2412 13.0436 12.4249M7.07422 7.53833L8.41733 8.65759L9.76045 9.77685" stroke="#023321" stroke-width="1.99634" stroke-linecap="round"/>
<path d="M6.20703 24.3367C18.0167 24.737 27.3104 16.8298 30.481 12.8262V18.206C30.9702 21.9242 28.3492 24.5931 26.9776 25.4627H11.4633L6.20703 24.3367Z" fill="#E4FF85"/>
<path d="M30.9524 13.5076C30.9524 19.1356 30.9524 21.9496 29.204 23.698C27.4556 25.4464 24.6416 25.4464 19.0136 25.4464H13.0443C7.41626 25.4464 4.60226 25.4464 2.85386 23.698C1.10547 21.9496 1.10547 19.1356 1.10547 13.5076C1.10547 7.87964 1.10547 5.06564 2.85386 3.31724C4.60226 1.56885 7.41626 1.56885 13.0443 1.56885H19.0136C24.6416 1.56885 27.4556 1.56885 29.204 3.31724C30.1788 4.29202 30.6101 5.59802 30.801 7.53824" stroke="#023321" stroke-width="1.99634" stroke-linecap="round"/>
</svg>
