<svg width="20" height="18" viewBox="0 0 20 18" fill="none" xmlns="http://www.w3.org/2000/svg">
<path d="M4.9525 2.06414C4.9525 3.20414 4.02836 4.12829 2.88836 4.12829C1.74837 4.12829 0.824219 3.20414 0.824219 2.06414C0.824219 0.924148 1.74837 0 2.88836 0C4.02836 0 4.9525 0.924148 4.9525 2.06414Z" fill="black"/>
<path d="M12.177 2.06414C12.177 3.20414 11.2529 4.12829 10.1129 4.12829C8.97286 4.12829 8.04872 3.20414 8.04872 2.06414C8.04872 0.924148 8.97286 0 10.1129 0C11.2529 0 12.177 0.924148 12.177 2.06414Z" fill="black"/>
<path d="M19.4015 2.06414C19.4015 3.20414 18.4774 4.12829 17.3374 4.12829C16.1974 4.12829 15.2732 3.20414 15.2732 2.06414C15.2732 0.924148 16.1974 0 17.3374 0C18.4774 0 19.4015 0.924148 19.4015 2.06414Z" fill="black"/>
<path d="M4.9525 9.00042C4.9525 10.1404 4.02836 11.0646 2.88836 11.0646C1.74837 11.0646 0.824219 10.1404 0.824219 9.00042C0.824219 7.86043 1.74837 6.93628 2.88836 6.93628C4.02836 6.93628 4.9525 7.86043 4.9525 9.00042Z" fill="black"/>
<path d="M12.177 9.00042C12.177 10.1404 11.2529 11.0646 10.1129 11.0646C8.97286 11.0646 8.04872 10.1404 8.04872 9.00042C8.04872 7.86043 8.97286 6.93628 10.1129 6.93628C11.2529 6.93628 12.177 7.86043 12.177 9.00042Z" fill="black"/>
<path d="M19.4015 9.00042C19.4015 10.1404 18.4774 11.0646 17.3374 11.0646C16.1974 11.0646 15.2732 10.1404 15.2732 9.00042C15.2732 7.86043 16.1974 6.93628 17.3374 6.93628C18.4774 6.93628 19.4015 7.86043 19.4015 9.00042Z" fill="black"/>
<path d="M4.9525 15.9357C4.9525 17.0757 4.02836 17.9999 2.88836 17.9999C1.74837 17.9999 0.824219 17.0757 0.824219 15.9357C0.824219 14.7957 1.74837 13.8716 2.88836 13.8716C4.02836 13.8716 4.9525 14.7957 4.9525 15.9357Z" fill="black"/>
<path d="M12.177 15.9357C12.177 17.0757 11.2529 17.9999 10.1129 17.9999C8.97286 17.9999 8.04872 17.0757 8.04872 15.9357C8.04872 14.7957 8.97286 13.8716 10.1129 13.8716C11.2529 13.8716 12.177 14.7957 12.177 15.9357Z" fill="black"/>
<path d="M19.4015 15.9357C19.4015 17.0757 18.4774 17.9999 17.3374 17.9999C16.1974 17.9999 15.2732 17.0757 15.2732 15.9357C15.2732 14.7957 16.1974 13.8716 17.3374 13.8716C18.4774 13.8716 19.4015 14.7957 19.4015 15.9357Z" fill="black"/>
</svg>
