<svg width="25" height="25" viewBox="0 0 25 25" fill="none" xmlns="http://www.w3.org/2000/svg">
<path d="M10.5469 8.96191C10.5469 7.92638 11.3863 7.08691 12.4219 7.08691C13.4574 7.08691 14.2969 7.92638 14.2969 8.96191C14.2969 9.64936 13.9269 10.2504 13.3752 10.5768C12.8999 10.858 12.4219 11.2846 12.4219 11.8369V13.0869" stroke="#023321" stroke-width="1.5" stroke-linecap="round"/>
<circle cx="12.4219" cy="16.0869" r="1" fill="#023321"/>
<path d="M22.4219 12.0869C22.4219 16.801 22.4219 19.158 20.9574 20.6224C19.4929 22.0869 17.1359 22.0869 12.4219 22.0869C7.70783 22.0869 5.35081 22.0869 3.88634 20.6224C2.42188 19.158 2.42188 16.801 2.42188 12.0869C2.42188 7.37287 2.42188 5.01585 3.88634 3.55138C5.35081 2.08691 7.70783 2.08691 12.4219 2.08691C17.1359 2.08691 19.4929 2.08691 20.9574 3.55138C21.9311 4.52512 22.2574 5.89347 22.3668 8.08691" stroke="#023321" stroke-width="1.5" stroke-linecap="round"/>
</svg>
