<svg width="26" height="26" viewBox="0 0 26 26" fill="none" xmlns="http://www.w3.org/2000/svg">
<path fill-rule="evenodd" clip-rule="evenodd" d="M12.5539 23.4835C18.32 23.4835 22.9944 18.809 22.9944 13.0429C22.9944 7.2767 18.32 2.60229 12.5539 2.60229C6.78769 2.60229 2.11328 7.2767 2.11328 13.0429C2.11328 18.809 6.78769 23.4835 12.5539 23.4835ZM10.4341 9.35701C10.7399 9.05121 11.2357 9.05121 11.5415 9.35701L14.6736 12.4892C14.9794 12.795 14.9794 13.2908 14.6736 13.5966L11.5415 16.7287C11.2357 17.0345 10.7399 17.0345 10.4341 16.7287C10.1283 16.4229 10.1283 15.9272 10.4341 15.6214L13.0126 13.0429L10.4341 10.4644C10.1283 10.1586 10.1283 9.6628 10.4341 9.35701Z" fill="#E4FF85"/>
</svg>
