<svg width="64" height="64" viewBox="0 0 64 64" fill="none" xmlns="http://www.w3.org/2000/svg">
<g filter="url(#filter0_d_798_6625)">
<circle cx="31.9998" cy="26.2307" r="14.5833" fill="white"/>
</g>
<path d="M30.3066 21.3616C30.0337 21.0888 29.5913 21.0888 29.3184 21.3616C29.0456 21.6345 29.0456 22.0769 29.3184 22.3498L30.3066 21.3616ZM34.1875 26.2307L34.6816 26.7248C34.9544 26.4519 34.9544 26.0095 34.6816 25.7366L34.1875 26.2307ZM29.3184 30.1116C29.0456 30.3845 29.0456 30.8269 29.3184 31.0998C29.5913 31.3727 30.0337 31.3727 30.3066 31.0998L29.3184 30.1116ZM29.3184 22.3498L33.6934 26.7248L34.6816 25.7366L30.3066 21.3616L29.3184 22.3498ZM33.6934 25.7366L29.3184 30.1116L30.3066 31.0998L34.6816 26.7248L33.6934 25.7366Z" fill="black"/>
<defs>
<filter id="filter0_d_798_6625" x="0.647217" y="0.467814" width="62.7051" height="62.7052" filterUnits="userSpaceOnUse" color-interpolation-filters="sRGB">
<feFlood flood-opacity="0" result="BackgroundImageFix"/>
<feColorMatrix in="SourceAlpha" type="matrix" values="0 0 0 0 0 0 0 0 0 0 0 0 0 0 0 0 0 0 127 0" result="hardAlpha"/>
<feOffset dy="5.58976"/>
<feGaussianBlur stdDeviation="8.38464"/>
<feComposite in2="hardAlpha" operator="out"/>
<feColorMatrix type="matrix" values="0 0 0 0 0.0581405 0 0 0 0 0.0765111 0 0 0 0 0.141643 0 0 0 0.11 0"/>
<feBlend mode="normal" in2="BackgroundImageFix" result="effect1_dropShadow_798_6625"/>
<feBlend mode="normal" in="SourceGraphic" in2="effect1_dropShadow_798_6625" result="shape"/>
</filter>
</defs>
</svg>
