<svg width="24" height="24" viewBox="0 0 24 24" fill="none" xmlns="http://www.w3.org/2000/svg">
<path d="M9.53498 19.6797C5.62111 19.679 3.49274 11.432 2.91779 7.30859C1.89023 7.30859 1.91178 10.9875 2.051 12.8269C1.35757 14.6226 2.33993 17.6902 2.91779 18.9996C5.18245 20.1967 8.27286 19.9518 9.53498 19.6797Z" fill="#E4FF85"/>
<path d="M9 12C9 12.5523 8.55228 13 8 13C7.44772 13 7 12.5523 7 12C7 11.4477 7.44772 11 8 11C8.55228 11 9 11.4477 9 12Z" fill="#023321"/>
<path d="M13 12C13 12.5523 12.5523 13 12 13C11.4477 13 11 12.5523 11 12C11 11.4477 11.4477 11 12 11C12.5523 11 13 11.4477 13 12Z" fill="#023321"/>
<path d="M15 2V22" stroke="#023321" stroke-width="1.5" stroke-linecap="round"/>
<path d="M22 12C22 15.7712 22 17.6569 20.8284 18.8284C19.7653 19.8915 18.1143 19.99 15 19.9991M12 4H10C6.22876 4 4.34315 4 3.17157 5.17157C2 6.34315 2 8.22876 2 12C2 15.7712 2 17.6569 3.17157 18.8284C4.34315 20 6.22876 20 10 20H12M15 4.00093C18.1143 4.01004 19.7653 4.10848 20.8284 5.17157C21.4816 5.82475 21.7706 6.69989 21.8985 8" stroke="#023321" stroke-width="1.5" stroke-linecap="round"/>
</svg>
