<svg width="23" height="23" viewBox="0 0 23 23" fill="none" xmlns="http://www.w3.org/2000/svg">
<circle cx="15.6182" cy="5.78644" r="2.91315" fill="#E4FF85"/>
<circle cx="15.6182" cy="17.4683" r="2.91315" fill="#E4FF85"/>
<path d="M4.38574 11.6299C4.38574 12.87 5.39104 13.8753 6.63114 13.8753C7.87123 13.8753 8.87653 12.87 8.87653 11.6299C8.87653 10.3898 7.87123 9.38452 6.63114 9.38452" stroke="#023321" stroke-width="1.55116" stroke-linecap="round"/>
<path d="M13.3668 6.69043L8.87598 9.83398" stroke="#023321" stroke-width="1.55116" stroke-linecap="round"/>
<path d="M13.3668 16.5701L8.87598 13.4265" stroke="#023321" stroke-width="1.55116" stroke-linecap="round"/>
<path d="M15.6126 19.7137C16.8527 19.7137 17.858 18.7084 17.858 17.4683C17.858 16.2282 16.8527 15.2229 15.6126 15.2229C14.3725 15.2229 13.3672 16.2282 13.3672 17.4683" stroke="#023321" stroke-width="1.55116" stroke-linecap="round"/>
<path d="M17.5575 6.91485C16.9375 7.98881 15.5642 8.35677 14.4903 7.73672C13.4163 7.11667 13.0483 5.74341 13.6684 4.66946C14.2884 3.5955 15.6617 3.22754 16.7357 3.84759" stroke="#023321" stroke-width="1.55116" stroke-linecap="round"/>
</svg>
