<svg width="25" height="25" viewBox="0 0 25 25" fill="none" xmlns="http://www.w3.org/2000/svg">
<path d="M6.80078 10.2119H10.8008" stroke="#023321" stroke-width="1.5" stroke-linecap="round" stroke-linejoin="round"/>
<path d="M22.7985 12.7119C22.7985 12.6345 22.8008 12.1792 22.7985 12.1465C22.7631 11.6458 22.3336 11.2469 21.7943 11.2141C21.7591 11.2119 21.7174 11.2119 21.6341 11.2119H19.0316C17.2472 11.2119 15.8008 12.5551 15.8008 14.2119C15.8008 15.8688 17.2472 17.2119 19.0316 17.2119H21.6341C21.7174 17.2119 21.7591 17.2119 21.7943 17.2098C22.3336 17.177 22.7631 16.7781 22.7985 16.2773C22.8008 16.2447 22.8008 15.7893 22.8008 15.7119" stroke="#023321" stroke-width="1.5" stroke-linecap="round"/>
<circle cx="18.8008" cy="14.2119" r="1" fill="#023321"/>
<path d="M10.8008 22.2119H13.8008C17.572 22.2119 19.4576 22.2119 20.6292 21.0403C21.4374 20.2322 21.6881 19.0842 21.7658 17.2119M21.7658 11.2119C21.6881 9.33961 21.4374 8.19166 20.6292 7.38349C19.4576 6.21191 17.572 6.21191 13.8008 6.21191H10.8008C7.02954 6.21191 5.14393 6.21191 3.97235 7.38349C2.80078 8.55506 2.80078 10.4407 2.80078 14.2119C2.80078 17.9832 2.80078 19.8688 3.97235 21.0403C4.62554 21.6935 5.50067 21.9825 6.80078 22.1104" stroke="#023321" stroke-width="1.5" stroke-linecap="round"/>
<path d="M6.80078 6.21191L10.5363 3.73505C11.5882 3.03754 13.0133 3.03754 14.0653 3.73505L17.8008 6.21191" stroke="#023321" stroke-width="1.5" stroke-linecap="round"/>
</svg>
